<?xml version="1.0" encoding="UTF-8" standalone="no"?>
<!-- Created with Inkscape (http://www.inkscape.org/) -->

<svg
   width="223mm"
   height="145mm"
   viewBox="0 0 223 145"
   version="1.1"
   id="svg1"
   xml:space="preserve"
   xmlns="http://www.w3.org/2000/svg"
   xmlns:svg="http://www.w3.org/2000/svg"><defs
     id="defs1" /><g
     id="layer2"><g
       id="g22"
       transform="translate(-25.50316,-28.105523)"><path
         style="fill:#d1f3fc"
         d="m 157.63672,171.87361 c 1.78263,-0.0458 4.69967,-0.0458 6.4823,0 1.78263,0.0458 0.32411,0.0832 -3.24115,0.0832 -3.56526,0 -5.02378,-0.0375 -3.24115,-0.0832 z m 77.0599,-0.43142 c 0,-0.0549 0.20836,-0.2633 0.46302,-0.46302 0.41965,-0.32911 0.42901,-0.31975 0.0999,0.0999 -0.34565,0.44073 -0.56292,0.58089 -0.56292,0.36313 z m -84.29769,-7.17615 c 4.1e-4,-2.03729 0.0419,-2.83575 0.0923,-1.77436 0.0504,1.06139 0.05,2.72827 -7.6e-4,3.70417 -0.0508,0.9759 -0.0919,0.10748 -0.0915,-1.92981 z M 62.651306,149.91242 c 10.51388,-0.0383 27.718412,-0.0383 38.232294,0 10.51388,0.0383 1.91161,0.0697 -19.116148,0.0697 -21.027761,0 -29.630027,-0.0314 -19.116146,-0.0697 z m 185.030784,-5.24759 c 0.0127,-0.30823 0.0754,-0.37092 0.15986,-0.15986 0.0764,0.191 0.067,0.4192 -0.0209,0.50712 -0.0879,0.0879 -0.15045,-0.0684 -0.13897,-0.34726 z m 0.52917,-3.43959 c 0.0127,-0.30822 0.0754,-0.37092 0.15985,-0.15985 0.0764,0.191 0.067,0.4192 -0.0209,0.50712 -0.0879,0.0879 -0.15045,-0.0683 -0.13896,-0.34727 z M 55.242972,140.65208 c 5.420652,-0.04 14.290808,-0.04 19.711459,0 5.420651,0.04 0.985573,0.0727 -9.855729,0.0727 -10.841303,0 -15.276381,-0.0327 -9.85573,-0.0727 z m -11.60927,-1.05843 c -0.329107,-0.41965 -0.319749,-0.42901 0.0999,-0.0999 0.440729,0.34564 0.580887,0.56292 0.363126,0.56292 -0.05494,0 -0.263301,-0.20836 -0.463021,-0.46302 z m 195.612418,-0.99219 c 0.005,-0.43656 0.0647,-0.58313 0.13177,-0.3257 0.0671,0.25743 0.0627,0.61462 -0.01,0.79375 -0.0725,0.17914 -0.12736,-0.0315 -0.12197,-0.46805 z m -0.01,-9.65729 c 0,-0.36381 0.06,-0.51263 0.13345,-0.33073 0.0734,0.1819 0.0734,0.47955 0,0.66145 -0.0734,0.18191 -0.13345,0.0331 -0.13345,-0.33072 z m -72.33918,-0.17523 c 0.1819,-0.0734 0.47956,-0.0734 0.66146,0 0.1819,0.0734 0.0331,0.13345 -0.33073,0.13345 -0.3638,0 -0.51263,-0.06 -0.33073,-0.13345 z m 1.46025,-0.008 c 0.25743,-0.0671 0.61461,-0.0627 0.79375,0.01 0.17913,0.0725 -0.0315,0.12736 -0.46806,0.12197 -0.43656,-0.005 -0.58313,-0.0647 -0.32569,-0.13178 z m -6.61459,-1.05833 c 0.25743,-0.0671 0.61462,-0.0627 0.79375,0.01 0.17913,0.0725 -0.0315,0.12736 -0.46805,0.12197 -0.43657,-0.005 -0.58313,-0.0647 -0.3257,-0.13177 z m 86.46846,-1.55849 c 0.0127,-0.30822 0.0754,-0.37092 0.15985,-0.15985 0.0764,0.191 0.067,0.4192 -0.0209,0.50712 -0.0879,0.0879 -0.15045,-0.0683 -0.13896,-0.34727 z m -70.66464,-1.03628 c 0.49366,-0.50933 0.95709,-0.92604 1.02985,-0.92604 0.0728,0 -0.27161,0.41671 -0.76527,0.92604 -0.49365,0.50932 -0.95708,0.92604 -1.02984,0.92604 -0.0728,0 0.27161,-0.41672 0.76526,-0.92604 z m -61.58653,-0.39688 c 0,-0.50932 0.0545,-0.71768 0.121,-0.46302 0.0665,0.25466 0.0665,0.67138 0,0.92604 -0.0666,0.25466 -0.121,0.0463 -0.121,-0.46302 z m -80.452946,-3.175 c 0,-0.3638 0.06005,-0.51263 0.133452,-0.33073 0.0734,0.1819 0.0734,0.47956 0,0.66146 -0.0734,0.1819 -0.133452,0.0331 -0.133452,-0.33073 z m -9.260417,-0.26458 c 0,-0.3638 0.06005,-0.51263 0.133452,-0.33073 0.0734,0.1819 0.0734,0.47956 0,0.66146 -0.0734,0.1819 -0.133452,0.0331 -0.133452,-0.33073 z m 77.696113,-0.97449 c 0.191,-0.0764 0.4192,-0.067 0.50712,0.0209 0.0879,0.0879 -0.0684,0.15045 -0.34726,0.13896 -0.30823,-0.0127 -0.37092,-0.0754 -0.15986,-0.15985 z m 3.96875,0 c 0.191,-0.0764 0.4192,-0.067 0.50712,0.0209 0.0879,0.0879 -0.0684,0.15045 -0.34726,0.13896 -0.30823,-0.0127 -0.37092,-0.0754 -0.15986,-0.15985 z m 56.51302,-1.47291 -0.50403,-0.59531 0.59531,0.50403 c 0.32742,0.27721 0.59531,0.5451 0.59531,0.59531 0,0.21173 -0.21293,0.0554 -0.68659,-0.50403 z m 7.30118,0.49542 c 0,-0.0549 0.20836,-0.2633 0.46302,-0.46302 0.41964,-0.32911 0.429,-0.31975 0.0999,0.0999 -0.34564,0.44073 -0.56291,0.58089 -0.56291,0.36313 z m -16.87175,-3.6044 c 0,-0.50932 0.0545,-0.71768 0.121,-0.46302 0.0666,0.25466 0.0666,0.67138 0,0.92604 -0.0666,0.25466 -0.121,0.0463 -0.121,-0.46302 z m 18.50122,0.26458 c 0,-0.3638 0.0601,-0.51263 0.13346,-0.33073 0.0734,0.1819 0.0734,0.47956 0,0.66146 -0.0734,0.1819 -0.13346,0.0331 -0.13346,-0.33073 z M 35.507144,115.715 c 0,-0.3638 0.06005,-0.51263 0.133452,-0.33073 0.0734,0.1819 0.0734,0.47956 0,0.66146 -0.0734,0.1819 -0.133452,0.0331 -0.133452,-0.33073 z m 127.529166,-0.26458 c 0,-0.36381 0.0601,-0.51263 0.13346,-0.33073 0.0734,0.1819 0.0734,0.47955 0,0.66145 -0.0734,0.18191 -0.13346,0.0331 -0.13346,-0.33072 z m 18.80503,-0.52917 c 0,-0.50932 0.0545,-0.71768 0.121,-0.46302 0.0665,0.25466 0.0665,0.67138 0,0.92604 -0.0666,0.25466 -0.121,0.0463 -0.121,-0.46302 z m -155.615501,0.11024 c 0.0127,-0.30822 0.07539,-0.37092 0.159853,-0.15985 0.07643,0.191 0.06703,0.4192 -0.02089,0.50712 -0.08792,0.0879 -0.150452,-0.0683 -0.138964,-0.34727 z m 147.108341,-0.26458 c 0.0127,-0.30823 0.0754,-0.37092 0.15985,-0.15985 0.0764,0.19099 0.067,0.4192 -0.0209,0.50711 -0.0879,0.0879 -0.15045,-0.0683 -0.13896,-0.34726 z m -18.49015,-0.7717 c 0.005,-0.43657 0.0647,-0.58313 0.13178,-0.3257 0.0671,0.25743 0.0627,0.61462 -0.01,0.79375 -0.0725,0.17913 -0.12736,-0.0315 -0.12197,-0.46805 z m 13.65715,-4.0172 c 0.19099,-0.0764 0.4192,-0.067 0.50712,0.0209 0.0879,0.0879 -0.0683,0.15045 -0.34727,0.13896 -0.30822,-0.0127 -0.37092,-0.0754 -0.15985,-0.15985 z m -75.819087,-2.86197 c 0.0029,-0.58208 0.05712,-0.78905 0.120405,-0.45994 0.06329,0.32912 0.06088,0.80537 -0.0053,1.05834 -0.06622,0.25296 -0.118003,-0.0163 -0.115066,-0.5984 z m 27.000067,-0.66146 c 0,-0.80036 0.0496,-1.12778 0.11022,-0.7276 0.0606,0.40018 0.0606,1.05502 0,1.45521 -0.0606,0.40018 -0.11022,0.0728 -0.11022,-0.72761 z m 38.68217,-0.52916 c 0.26339,-0.29105 0.53842,-0.52917 0.61118,-0.52917 0.0728,0 -0.0832,0.23812 -0.3466,0.52917 -0.26339,0.29104 -0.53842,0.52916 -0.61118,0.52916 -0.0728,0 0.0832,-0.23812 0.3466,-0.52916 z m 19.28944,-0.33073 -0.50402,-0.59532 0.59531,0.50403 c 0.55945,0.47366 0.71576,0.6866 0.50403,0.6866 -0.0502,0 -0.3181,-0.26789 -0.59532,-0.59531 z m -75.11653,-2.31511 c 0.26339,-0.29104 0.53842,-0.52916 0.61119,-0.52916 0.0728,0 -0.0832,0.23812 -0.3466,0.52916 -0.26339,0.29104 -0.53842,0.52917 -0.61118,0.52917 -0.0728,0 0.0832,-0.23813 0.34659,-0.52917 z m 3.50573,-1.49814 c 0.1819,-0.0734 0.47956,-0.0734 0.66146,0 0.1819,0.0734 0.0331,0.13345 -0.33073,0.13345 -0.3638,0 -0.51263,-0.0601 -0.33073,-0.13345 z m 61.91559,-0.0119 c 0.32912,-0.0633 0.80537,-0.0609 1.05833,0.005 0.25297,0.0662 -0.0163,0.118 -0.59839,0.11506 -0.58209,-0.003 -0.78906,-0.0571 -0.45994,-0.1204 z m 57.19304,-1.59881 -0.64144,-0.727607 0.72761,0.641437 c 0.68005,0.59951 0.84894,0.81377 0.64143,0.81377 -0.0474,0 -0.37482,-0.32742 -0.7276,-0.7276 z M 42.873701,98.152603 c 0,-0.05494 0.20836,-0.263301 0.463021,-0.46302 0.419644,-0.329108 0.429002,-0.319749 0.09989,0.09989 -0.345644,0.44073 -0.562916,0.580888 -0.562916,0.363126 z M 221.96287,97.260311 c -0.3291,-0.419644 -0.31975,-0.429002 0.0999,-0.0999 0.44073,0.345644 0.58088,0.562916 0.36312,0.562916 -0.0549,0 -0.2633,-0.20836 -0.46302,-0.463021 z m 11.52648,-1.719792 -0.7771,-0.859896 0.85989,0.777106 c 0.47295,0.427408 0.8599,0.814361 0.8599,0.859896 0,0.204406 -0.21832,0.02444 -0.94269,-0.777106 z M 45.519535,95.50677 c 0,-0.05494 0.208359,-0.263301 0.463021,-0.463021 0.419643,-0.329107 0.429002,-0.319749 0.09989,0.09989 -0.345643,0.440729 -0.562915,0.580887 -0.562915,0.363126 z m 185.458675,-2.479793 -0.9118,-0.992187 0.99219,0.911798 c 0.92351,0.848682 1.11384,1.072577 0.9118,1.072577 -0.0442,0 -0.4907,-0.446484 -0.99219,-0.992188 z M 36.259118,91.53802 c 0,-0.05494 0.208359,-0.263302 0.463021,-0.463021 0.419644,-0.329107 0.429002,-0.319749 0.09989,0.09989 -0.345643,0.440729 -0.562915,0.580887 -0.562915,0.363126 z M 228.31287,90.645727 c -0.3291,-0.419644 -0.31975,-0.429002 0.0999,-0.09989 0.44073,0.345644 0.58088,0.562916 0.36312,0.562916 -0.0549,0 -0.2633,-0.208359 -0.46302,-0.463021 z M 39.169535,88.627603 c 0,-0.05494 0.208359,-0.263301 0.46302,-0.463021 0.419644,-0.329107 0.429003,-0.319749 0.09989,0.0999 -0.345643,0.440729 -0.562915,0.580887 -0.562915,0.363126 z M 195.33985,86.957614 c 0.25466,-0.06655 0.67138,-0.06655 0.92604,0 0.25466,0.06655 0.0463,0.121 -0.46302,0.121 -0.50932,0 -0.71768,-0.05445 -0.46302,-0.121 z m -8.49104,-5.109283 c 0,-0.363802 0.0601,-0.51263 0.13346,-0.330729 0.0734,0.181901 0.0734,0.479557 0,0.661458 -0.0734,0.181902 -0.13346,0.03307 -0.13346,-0.330729 z m -0.28547,-3.064757 c 0.0127,-0.308224 0.0754,-0.370919 0.15986,-0.159852 0.0764,0.190996 0.067,0.419199 -0.0209,0.507118 -0.0879,0.08792 -0.15046,-0.06835 -0.13897,-0.347266 z m 12.87755,-0.814638 c 0.1819,-0.0734 0.47956,-0.0734 0.66146,0 0.1819,0.0734 0.0331,0.133452 -0.33073,0.133452 -0.3638,0 -0.51263,-0.06005 -0.33073,-0.133452 z M 54.292561,77.350415 c 0,-0.363803 0.06005,-0.512631 0.133452,-0.33073 0.0734,0.181901 0.0734,0.479558 0,0.661459 -0.0734,0.181901 -0.133452,0.03307 -0.133452,-0.330729 z M 92.052453,66.30406 c -0.329107,-0.419644 -0.319749,-0.429002 0.0999,-0.0999 0.440729,0.345644 0.580887,0.562916 0.363126,0.562916 -0.05494,0 -0.263301,-0.208359 -0.463021,-0.463021 z M 61.526827,61.475414 c 0.568389,-0.582083 1.092966,-1.058333 1.165726,-1.058333 0.07276,0 -0.332754,0.47625 -0.901143,1.058333 -0.568389,0.582084 -1.092966,1.058334 -1.165727,1.058334 -0.07276,0 0.332755,-0.47625 0.901144,-1.058334 z m 28.641146,-6.789812 c 0.181901,-0.0734 0.479557,-0.0734 0.661459,0 0.181901,0.0734 0.03307,0.133452 -0.33073,0.133452 -0.363802,0 -0.51263,-0.06005 -0.330729,-0.133452 z m 13.030727,0.07533 c 0,-0.05494 0.20836,-0.263302 0.46302,-0.463021 0.41965,-0.329107 0.42901,-0.319749 0.0999,0.09989 -0.34565,0.440729 -0.56292,0.580887 -0.56292,0.363126 z m 71.28007,-1.553751 -0.50402,-0.595313 0.59531,0.504028 c 0.32742,0.277216 0.59531,0.545106 0.59531,0.595313 0,0.211733 -0.21293,0.05542 -0.6866,-0.504028 z M 79.578738,53.082372 c 0.469697,-0.05845 1.303135,-0.05941 1.852084,-0.0021 0.548948,0.05728 0.164651,0.105098 -0.853995,0.106272 -1.018646,0.0012 -1.467786,-0.04569 -0.998089,-0.104138 z M 107.9612,49.998436 c 0,-0.05494 0.20836,-0.263302 0.46302,-0.463021 0.41965,-0.329108 0.42901,-0.319749 0.0999,0.09989 -0.34565,0.440729 -0.56292,0.580887 -0.56292,0.363126 z m 62.81341,-0.495418 -0.50403,-0.595312 0.59531,0.504028 c 0.32742,0.277215 0.59531,0.545106 0.59531,0.595312 0,0.211734 -0.21293,0.05542 -0.68659,-0.504028 z m 11.50076,-1.455208 c -0.32911,-0.419644 -0.31975,-0.429003 0.0999,-0.09989 0.44073,0.345644 0.58088,0.562916 0.36312,0.562916 -0.0549,0 -0.2633,-0.20836 -0.46302,-0.463021 z M 97.245577,47.452497 c 0.26339,-0.291041 0.538421,-0.529166 0.611181,-0.529166 0.07276,0 -0.08321,0.238125 -0.346597,0.529166 -0.263389,0.291042 -0.538421,0.529167 -0.611181,0.529167 -0.07276,0 0.08321,-0.238125 0.346597,-0.529167 z m 79.738133,-4.696354 c -0.32911,-0.419644 -0.31975,-0.429002 0.0999,-0.0999 0.44073,0.345644 0.58089,0.562916 0.36313,0.562916 -0.0549,0 -0.26331,-0.20836 -0.46302,-0.463021 z m -74.57876,-0.430624 c 0,-0.05494 0.20836,-0.263302 0.46302,-0.463021 0.41965,-0.329107 0.42901,-0.319749 0.0999,0.09989 -0.34565,0.440729 -0.56292,0.580887 -0.56292,0.363126 z m 45.45873,-3.785013 c 0.19099,-0.07643 0.4192,-0.06703 0.50712,0.02089 0.0879,0.08792 -0.0684,0.150452 -0.34727,0.138964 -0.30822,-0.0127 -0.37092,-0.07539 -0.15985,-0.159853 z m -13.90213,-0.531779 c 0.25743,-0.06708 0.61462,-0.06267 0.79375,0.0098 0.17913,0.07248 -0.0315,0.127362 -0.46806,0.12197 -0.43656,-0.0054 -0.58312,-0.06469 -0.32569,-0.131773 z m 9.78958,0 c 0.25744,-0.06708 0.61462,-0.06267 0.79375,0.0098 0.17914,0.07248 -0.0315,0.127362 -0.46805,0.12197 -0.43656,-0.0054 -0.58313,-0.06469 -0.3257,-0.131773 z m -5.2967,-0.270739 c 0.40018,-0.06062 1.05503,-0.06062 1.45521,0 0.40018,0.06062 0.0728,0.110223 -0.7276,0.110223 -0.80037,0 -1.12779,-0.0496 -0.72761,-0.110223 z m 9.40925,-8.722482 c 0.19099,-0.07643 0.4192,-0.06703 0.50712,0.02089 0.0879,0.08792 -0.0684,0.150453 -0.34727,0.138965 -0.30822,-0.0127 -0.37092,-0.07539 -0.15985,-0.159853 z m -12.96459,-0.264583 c 0.191,-0.07643 0.4192,-0.06703 0.50712,0.02089 0.0879,0.08792 -0.0683,0.150453 -0.34726,0.138964 -0.30823,-0.0127 -0.37092,-0.07539 -0.15986,-0.159852 z m 10.84792,0 c 0.191,-0.07643 0.4192,-0.06703 0.50712,0.02089 0.0879,0.08792 -0.0684,0.150453 -0.34727,0.138964 -0.30822,-0.0127 -0.37092,-0.07539 -0.15985,-0.159852 z m -6.36654,-0.277572 c 0.61847,-0.0557 1.6305,-0.0557 2.24896,0 0.61847,0.0557 0.11245,0.10128 -1.12448,0.10128 -1.23692,0 -1.74294,-0.04558 -1.12448,-0.10128 z"
         id="path28" /><path
         style="fill:#9de7fb"
         d="m 183.7187,171.87284 c 9.14272,-0.0386 24.02553,-0.0386 33.07292,2e-5 9.04739,0.0386 1.56698,0.0702 -16.62312,0.0702 -18.19011,-1e-5 -25.59252,-0.0316 -16.4498,-0.0702 z m -25.09791,-24.80472 c 4e-5,-8.73125 0.0334,-12.26481 0.0742,-7.85236 0.0407,4.41244 0.0407,11.55619 -6e-5,15.875 -0.0408,4.3188 -0.0741,0.70861 -0.0741,-8.02264 z m -8.20461,1.98438 c 0,-6.47568 0.0344,-9.12482 0.0765,-5.88698 0.0421,3.23784 0.0421,8.53612 0,11.77396 -0.0421,3.23784 -0.0765,0.5887 -0.0765,-5.88698 z m -26.19509,-13.09688 c 8e-5,-5.67531 0.0351,-7.95938 0.0779,-5.0757 0.0427,2.88367 0.0427,7.52711 -1.3e-4,10.31875 -0.0428,2.79164 -0.0778,0.43227 -0.0777,-5.24305 z m 123.99017,4.47587 c 0.0127,-0.30822 0.0754,-0.37092 0.15985,-0.15985 0.0764,0.191 0.067,0.4192 -0.0209,0.50712 -0.0879,0.0879 -0.15045,-0.0684 -0.13896,-0.34727 z m -8.99583,-0.79375 c 0.0127,-0.30822 0.0754,-0.37092 0.15985,-0.15985 0.0764,0.191 0.067,0.4192 -0.0209,0.50712 -0.0879,0.0879 -0.15045,-0.0683 -0.13896,-0.34727 z m 9.2813,-1.69774 c 0,-0.3638 0.0601,-0.51263 0.13345,-0.33073 0.0734,0.1819 0.0734,0.47956 0,0.66146 -0.0734,0.1819 -0.13345,0.0331 -0.13345,-0.33073 z m -8.93972,-4.23333 c 0,-1.52797 0.0437,-2.15305 0.0972,-1.38907 0.0534,0.76399 0.0534,2.01414 0,2.77813 -0.0534,0.76398 -0.0972,0.1389 -0.0972,-1.38906 z m 8.93972,-4.23334 c 0,-0.3638 0.0601,-0.51263 0.13345,-0.33073 0.0734,0.1819 0.0734,0.47956 0,0.66146 -0.0734,0.1819 -0.13345,0.0331 -0.13345,-0.33073 z m -89.20636,-0.62906 c 0,-0.0549 0.20836,-0.2633 0.46302,-0.46302 0.41965,-0.32911 0.429,-0.31975 0.0999,0.0999 -0.34565,0.44073 -0.56292,0.58089 -0.56292,0.36313 z m -8.97494,-0.84819 c 0.0127,-0.30823 0.0754,-0.37092 0.15985,-0.15986 0.0764,0.191 0.067,0.4192 -0.0209,0.50712 -0.0879,0.0879 -0.15045,-0.0684 -0.13896,-0.34726 z m 88.9,0 c 0.0127,-0.30823 0.0754,-0.37092 0.15985,-0.15986 0.0764,0.191 0.067,0.4192 -0.0209,0.50712 -0.0879,0.0879 -0.15045,-0.0684 -0.13896,-0.34726 z m -76.2705,-0.29099 c 0.19099,-0.0764 0.4192,-0.067 0.50712,0.0209 0.0879,0.0879 -0.0684,0.15045 -0.34727,0.13896 -0.30822,-0.0127 -0.37092,-0.0754 -0.15985,-0.15985 z m 85.26633,-0.76735 c 0.0127,-0.30822 0.0754,-0.37092 0.15985,-0.15985 0.0764,0.191 0.067,0.4192 -0.0209,0.50712 -0.0879,0.0879 -0.15045,-0.0683 -0.13896,-0.34727 z m -96.32922,-2.06222 c 0,-0.0549 0.20836,-0.2633 0.46302,-0.46302 0.41964,-0.32911 0.429,-0.31975 0.0999,0.0999 -0.34564,0.44073 -0.56291,0.58089 -0.56291,0.36313 z M 35.750839,124.02733 c 0.0127,-0.30823 0.07539,-0.37092 0.159853,-0.15986 0.07643,0.191 0.06703,0.4192 -0.02089,0.50712 -0.08792,0.0879 -0.150453,-0.0683 -0.138965,-0.34726 z m 80.199441,-0.77171 c 0.005,-0.43656 0.0647,-0.58312 0.13178,-0.32569 0.0671,0.25743 0.0627,0.61462 -0.01,0.79375 -0.0725,0.17913 -0.12736,-0.0315 -0.12197,-0.46806 z m 37.65155,0.1323 c 0.26339,-0.29105 0.53842,-0.52917 0.61118,-0.52917 0.0728,0 -0.0832,0.23812 -0.3466,0.52917 -0.26339,0.29104 -0.53842,0.52916 -0.61118,0.52916 -0.0728,0 0.0832,-0.23812 0.3466,-0.52916 z M 26.490422,123.23358 c 0.0127,-0.30823 0.07539,-0.37092 0.159853,-0.15986 0.07643,0.191 0.06703,0.4192 -0.02089,0.50712 -0.08792,0.0879 -0.150453,-0.0683 -0.138965,-0.34726 z m -0.233891,-3.15296 c 0.0054,-0.43656 0.06469,-0.58312 0.131774,-0.32569 0.06708,0.25743 0.06267,0.61462 -0.0098,0.79375 -0.07248,0.17913 -0.127362,-0.0315 -0.12197,-0.46806 z m 88.426409,0.0662 -0.50403,-0.59531 0.59531,0.50403 c 0.55945,0.47366 0.71577,0.68659 0.50403,0.68659 -0.0502,0 -0.3181,-0.26789 -0.59531,-0.59531 z m 9.45962,0.0661 c 0,-0.36381 0.0601,-0.51263 0.13345,-0.33073 0.0734,0.1819 0.0734,0.47955 0,0.66145 -0.0734,0.18191 -0.13345,0.0331 -0.13345,-0.33072 z m -18.89334,0.0732 c 0.47295,-0.0587 1.24685,-0.0587 1.7198,0 0.47294,0.0587 0.086,0.10671 -0.8599,0.10671 -0.94589,0 -1.33284,-0.048 -0.8599,-0.10671 z m 50.12398,-0.99923 c 0.005,-0.43656 0.0647,-0.58312 0.13177,-0.32569 0.0671,0.25743 0.0627,0.61462 -0.01,0.79375 -0.0725,0.17913 -0.12736,-0.0315 -0.12197,-0.46806 z m -57.888178,-2.05052 -0.504028,-0.59531 0.595313,0.50403 c 0.559447,0.47366 0.715761,0.6866 0.504028,0.6866 -0.05021,0 -0.318098,-0.2679 -0.595313,-0.59532 z m -71.218687,-0.99218 c 0,-0.50933 0.05445,-0.71769 0.121,-0.46303 0.06655,0.25467 0.06655,0.67138 0,0.92605 -0.06655,0.25466 -0.121,0.0463 -0.121,-0.46302 z m 69.89577,-0.33073 -0.504028,-0.59532 0.595313,0.50403 c 0.327422,0.27722 0.595312,0.54511 0.595312,0.59531 0,0.21174 -0.212935,0.0554 -0.686597,-0.50402 z m -60.675849,-1.14653 c 0.0127,-0.30823 0.07539,-0.37092 0.159852,-0.15985 0.07643,0.19099 0.06703,0.4192 -0.02089,0.50711 -0.08792,0.0879 -0.150453,-0.0683 -0.138964,-0.34726 z m -8.995834,-1.5875 c 0.0127,-0.30823 0.07539,-0.37092 0.159853,-0.15985 0.07643,0.19099 0.06703,0.4192 -0.02089,0.50711 -0.08792,0.0879 -0.150453,-0.0683 -0.138965,-0.34726 z m 79.425298,-0.82277 c 0.25743,-0.0671 0.61462,-0.0627 0.79375,0.01 0.17913,0.0725 -0.0315,0.12736 -0.46806,0.12197 -0.43656,-0.005 -0.58312,-0.0647 -0.32569,-0.13178 z m 58.13715,-0.16402 c 0,-0.0455 0.38695,-0.43248 0.8599,-0.85989 l 0.85989,-0.77711 -0.7771,0.8599 c -0.72437,0.80154 -0.94269,0.98151 -0.94269,0.7771 z m -44.9071,-1.24012 c 0,-0.65485 0.0516,-0.92274 0.11466,-0.59531 0.0631,0.32742 0.0631,0.8632 0,1.19062 -0.0631,0.32742 -0.11466,0.0595 -0.11466,-0.59531 z m -16.77457,-0.19844 c -0.3291,-0.41964 -0.31975,-0.429 0.0999,-0.0999 0.25466,0.19972 0.46302,0.40807 0.46302,0.46302 0,0.21776 -0.21727,0.0776 -0.56292,-0.36313 z m -9.470359,-1.5434 c 0.01269,-0.30823 0.07539,-0.37092 0.159852,-0.15985 0.07643,0.19099 0.06703,0.4192 -0.02089,0.50711 -0.08792,0.0879 -0.150453,-0.0683 -0.138964,-0.34726 z m 18.551529,-2.09462 c 0.005,-0.43656 0.0647,-0.58312 0.13177,-0.32569 0.0671,0.25743 0.0627,0.61462 -0.01,0.79375 -0.0725,0.17913 -0.12737,-0.0315 -0.12197,-0.46806 z m -10.59314,-0.13229 c 0,-0.3638 0.0601,-0.51263 0.13345,-0.33073 0.0734,0.1819 0.0734,0.47956 0,0.66146 -0.0734,0.1819 -0.13345,0.0331 -0.13345,-0.33073 z m 77.71198,-0.19844 c -0.32911,-0.41964 -0.31975,-0.429 0.0999,-0.0999 0.44073,0.34564 0.58089,0.56291 0.36313,0.56291 -0.055,0 -0.26331,-0.20836 -0.46302,-0.46302 z m -85.670369,-1.80799 c 0.01269,-0.30822 0.07539,-0.37091 0.159852,-0.15985 0.07643,0.191 0.06703,0.4192 -0.02089,0.50712 -0.08792,0.0879 -0.150453,-0.0683 -0.138964,-0.34727 z m 135.817519,-0.97013 -0.50403,-0.59532 0.59531,0.50403 c 0.55945,0.47366 0.71576,0.6866 0.50403,0.6866 -0.0502,0 -0.3181,-0.26789 -0.59531,-0.59531 z m -2.10817,-2.38125 -0.77711,-0.8599 0.8599,0.77711 c 0.47294,0.4274 0.85989,0.81436 0.85989,0.85989 0,0.20441 -0.21831,0.0244 -0.94268,-0.7771 z m -60.49026,0.41457 c 0.19099,-0.0764 0.4192,-0.067 0.50712,0.0209 0.0879,0.0879 -0.0684,0.15045 -0.34727,0.13896 -0.30822,-0.0127 -0.37092,-0.0754 -0.15985,-0.15985 z m -60.85417,-0.26459 c 0.191,-0.0764 0.4192,-0.067 0.50712,0.0209 0.0879,0.0879 -0.0683,0.15046 -0.34727,0.13897 -0.30822,-0.0127 -0.37092,-0.0754 -0.15985,-0.15986 z m 1.85208,0 c 0.191,-0.0764 0.4192,-0.067 0.50712,0.0209 0.0879,0.0879 -0.0683,0.15046 -0.34726,0.13897 -0.30823,-0.0127 -0.37092,-0.0754 -0.15986,-0.15986 z m 116.45204,-3.192692 -0.9118,-0.992188 0.99219,0.911798 c 0.9235,0.848682 1.11384,1.072577 0.9118,1.072577 -0.0442,0 -0.4907,-0.446484 -0.99219,-0.992187 z M 42.079951,98.946354 c 0,-0.05494 0.20836,-0.263302 0.463021,-0.463021 0.419644,-0.329108 0.429002,-0.319749 0.0999,0.0999 -0.345644,0.440729 -0.562916,0.580887 -0.562916,0.363126 z m 74.455069,-0.495418 -0.50403,-0.595313 0.59532,0.504028 c 0.55944,0.473662 0.71576,0.686597 0.50403,0.686597 -0.0502,0 -0.3181,-0.26789 -0.59532,-0.595312 z M 96.584119,97.59104 c 0.341774,-0.363802 0.680939,-0.661458 0.7537,-0.661458 0.07276,0 -0.147342,0.297656 -0.489117,0.661458 -0.341774,0.363802 -0.680939,0.661458 -0.753699,0.661458 -0.07276,0 0.147342,-0.297656 0.489116,-0.661458 z m 138.484241,-0.198438 -0.50403,-0.595312 0.59531,0.504028 c 0.32742,0.277215 0.59532,0.545106 0.59532,0.595312 0,0.211734 -0.21294,0.05542 -0.6866,-0.504028 z m -119.85625,-0.264583 -0.50403,-0.595312 0.59531,0.504028 c 0.32742,0.277215 0.59531,0.545106 0.59531,0.595312 0,0.211734 -0.21293,0.05542 -0.68659,-0.504028 z M 46.313285,94.71302 c 0,-0.05494 0.208359,-0.263301 0.463021,-0.463021 0.419643,-0.329107 0.429002,-0.319749 0.09989,0.0999 -0.345643,0.440729 -0.562915,0.580887 -0.562915,0.363126 z m 58.406775,-1.133667 c 0.1819,-0.0734 0.47955,-0.0734 0.66146,0 0.1819,0.0734 0.0331,0.133452 -0.33073,0.133452 -0.36381,0 -0.51263,-0.06005 -0.33073,-0.133452 z m 2.11666,0 c 0.1819,-0.0734 0.47956,-0.0734 0.66146,0 0.1819,0.0734 0.0331,0.133452 -0.33073,0.133452 -0.3638,0 -0.51263,-0.06005 -0.33073,-0.133452 z m -71.371352,-0.983 c 0,-0.05494 0.208359,-0.263301 0.463021,-0.46302 0.419644,-0.329108 0.429002,-0.31975 0.09989,0.09989 -0.345643,0.44073 -0.562915,0.580888 -0.562915,0.363126 z m 2.116667,-2.364145 c 0,-0.04554 0.386953,-0.432488 0.859895,-0.859896 l 0.859896,-0.777106 -0.777105,0.859896 c -0.724371,0.801544 -0.942686,0.981512 -0.942686,0.777106 z M 196.93239,86.956644 c 0.25743,-0.06708 0.61461,-0.06267 0.79375,0.0098 0.17913,0.07248 -0.0315,0.127362 -0.46806,0.12197 -0.43656,-0.0054 -0.58312,-0.06469 -0.32569,-0.131774 z M 64.32584,86.456491 c 0.0127,-0.308224 0.07539,-0.370919 0.159852,-0.159852 0.07643,0.190996 0.06703,0.419199 -0.02089,0.507118 -0.08792,0.08792 -0.150453,-0.06835 -0.138964,-0.347266 z m -0.990267,-6.460243 c 0,-1.091406 0.0467,-1.537891 0.103786,-0.992188 0.05708,0.545704 0.05708,1.438672 0,1.984375 -0.05708,0.545704 -0.103786,0.09922 -0.103786,-0.992187 z m 123.523047,0.661458 c 0.005,-0.436562 0.0647,-0.583124 0.13177,-0.325693 0.0671,0.257431 0.0627,0.614618 -0.01,0.79375 -0.0725,0.179131 -0.12736,-0.03149 -0.12197,-0.468057 z m 11.80506,-2.694282 c 0.19099,-0.07643 0.4192,-0.06703 0.50712,0.02089 0.0879,0.08792 -0.0684,0.150453 -0.34727,0.138964 -0.30822,-0.0127 -0.37092,-0.07539 -0.15985,-0.159852 z m -12.36492,-1.5611 c 0.0127,-0.308224 0.0754,-0.370919 0.15985,-0.159852 0.0764,0.190996 0.067,0.419199 -0.0209,0.507118 -0.0879,0.08792 -0.15045,-0.06835 -0.13896,-0.347266 z M 67.215368,68.783853 c 0,-0.05494 0.20836,-0.263302 0.463021,-0.463021 0.419644,-0.329107 0.429003,-0.319749 0.0999,0.0999 -0.345644,0.440729 -0.562916,0.580887 -0.562916,0.363126 z m -7.408333,-5.291667 c 0,-0.05494 0.208359,-0.263301 0.463021,-0.463021 0.419644,-0.329107 0.429002,-0.319749 0.0999,0.0999 -0.345644,0.440729 -0.562916,0.580887 -0.562916,0.363126 z m 20.578348,-1.152509 c 0.62231,-0.05589 1.57481,-0.05511 2.116667,0.0017 0.541857,0.05685 0.03269,0.102583 -1.131473,0.101622 -1.164167,-9.61e-4 -1.607504,-0.04748 -0.985194,-0.103369 z M 63.246618,60.052603 c 0,-0.05494 0.20836,-0.263302 0.463021,-0.463021 0.419644,-0.329108 0.429003,-0.319749 0.09989,0.09989 -0.345644,0.440729 -0.562916,0.580887 -0.562916,0.363126 z m 39.158332,-4.497917 c 0,-0.05494 0.20836,-0.263302 0.46302,-0.463021 0.41965,-0.329107 0.42901,-0.319749 0.0999,0.0999 -0.34565,0.440729 -0.56292,0.580887 -0.56292,0.363126 z m 72.99126,-1.421459 c -0.32911,-0.419644 -0.31975,-0.429003 0.0999,-0.09989 0.44073,0.345643 0.58089,0.562915 0.36313,0.562915 -0.0549,0 -0.26331,-0.208359 -0.46302,-0.46302 z M 83.569926,53.357173 c 0.190996,-0.07643 0.419199,-0.06703 0.507118,0.02089 0.08792,0.08792 -0.06835,0.150452 -0.347265,0.138964 -0.308225,-0.0127 -0.37092,-0.07539 -0.159853,-0.159853 z m 22.142314,-1.406759 c 0.86402,-0.873125 1.63047,-1.5875 1.70323,-1.5875 0.0728,0 -0.57463,0.714375 -1.43864,1.5875 -0.86402,0.873125 -1.63047,1.5875 -1.70323,1.5875 -0.0728,0 0.57463,-0.714375 1.43864,-1.5875 z m 67.05764,-0.727604 -0.9118,-0.992188 0.99219,0.911799 c 0.9235,0.848682 1.11384,1.072576 0.91179,1.072576 -0.0442,0 -0.49069,-0.446484 -0.99218,-0.992187 z m -64.01493,-2.018124 c 0,-0.05494 0.20836,-0.263302 0.46302,-0.463021 0.41965,-0.329108 0.42901,-0.319749 0.0999,0.0999 -0.34565,0.440729 -0.56292,0.580887 -0.56292,0.363126 z m 61.08501,-0.62771 c -0.32911,-0.419643 -0.31975,-0.429002 0.0999,-0.09989 0.44073,0.345643 0.58089,0.562915 0.36313,0.562915 -0.0549,0 -0.26331,-0.208359 -0.46302,-0.463021 z m 11.64166,-1.322916 c -0.32911,-0.419644 -0.31975,-0.429003 0.0999,-0.0999 0.44073,0.345644 0.58088,0.562916 0.36312,0.562916 -0.0549,0 -0.2633,-0.20836 -0.46302,-0.463021 z M 98.700786,45.997289 c 0.493655,-0.509323 0.957086,-0.926042 1.029846,-0.926042 0.07276,0 -0.271608,0.416719 -0.765263,0.926042 -0.493655,0.509323 -0.957086,0.926042 -1.029846,0.926042 -0.07276,0 0.271608,-0.416719 0.765263,-0.926042 z m 79.904164,-1.5875 c -0.64268,-0.654844 -1.10897,-1.190625 -1.03621,-1.190625 0.0728,0 0.65812,0.535781 1.3008,1.190625 0.64268,0.654844 1.10898,1.190625 1.03622,1.190625 -0.0728,0 -0.65813,-0.535781 -1.30081,-1.190625 z m -77.25833,-1.058334 c 0.49365,-0.509322 0.95709,-0.926041 1.02985,-0.926041 0.0728,0 -0.27161,0.416719 -0.76527,0.926041 -0.49365,0.509323 -0.95708,0.926042 -1.02984,0.926042 -0.0728,0 0.2716,-0.416719 0.76526,-0.926042 z m 74.57875,-1.389062 c -0.32911,-0.419644 -0.31975,-0.429002 0.0999,-0.09989 0.44073,0.345644 0.58088,0.562916 0.36312,0.562916 -0.0549,0 -0.2633,-0.20836 -0.46302,-0.463021 z m -72.46208,-0.430624 c 0,-0.05494 0.20836,-0.263302 0.46302,-0.463021 0.41964,-0.329107 0.429,-0.319749 0.0999,0.0999 -0.34564,0.440729 -0.56291,0.580887 -0.56291,0.363126 z m 41.48997,-3.520429 c 0.191,-0.07643 0.4192,-0.06703 0.50712,0.02089 0.0879,0.08792 -0.0683,0.150453 -0.34727,0.138964 -0.30822,-0.0127 -0.37092,-0.07539 -0.15985,-0.159852 z m -8.35091,-0.266227 c 0.25466,-0.06655 0.67138,-0.06655 0.92604,0 0.25466,0.06655 0.0463,0.121 -0.46302,0.121 -0.50932,0 -0.71768,-0.05445 -0.46302,-0.121 z m 4.23333,0 c 0.25466,-0.06655 0.67138,-0.06655 0.92604,0 0.25467,0.06655 0.0463,0.121 -0.46302,0.121 -0.50932,0 -0.71768,-0.05445 -0.46302,-0.121 z m -7.78867,-8.729607 c 0.191,-0.07643 0.4192,-0.06703 0.50712,0.02089 0.0879,0.08792 -0.0683,0.150453 -0.34727,0.138965 -0.30822,-0.0127 -0.37092,-0.07539 -0.15985,-0.159853 z m 2.64583,-0.264583 c 0.191,-0.07643 0.4192,-0.06703 0.50712,0.02089 0.0879,0.08792 -0.0684,0.150453 -0.34726,0.138964 -0.30823,-0.0127 -0.37092,-0.07539 -0.15986,-0.159852 z m 9.26042,0 c 0.191,-0.07643 0.4192,-0.06703 0.50712,0.02089 0.0879,0.08792 -0.0683,0.150453 -0.34727,0.138964 -0.30822,-0.0127 -0.37092,-0.07539 -0.15985,-0.159852 z"
         id="path27" /><path
         style="fill:#ddfba4"
         d="m 134.36993,153.63426 c 0.19099,-0.0764 0.4192,-0.067 0.50712,0.0209 0.0879,0.0879 -0.0684,0.15045 -0.34727,0.13896 -0.30822,-0.0127 -0.37092,-0.0754 -0.15985,-0.15985 z m 5.27513,0.006 c 0.1819,-0.0734 0.47955,-0.0734 0.66146,0 0.1819,0.0734 0.0331,0.13345 -0.33073,0.13345 -0.36381,0 -0.51263,-0.0601 -0.33073,-0.13345 z m -6.70587,-0.68467 -0.50403,-0.59531 0.66146,0.52635 c 0.3638,0.28949 0.71107,0.55738 0.7717,0.59531 0.0606,0.0379 -0.0102,0.069 -0.15743,0.069 -0.14722,0 -0.49449,-0.26789 -0.7717,-0.59532 z m -0.88002,-1.67569 c 0.0127,-0.30823 0.0754,-0.37092 0.15986,-0.15985 0.0764,0.19099 0.067,0.4192 -0.0209,0.50711 -0.0879,0.0879 -0.15045,-0.0683 -0.13897,-0.34726 z m 10.42448,-23.79045 c -2e-5,-12.80584 0.0323,-18.08331 0.0717,-11.72773 0.0395,6.35559 0.0395,16.83309 3e-5,23.28334 -0.0395,6.45025 -0.0718,1.25022 -0.0718,-11.55561 z m -10.37864,21.43125 c 0.003,-0.58209 0.0571,-0.78906 0.12041,-0.45994 0.0633,0.32912 0.0609,0.80537 -0.005,1.05834 -0.0662,0.25296 -0.11801,-0.0163 -0.11507,-0.5984 z m 0.32453,-26.72292 c 2e-5,-12.95135 0.0323,-18.2109 0.0717,-11.68788 0.0394,6.52302 0.0394,17.11958 -3e-5,23.54792 -0.0394,6.42833 -0.0717,1.09131 -0.0717,-11.86004 z m 9.98888,-22.357292 c 0,-0.509323 0.0545,-0.717682 0.121,-0.46302 0.0666,0.254661 0.0666,0.671382 0,0.926042 -0.0666,0.25466 -0.121,0.0463 -0.121,-0.463022 z m -11.45849,-3.373437 -0.64144,-0.727604 0.72761,0.641433 c 0.68005,0.599516 0.84894,0.813775 0.64143,0.813775 -0.0474,0 -0.37481,-0.327422 -0.7276,-0.727604 z m 16.55648,-2.711979 c 0.71667,-0.727605 1.36256,-1.322917 1.43532,-1.322917 0.0728,0 -0.45407,0.595312 -1.17073,1.322917 -0.71667,0.727604 -1.36256,1.322916 -1.43532,1.322916 -0.0728,0 0.45407,-0.595312 1.17073,-1.322916 z m -20.78403,-0.198438 -0.9118,-0.992187 0.99219,0.911798 c 0.5457,0.501489 0.99218,0.947973 0.99218,0.992187 0,0.202042 -0.22389,0.01171 -1.07257,-0.911798 z m -3.40446,-6.305903 c 0.0127,-0.308224 0.0754,-0.370919 0.15986,-0.159852 0.0764,0.190996 0.067,0.419199 -0.0209,0.507118 -0.0879,0.08792 -0.15045,-0.06835 -0.13897,-0.347266 z m 11.75495,-0.107212 c -0.0927,-0.149982 0.0135,-0.194339 0.24897,-0.103984 0.45837,0.175892 0.54223,0.365536 0.16164,0.365536 -0.13693,0 -0.32171,-0.117698 -0.41061,-0.261552 z m -1.08535,-0.862927 -0.50403,-0.595312 0.59532,0.504028 c 0.32742,0.277215 0.59531,0.545106 0.59531,0.595312 0,0.211734 -0.21294,0.05542 -0.6866,-0.504028 z m -10.93418,-0.08819 c 0.0127,-0.308225 0.0754,-0.370919 0.15985,-0.159853 0.0764,0.190996 0.067,0.4192 -0.0209,0.507118 -0.0879,0.08792 -0.15046,-0.06835 -0.13897,-0.347265 z m 28.59589,-0.374827 c 0,-0.363802 0.06,-0.51263 0.13345,-0.330729 0.0734,0.181901 0.0734,0.479558 0,0.661459 -0.0734,0.181901 -0.13345,0.03307 -0.13345,-0.33073 z m -10.47581,-0.34214 c 0.0994,-0.260937 0.24731,-0.407781 0.32877,-0.326319 0.0815,0.08146 1.7e-4,0.294956 -0.18066,0.474432 -0.2613,0.259362 -0.29169,0.228971 -0.14811,-0.148113 z m -18.32626,-2.03911 c 0,-0.800364 0.0496,-1.127786 0.11022,-0.727604 0.0606,0.400182 0.0606,1.055026 0,1.455209 -0.0606,0.400182 -0.11022,0.07276 -0.11022,-0.727605 z m 19.01249,0 c 0,-0.363802 0.06,-0.51263 0.13345,-0.330729 0.0734,0.181901 0.0734,0.479557 0,0.661459 -0.0734,0.181901 -0.13345,0.03307 -0.13345,-0.33073 z m 10.05416,0 c 0,-0.363802 0.0601,-0.51263 0.13346,-0.330729 0.0734,0.181901 0.0734,0.479557 0,0.661459 -0.0734,0.181901 -0.13346,0.03307 -0.13346,-0.33073 z m -18.3547,-2.248958 c 0.14997,-0.291042 0.61103,-0.82639 1.02457,-1.189664 l 0.7519,-0.660497 -0.7917,0.925081 c -1.25449,1.46584 -1.2718,1.482102 -0.98477,0.92508 z m 18.09992,-0.264583 c 0.005,-0.436563 0.0647,-0.583125 0.13178,-0.325694 0.0671,0.257431 0.0627,0.614618 -0.01,0.79375 -0.0725,0.179131 -0.12736,-0.03149 -0.12197,-0.468056 z m -28.60569,-0.286632 c 0.0127,-0.308225 0.0754,-0.37092 0.15985,-0.159853 0.0764,0.190996 0.067,0.419199 -0.0209,0.507118 -0.0879,0.08792 -0.15046,-0.06835 -0.13897,-0.347265 z m 17.157,-0.573264 -0.64143,-0.727604 0.72761,0.641433 c 0.68005,0.599516 0.84893,0.813775 0.64143,0.813775 -0.0474,0 -0.37482,-0.327422 -0.72761,-0.727604 z m -16.89242,-0.48507 c 0.0127,-0.308224 0.0754,-0.370919 0.15986,-0.159852 0.0764,0.190996 0.067,0.419199 -0.0209,0.507118 -0.0879,0.08792 -0.15045,-0.06835 -0.13897,-0.347266 z m 27.13159,-2.36943 c -0.25531,-0.665346 -0.17999,-0.837024 0.13191,-0.300656 0.15443,0.265576 0.22505,0.538602 0.15693,0.606724 -0.0681,0.06812 -0.1981,-0.06961 -0.28884,-0.306068 z m -26.20942,-0.19962 c 0.0994,-0.260937 0.2473,-0.407781 0.32876,-0.326319 0.0815,0.08146 1.7e-4,0.294956 -0.18065,0.474432 -0.26131,0.259362 -0.2917,0.228971 -0.14811,-0.148113 z m 2.62882,-3.62661 c 0.71666,-0.727604 1.36256,-1.322916 1.43532,-1.322916 0.0728,0 -0.45407,0.595312 -1.17074,1.322916 -0.71666,0.727605 -1.36255,1.322917 -1.43531,1.322917 -0.0728,0 0.45407,-0.595312 1.17073,-1.322917 z m 20.76979,-0.132291 c -0.64268,-0.654844 -1.10898,-1.190625 -1.03621,-1.190625 0.0728,0 0.65812,0.535781 1.3008,1.190625 0.64268,0.654844 1.10898,1.190625 1.03622,1.190625 -0.0728,0 -0.65813,-0.535781 -1.30081,-1.190625 z m -17.4625,-2.362632 c 0,-0.07276 0.23813,-0.259732 0.52917,-0.415493 0.29104,-0.155761 0.52917,-0.22367 0.52917,-0.15091 0,0.07276 -0.23813,0.259732 -0.52917,0.415493 -0.29104,0.155761 -0.52917,0.22367 -0.52917,0.15091 z m 12.43542,-0.94466 c -0.21828,-0.141064 -0.27781,-0.25648 -0.13229,-0.25648 0.14552,0 0.44318,0.115416 0.66146,0.25648 0.21828,0.141064 0.27781,0.25648 0.13229,0.25648 -0.14552,0 -0.44318,-0.115416 -0.66146,-0.25648 z m -7.33715,-0.977104 c 0.25743,-0.06708 0.61462,-0.06267 0.79375,0.0098 0.17913,0.07248 -0.0315,0.127362 -0.46806,0.12197 -0.43656,-0.0054 -0.58312,-0.06469 -0.32569,-0.131774 z m 3.83142,0.0081 c 0.1819,-0.0734 0.47956,-0.0734 0.66146,0 0.1819,0.0734 0.0331,0.133452 -0.33073,0.133452 -0.3638,0 -0.51263,-0.06005 -0.33073,-0.133452 z"
         id="path26" /><path
         style="fill:#c6fa64"
         d="m 136.08117,153.62019 c 0.69561,-0.0547 1.76717,-0.054 2.38125,0.001 0.61407,0.0555 0.0449,0.10023 -1.26476,0.0994 -1.30969,-8e-4 -1.81211,-0.0462 -1.11649,-0.10089 z M 133.239,152.9551 c -0.37448,-0.32742 -0.79416,-0.99843 -0.93263,-1.49114 -0.3118,-1.10947 0.009,-0.84799 0.38415,0.31335 0.18081,0.55937 0.58833,1.00419 1.19985,1.30967 0.50932,0.25444 0.72432,0.4628 0.47777,0.46303 -0.24654,2.2e-4 -0.75466,-0.26748 -1.12914,-0.59491 z m 7.18795,0.30238 c 0.46642,-0.13487 1.03197,-0.50781 1.25677,-0.82876 0.2248,-0.32095 0.40873,-0.44263 0.40873,-0.2704 0,0.54821 -1.13344,1.39296 -1.83582,1.36823 -0.62186,-0.0219 -0.60782,-0.0441 0.17032,-0.26907 z m 1.72794,-27.55446 c -0.0478,-20.00204 -0.13632,-26.127605 -0.37759,-26.127605 -0.19018,0 -0.15031,-0.131145 0.10056,-0.330729 0.22864,-0.181901 0.4969,-0.67852 0.59614,-1.103598 0.0992,-0.425078 0.41577,-1.072065 0.70342,-1.437749 0.55451,-0.704941 2.06595,-1.823009 2.45302,-1.814587 0.45658,0.0099 2.03824,-1.448404 3.03578,-2.79907 1.37625,-1.863444 1.89847,-2.917876 2.45139,-4.949684 0.2574,-0.945885 0.47388,-1.481667 0.48106,-1.190625 0.0213,0.861769 -0.69803,2.956573 -1.58949,4.629137 -0.86774,1.628038 -3.87338,4.763572 -4.56623,4.763572 -0.56793,0 -1.96548,1.237803 -2.5001,2.214328 -0.4172,0.762042 -0.46441,2.96838 -0.58952,27.5513 l -0.13599,26.72291 z m -9.63352,-1.25677 c 0.0597,-17.3072 -10e-4,-25.297494 -0.19833,-25.95949 -0.42123,-1.415846 -1.18261,-2.234364 -2.9592,-3.181276 -0.8756,-0.466692 -2.11786,-1.433404 -2.76056,-2.148248 -1.22048,-1.357464 -2.64463,-3.995781 -2.89102,-5.35578 -0.0791,-0.436562 -0.0691,-0.615156 0.0222,-0.396875 0.0913,0.218282 0.33897,0.813594 0.55035,1.322917 0.97357,2.345819 2.83742,5.159375 3.41783,5.159375 0.14981,0 0.48466,0.212277 0.74411,0.471726 0.25945,0.259449 0.90579,0.694347 1.43631,0.966439 1.22734,0.629474 2.0204,1.481868 2.54347,2.733753 0.36588,0.875658 0.40746,3.710519 0.36091,24.602639 -0.0289,12.98712 -0.12004,24.32732 -0.20245,25.20044 -0.0824,0.87313 -0.11106,-9.6639 -0.0636,-23.41562 z m 3.88254,-36.518003 c -0.43656,-0.09196 -1.0488,-0.304247 -1.36052,-0.471757 -0.66879,-0.359384 -1.94677,-1.82198 -1.94677,-2.228003 0,-0.155876 0.26789,0.109052 0.59531,0.588728 1.63661,2.397645 5.48409,2.490447 7.36016,0.177528 0.25632,-0.315995 0.60351,-1.032613 0.77153,-1.592483 0.16803,-0.559871 0.36866,-0.954801 0.44583,-0.877623 0.22696,0.226957 -0.48938,2.134059 -0.92054,2.450744 -0.24671,0.181205 -0.31465,0.430194 -0.1805,0.661458 0.11832,0.203977 0.11825,0.283149 -1.7e-4,0.175937 -0.11841,-0.107212 -0.62818,0.06024 -1.1328,0.372117 -1.09555,0.677083 -2.54124,0.97301 -3.63153,0.743354 z m -13.19609,-1.879655 c -0.20835,-1.04176 -0.16904,-4.661408 0.0594,-5.472646 0.0946,-0.336011 0.17207,0.943911 0.17207,2.84427 0,1.90036 -0.0149,3.455199 -0.0331,3.455199 -0.0182,0 -0.10749,-0.372071 -0.19844,-0.826823 z m 28.45858,-2.233438 c -0.0269,-0.882779 -0.1762,-2.293419 -0.33173,-3.134754 -0.15553,-0.841336 -0.22713,-1.585353 -0.15911,-1.653371 0.24587,-0.245871 0.73521,3.550217 0.63867,4.954553 l -0.0989,1.438624 z m -18.90833,0.591225 c -0.29481,-0.749584 -0.24675,-1.132515 0.0988,-0.786985 0.15917,0.159168 0.24495,0.510402 0.19062,0.780521 -0.0953,0.47369 -0.10554,0.47392 -0.2894,0.0065 z m 0.11574,-1.764298 c 0,-0.363802 0.0601,-0.51263 0.13346,-0.330729 0.0734,0.181901 0.0734,0.479557 0,0.661458 -0.0734,0.181902 -0.13346,0.03307 -0.13346,-0.330729 z m 8.97495,-0.158739 c -0.0301,-0.801994 -1.45833,-2.660491 -2.43101,-3.163482 -0.45818,-0.236934 -1.38326,-0.439361 -2.05574,-0.449838 -1.12774,-0.01757 -1.16467,-0.03843 -0.47565,-0.268686 1.50414,-0.502643 4.15508,1.083794 4.92763,2.948914 0.18234,0.440197 0.26945,0.955236 0.19359,1.144532 -0.0764,0.190751 -0.14724,0.0965 -0.15882,-0.21144 z m -8.75214,-0.883979 c 0,-0.136933 0.1177,-0.32171 0.26155,-0.410617 0.14998,-0.09269 0.19434,0.01351 0.10399,0.248968 -0.1759,0.458369 -0.36554,0.542234 -0.36554,0.161649 z m 0.88561,-1.293857 c 0.24115,-0.266471 0.37867,-0.544283 0.30559,-0.617361 -0.0731,-0.07308 0.0478,-0.132869 0.2687,-0.132869 0.30806,0 0.26652,0.143756 -0.17841,0.617361 -0.68031,0.724154 -1.04034,0.844993 -0.39588,0.132869 z m -10.38972,-0.992765 c 0.0127,-0.308225 0.0754,-0.370919 0.15985,-0.159852 0.0764,0.190996 0.067,0.419199 -0.0209,0.507118 -0.0879,0.08792 -0.15045,-0.06835 -0.13896,-0.347266 z m 11.8148,-0.143075 c 0.17948,-0.180821 0.39297,-0.262115 0.47444,-0.180653 0.0815,0.08146 -0.0654,0.229406 -0.32632,0.328766 -0.37709,0.143585 -0.40748,0.113194 -0.14812,-0.148113 z m -11.56739,-0.602255 c -0.002,-0.131017 0.31742,-0.904923 0.70993,-1.719792 1.43977,-2.989061 5.96315,-6.661408 8.94364,-7.260967 0.76277,-0.153439 0.76793,-0.148372 0.1323,0.129795 -4.84388,2.119781 -6.99468,3.871795 -8.72196,7.104801 -0.5831,1.091406 -1.06186,1.87718 -1.06391,1.746163 z m 26.56947,-1.015862 c -0.27342,-0.619947 -0.56623,-1.186707 -0.65068,-1.259468 -0.0845,-0.07276 -0.42534,-0.579518 -0.75751,-1.126128 -0.33534,-0.551825 -0.72975,-0.916084 -0.88681,-0.819015 -0.15557,0.09615 -0.20987,0.05671 -0.12065,-0.08765 0.3081,-0.498522 -3.39473,-3.481827 -3.87632,-3.123078 -0.0951,0.07083 -0.11113,0.04719 -0.0357,-0.05253 0.0755,-0.09973 -0.49008,-0.448995 -1.25677,-0.776154 -1.22316,-0.521936 -2.8563,-0.886344 -5.62733,-1.255641 -0.43656,-0.05818 0.135,-0.05699 1.27014,0.0026 3.67532,0.193074 6.90208,1.764378 9.64529,4.696873 1.34079,1.433317 3.19634,4.524404 2.89615,4.824594 -0.0565,0.05651 -0.32644,-0.404491 -0.59985,-1.024439 z M 134.41954,69.36709 c 0,-0.120317 0.35718,-0.218759 0.79375,-0.218759 0.43656,0 0.79375,0.04602 0.79375,0.102262 0,0.05624 -0.35719,0.154685 -0.79375,0.218759 -0.43657,0.06407 -0.79375,0.01806 -0.79375,-0.102262 z"
         id="path25" /><path
         style="fill:#54d6f8"
         d="m 154.20023,171.61954 c 0.32911,-0.0633 0.80536,-0.0609 1.05833,0.005 0.25296,0.0662 -0.0163,0.118 -0.5984,0.11506 -0.58208,-0.003 -0.78905,-0.0571 -0.45993,-0.1204 z m 80.49639,-0.44193 c 0,-0.0549 0.20836,-0.26331 0.46302,-0.46303 0.41965,-0.3291 0.62947,-0.31974 0.30036,0.0999 -0.34565,0.44073 -0.76338,0.58089 -0.76338,0.36313 z m -84.05281,-4.13344 c 0,-0.94589 0.048,-1.33284 0.10671,-0.8599 0.0587,0.47294 0.0587,1.24685 0,1.71979 -0.0587,0.47295 -0.10671,0.086 -0.10671,-0.85989 z m 26.17521,-2.84424 c 9.42247,-0.0385 24.84106,-0.0385 34.26354,0 9.42247,0.0385 1.71318,0.07 -17.13177,0.07 -18.84495,0 -26.55425,-0.0315 -17.13177,-0.07 z M 229.53725,163.34 c 0.26339,-0.29104 0.53842,-0.52917 0.61118,-0.52917 0.0728,0 -0.0832,0.23813 -0.3466,0.52917 -0.26339,0.29104 -0.53842,0.52917 -0.61118,0.52917 -0.0728,0 0.0832,-0.23813 0.3466,-0.52917 z m 12.71701,-3.25256 c 0.0994,-0.26093 0.2473,-0.40778 0.32876,-0.32632 0.0815,0.0815 1.7e-4,0.29496 -0.18065,0.47444 -0.26131,0.25936 -0.2917,0.22897 -0.14811,-0.14812 z m -6.75578,-6.40473 c 0,-0.14552 0.11541,-0.44318 0.25648,-0.66146 0.14106,-0.21828 0.25648,-0.27781 0.25648,-0.13229 0,0.14552 -0.11542,0.44317 -0.25648,0.66146 -0.14107,0.21828 -0.25648,0.27781 -0.25648,0.13229 z M 60.422977,149.64784 c 9.870382,-0.0384 25.94382,-0.0384 35.71875,1e-5 9.774933,0.0384 1.699163,0.0699 -17.94615,0.0699 -19.645313,-1e-5 -27.642983,-0.0315 -17.7726,-0.0699 z m 57.520343,0.007 c 0.4697,-0.0585 1.30314,-0.0594 1.85209,-0.002 0.54894,0.0573 0.16465,0.1051 -0.854,0.10627 -1.01864,0.001 -1.46778,-0.0457 -0.99809,-0.10414 z m 4.96684,-1.13196 c 0.26339,-0.29104 0.53842,-0.52916 0.61118,-0.52916 0.0728,0 -0.0832,0.23812 -0.3466,0.52916 -0.26338,0.29104 -0.53842,0.52917 -0.61118,0.52917 -0.0728,0 0.0832,-0.23813 0.3466,-0.52917 z m -84.554401,-0.99218 -0.641433,-0.72761 0.727604,0.64143 c 0.400183,0.35279 0.727605,0.68021 0.727605,0.72761 0,0.2075 -0.21426,0.0386 -0.813776,-0.64143 z m 208.532581,0.0441 c 0.0127,-0.30822 0.0754,-0.37092 0.15986,-0.15985 0.0764,0.191 0.067,0.4192 -0.0209,0.50712 -0.0879,0.0879 -0.15045,-0.0683 -0.13897,-0.34727 z m -209.728319,-1.4993 -0.504028,-0.59532 0.595312,0.50403 c 0.559447,0.47366 0.715762,0.6866 0.504028,0.6866 -0.05021,0 -0.318097,-0.26789 -0.595312,-0.59531 z m 210.257489,-0.88195 c 0.0127,-0.30822 0.0754,-0.37092 0.15985,-0.15985 0.0764,0.191 0.067,0.4192 -0.0209,0.50712 -0.0879,0.0879 -0.15045,-0.0683 -0.13896,-0.34727 z m -211.315823,-0.44097 -0.504028,-0.59531 0.595313,0.50403 c 0.559447,0.47366 0.715762,0.68659 0.504028,0.68659 -0.05021,0 -0.318097,-0.26789 -0.595313,-0.59531 z m -1.058333,-1.32292 -0.504028,-0.59531 0.595313,0.50403 c 0.559446,0.47366 0.715761,0.6866 0.504028,0.6866 -0.05021,0 -0.318098,-0.26789 -0.595313,-0.59532 z m 212.638736,-0.0882 c 0.0127,-0.30823 0.0754,-0.37092 0.15986,-0.15985 0.0764,0.19099 0.067,0.4192 -0.0209,0.50711 -0.0879,0.0879 -0.15045,-0.0683 -0.13897,-0.34726 z m -8.70055,-1.03629 c 0.005,-0.43656 0.0647,-0.58312 0.13177,-0.32569 0.0671,0.25743 0.0627,0.61462 -0.01,0.79375 -0.0725,0.17913 -0.12737,-0.0315 -0.12197,-0.46806 z m 8.98603,-0.39687 c 0,-0.3638 0.0601,-0.51263 0.13345,-0.33073 0.0734,0.1819 0.0734,0.47956 0,0.66146 -0.0734,0.1819 -0.13345,0.0331 -0.13345,-0.33073 z M 92.020057,140.91672 c 4.256484,-0.0409 11.221643,-0.0409 15.478123,0 4.25649,0.0409 0.77391,0.0743 -7.739061,0.0743 -8.512969,0 -11.995547,-0.0334 -7.739062,-0.0743 z m 147.216263,-0.33089 c 0,-0.3638 0.06,-0.51263 0.13345,-0.33073 0.0734,0.1819 0.0734,0.47956 0,0.66146 -0.0734,0.1819 -0.13345,0.0331 -0.13345,-0.33073 z m -195.726299,-0.85989 -0.504028,-0.59532 0.595312,0.50403 c 0.559447,0.47366 0.715762,0.6866 0.504028,0.6866 -0.05021,0 -0.318097,-0.26789 -0.595312,-0.59531 z m 72.770489,-7.47448 c -1.2e-4,-4.36563 0.0361,-6.18869 0.0805,-4.05125 0.0444,2.13744 0.0445,5.70931 2.2e-4,7.9375 -0.0443,2.22819 -0.0806,0.47937 -0.0808,-3.88625 z m 131.96144,7.14375 c 0.005,-0.43656 0.0647,-0.58313 0.13178,-0.3257 0.0671,0.25743 0.0627,0.61462 -0.01,0.79375 -0.0725,0.17914 -0.12736,-0.0315 -0.12197,-0.46805 z m -206.054846,-1.25677 -0.504028,-0.59532 0.595313,0.50403 c 0.559447,0.47366 0.715761,0.6866 0.504028,0.6866 -0.05021,0 -0.318097,-0.26789 -0.595313,-0.59531 z M 239.5348,137.54312 c 0.002,-0.7276 0.0534,-0.99385 0.11418,-0.59167 0.0608,0.40218 0.0592,0.9975 -0.004,1.32292 -0.0628,0.32542 -0.11256,-0.004 -0.11057,-0.73125 z M 41.252452,136.94781 c -0.329107,-0.41964 -0.319749,-0.429 0.0999,-0.0999 0.440729,0.34564 0.580887,0.56291 0.363126,0.56291 -0.05494,0 -0.263301,-0.20836 -0.463021,-0.46302 z m 109.150898,-4.03489 c 0,-2.54662 0.0397,-3.58842 0.0882,-2.31511 0.0485,1.27331 0.0485,3.3569 0,4.63021 -0.0485,1.27331 -0.0882,0.23151 -0.0882,-2.3151 z m 98.15675,0.79375 c 0,-2.11006 0.0411,-2.97326 0.0913,-1.91823 0.0502,1.05502 0.0502,2.78143 0,3.83645 -0.0502,1.05503 -0.0913,0.19183 -0.0913,-1.91822 z m -218.794153,1.30531 c -0.09592,-0.1552 -0.117656,-0.33893 -0.0483,-0.40829 0.06935,-0.0694 0.196602,0.0576 0.282773,0.28219 0.178907,0.46622 0.02642,0.54823 -0.234473,0.1261 z M 158.5384,130.79625 c 0,-0.3638 0.0601,-0.51263 0.13345,-0.33073 0.0734,0.1819 0.0734,0.47956 0,0.66146 -0.0734,0.1819 -0.13345,0.0331 -0.13345,-0.33073 z m 80.9964,-0.92604 c 0.002,-0.72761 0.0534,-0.99386 0.11418,-0.59168 0.0608,0.40219 0.0592,0.9975 -0.004,1.32292 -0.0628,0.32542 -0.11256,-0.004 -0.11057,-0.73124 z m -80.7736,-0.38126 c 0,-0.13694 0.1177,-0.32171 0.26156,-0.41062 0.14998,-0.0927 0.19433,0.0135 0.10398,0.24897 -0.17589,0.45837 -0.36554,0.54223 -0.36554,0.16165 z m 7.62331,-0.99011 c 0.191,-0.0764 0.4192,-0.067 0.50712,0.0209 0.0879,0.0879 -0.0683,0.15045 -0.34727,0.13896 -0.30822,-0.0127 -0.37092,-0.0754 -0.15985,-0.15985 z m 2.89388,0.006 c 0.1819,-0.0734 0.47956,-0.0734 0.66146,0 0.1819,0.0734 0.0331,0.13346 -0.33073,0.13346 -0.3638,0 -0.51263,-0.0601 -0.33073,-0.13346 z m 78.96356,-0.48623 c 0.005,-0.43656 0.0647,-0.58312 0.13178,-0.32569 0.0671,0.25743 0.0627,0.61462 -0.01,0.79375 -0.0725,0.17913 -0.12736,-0.0315 -0.12197,-0.46806 z m -77.35952,0.21614 c 0.19099,-0.0764 0.4192,-0.067 0.50712,0.0209 0.0879,0.0879 -0.0684,0.15045 -0.34727,0.13896 -0.30822,-0.0127 -0.37092,-0.0754 -0.15985,-0.15985 z m -8.99584,-0.79375 c 0.191,-0.0764 0.4192,-0.067 0.50712,0.0209 0.0879,0.0879 -0.0684,0.15045 -0.34726,0.13896 -0.30823,-0.0127 -0.37092,-0.0754 -0.15986,-0.15985 z m 77.34973,-0.34843 c 0,-0.3638 0.06,-0.51263 0.13345,-0.33073 0.0734,0.1819 0.0734,0.47956 0,0.66146 -0.0734,0.1819 -0.13345,0.0331 -0.13345,-0.33073 z m -65.12928,0.1606 c 0,-0.0572 0.18478,-0.17489 0.41061,-0.26155 0.23546,-0.0904 0.34167,-0.046 0.24897,0.10398 -0.15538,0.25141 -0.65958,0.37186 -0.65958,0.15757 z M 27.019589,125.87941 c 0.0127,-0.30823 0.07539,-0.37092 0.159853,-0.15985 0.07643,0.19099 0.06703,0.4192 -0.02089,0.50711 -0.08792,0.0879 -0.150452,-0.0683 -0.138964,-0.34726 z m 220.957781,-0.24254 c 0.005,-0.43656 0.0647,-0.58312 0.13177,-0.32569 0.0671,0.25743 0.0627,0.61462 -0.01,0.79375 -0.0725,0.17913 -0.12736,-0.0315 -0.12197,-0.46806 z m -70.56304,-0.66145 c 0.56839,-0.58209 1.09297,-1.05834 1.16573,-1.05834 0.0728,0 -0.33276,0.47625 -0.90115,1.05834 -0.56839,0.58208 -1.09296,1.05833 -1.16572,1.05833 -0.0728,0 0.33275,-0.47625 0.90114,-1.05833 z m 61.5574,0.52916 c 0,-0.3638 0.0601,-0.51263 0.13345,-0.33073 0.0734,0.1819 0.0734,0.47956 0,0.66146 -0.0734,0.1819 -0.13345,0.0331 -0.13345,-0.33073 z m -114.77431,-2.24896 c 6.9e-4,-1.4552 0.0451,-2.01676 0.0987,-1.2479 0.0536,0.76886 0.053,1.95949 -0.001,2.64584 -0.0543,0.68634 -0.0982,0.0573 -0.0975,-1.39794 z m -97.421526,1.19063 c 0,-0.3638 0.06005,-0.51263 0.133452,-0.33073 0.0734,0.1819 0.0734,0.47956 0,0.66146 -0.0734,0.1819 -0.133452,0.0331 -0.133452,-0.33073 z m 125.635306,0.16469 c 0,-0.0549 0.20836,-0.2633 0.46302,-0.46302 0.41965,-0.32911 0.42901,-0.31975 0.0999,0.0999 -0.34564,0.44073 -0.56292,0.58089 -0.56292,0.36313 z m 86.27506,-0.58361 c 0.0127,-0.30823 0.0754,-0.37092 0.15985,-0.15986 0.0764,0.191 0.067,0.4192 -0.0209,0.50712 -0.0879,0.0879 -0.15045,-0.0683 -0.13896,-0.34726 z m 8.99583,0 c 0.0127,-0.30823 0.0754,-0.37092 0.15986,-0.15986 0.0764,0.191 0.067,0.4192 -0.0209,0.50712 -0.0879,0.0879 -0.15045,-0.0683 -0.13897,-0.34726 z M 35.486256,122.96899 c 0.0127,-0.30822 0.07539,-0.37092 0.159852,-0.15985 0.07643,0.191 0.06703,0.4192 -0.02089,0.50712 -0.08792,0.0879 -0.150453,-0.0683 -0.138964,-0.34727 z m 202.935424,0 c 0.0127,-0.30822 0.0754,-0.37092 0.15985,-0.15985 0.0764,0.191 0.067,0.4192 -0.0209,0.50712 -0.0879,0.0879 -0.15045,-0.0683 -0.13896,-0.34727 z M 26.530918,122.065 c 0,-0.50932 0.05445,-0.71768 0.121,-0.46302 0.06655,0.25466 0.06655,0.67138 0,0.92604 -0.06655,0.25466 -0.121,0.0463 -0.121,-0.46302 z m 220.886592,0.37483 c 0.0127,-0.30823 0.0754,-0.37092 0.15985,-0.15986 0.0764,0.191 0.067,0.4192 -0.0209,0.50712 -0.0879,0.0879 -0.15045,-0.0684 -0.13896,-0.34726 z m -67.60492,-0.71697 c 0.0994,-0.26094 0.2473,-0.40778 0.32877,-0.32632 0.0815,0.0815 1.6e-4,0.29496 -0.18066,0.47443 -0.2613,0.25936 -0.2917,0.22897 -0.14811,-0.14811 z M 35.299756,118.49312 c 5.97e-4,-1.60073 0.04417,-2.22146 0.09684,-1.3794 0.05266,0.84206 0.05218,2.15175 -0.0011,2.91042 -0.05326,0.75867 -0.09635,0.0697 -0.09575,-1.53102 z m 202.592754,2.35921 c 0.0127,-0.30823 0.0754,-0.37092 0.15985,-0.15986 0.0764,0.191 0.067,0.4192 -0.0209,0.50712 -0.0879,0.0879 -0.15045,-0.0683 -0.13896,-0.34726 z m -82.55,-0.52917 c 0.0127,-0.30823 0.0754,-0.37092 0.15985,-0.15985 0.0764,0.19099 0.067,0.4192 -0.0209,0.50711 -0.0879,0.0879 -0.15045,-0.0683 -0.13896,-0.34726 z m 12.21609,0.22941 c 0.40018,-0.0606 1.05503,-0.0606 1.45521,0 0.40018,0.0606 0.0728,0.11023 -0.72761,0.11023 -0.80036,0 -1.12778,-0.0496 -0.7276,-0.11023 z m -64.14492,-0.5204 c 0.19099,-0.0764 0.4192,-0.067 0.50711,0.0209 0.0879,0.0879 -0.0683,0.15046 -0.34726,0.13897 -0.30823,-0.0127 -0.37092,-0.0754 -0.15985,-0.15986 z m 5.02708,0 c 0.191,-0.0764 0.4192,-0.067 0.50712,0.0209 0.0879,0.0879 -0.0683,0.15046 -0.34727,0.13897 -0.30822,-0.0127 -0.37092,-0.0754 -0.15985,-0.15986 z m 62.22669,0.0768 c 0,-0.0572 0.18478,-0.17489 0.41062,-0.26155 0.23546,-0.0904 0.34166,-0.046 0.24897,0.10398 -0.15538,0.25141 -0.65959,0.37186 -0.65959,0.15757 z m -6.37002,-1.15279 -0.64143,-0.7276 0.7276,0.64143 c 0.40018,0.35279 0.7276,0.68021 0.7276,0.72761 0,0.2075 -0.21426,0.0386 -0.81377,-0.64144 z m 7.82523,0.19844 c 0.26339,-0.29104 0.53842,-0.52916 0.61118,-0.52916 0.0728,0 -0.0832,0.23812 -0.34659,0.52916 -0.26339,0.29104 -0.53842,0.52917 -0.61119,0.52917 -0.0728,0 0.0832,-0.23813 0.3466,-0.52917 z M 26.280625,118.22854 c 0.002,-0.7276 0.05337,-0.99386 0.114186,-0.59167 0.06082,0.40218 0.05919,0.99749 -0.0036,1.32291 -0.0628,0.32542 -0.11256,-0.004 -0.110574,-0.73124 z m 85.719115,1.00077 c 0.40218,-0.0608 0.99749,-0.0592 1.32291,0.004 0.32542,0.0628 -0.004,0.11256 -0.73124,0.11057 -0.7276,-0.002 -0.99386,-0.0534 -0.59167,-0.11418 z m 43.36366,-1.13306 c 0,-0.3638 0.06,-0.51263 0.13345,-0.33073 0.0734,0.1819 0.0734,0.47956 0,0.66146 -0.0734,0.1819 -0.13345,0.0331 -0.13345,-0.33073 z m 17.57002,-0.0776 c 0.0994,-0.26094 0.24731,-0.40778 0.32877,-0.32632 0.0815,0.0815 1.7e-4,0.29496 -0.18065,0.47443 -0.26131,0.25937 -0.2917,0.22898 -0.14812,-0.14811 z m -74.79555,-0.38546 c -0.329107,-0.41965 -0.319749,-0.429 0.09989,-0.0999 0.440729,0.34565 0.580887,0.56292 0.363126,0.56292 -0.05494,0 -0.263302,-0.20836 -0.463021,-0.46302 z m 65.24266,0.18083 c -0.0959,-0.1552 -0.11765,-0.33893 -0.0483,-0.40828 0.0694,-0.0694 0.1966,0.0576 0.28278,0.28218 0.1789,0.46623 0.0264,0.54823 -0.23448,0.1261 z m -8.26211,-1.30531 c 0,-0.50932 0.0545,-0.71768 0.121,-0.46302 0.0666,0.25466 0.0666,0.67138 0,0.92604 -0.0666,0.25466 -0.121,0.0463 -0.121,-0.46302 z m 26.48765,-1.45521 c 9.6e-4,-1.16417 0.0475,-1.6075 0.10337,-0.98519 0.0559,0.62231 0.0551,1.57481 -0.002,2.11666 -0.0569,0.54186 -0.10258,0.0327 -0.10162,-1.13147 z m -60.18487,0.7276 c -0.3291,-0.41964 -0.31975,-0.429 0.0999,-0.0999 0.44073,0.34564 0.58089,0.56292 0.36312,0.56292 -0.0549,0 -0.2633,-0.20836 -0.46302,-0.46303 z m 52.22339,-0.46302 c 0.003,-0.58208 0.0571,-0.78905 0.12041,-0.45993 0.0633,0.32912 0.0609,0.80537 -0.005,1.05833 -0.0662,0.25297 -0.118,-0.0163 -0.11507,-0.5984 z m -78.152553,-0.33073 c -0.329108,-0.41964 -0.319749,-0.429 0.0999,-0.0999 0.440729,0.34564 0.580887,0.56292 0.363126,0.56292 -0.05494,0 -0.263302,-0.20836 -0.463021,-0.46303 z m -68.961119,-0.59531 c 0,-0.50932 0.05445,-0.71768 0.121,-0.46302 0.06655,0.25466 0.06655,0.67138 0,0.92604 -0.06655,0.25466 -0.121,0.0463 -0.121,-0.46302 z m 93.567372,0.0661 c -0.32911,-0.41965 -0.31975,-0.429 0.0999,-0.0999 0.44073,0.34565 0.58089,0.56292 0.36313,0.56292 -0.0549,0 -0.2633,-0.20836 -0.46302,-0.46302 z m -84.612034,-0.48507 c 0.0127,-0.30823 0.07539,-0.37092 0.159852,-0.15985 0.07643,0.19099 0.06703,0.4192 -0.02089,0.50711 -0.08792,0.0879 -0.150453,-0.0683 -0.138964,-0.34726 z m 119.632164,-0.63941 c 0,-0.50932 0.0545,-0.71768 0.121,-0.46302 0.0666,0.25466 0.0666,0.67138 0,0.92604 -0.0666,0.25466 -0.121,0.0463 -0.121,-0.46302 z m 18.09526,0.12206 c -0.25532,-0.66534 -0.18,-0.83702 0.13191,-0.30065 0.15443,0.26557 0.22505,0.5386 0.15693,0.60672 -0.0681,0.0681 -0.1981,-0.0696 -0.28884,-0.30607 z m -9.68998,-0.65123 c 0.15576,-0.29104 0.34274,-0.52916 0.4155,-0.52916 0.0728,0 0.005,0.23812 -0.15091,0.52916 -0.15576,0.29104 -0.34274,0.52917 -0.4155,0.52917 -0.0728,0 -0.005,-0.23813 0.15091,-0.52917 z M 35.750839,112.38566 c 0.0127,-0.30823 0.07539,-0.37092 0.159853,-0.15985 0.07643,0.19099 0.06703,0.4192 -0.02089,0.50711 -0.08792,0.0879 -0.150453,-0.0683 -0.138965,-0.34726 z m 83.343751,0 c 0.0127,-0.30823 0.0754,-0.37092 0.15985,-0.15985 0.0764,0.19099 0.067,0.4192 -0.0209,0.50711 -0.0879,0.0879 -0.15046,-0.0683 -0.13897,-0.34726 z m -92.318696,-0.37483 c 0,-0.3638 0.06005,-0.51263 0.133452,-0.33073 0.0734,0.1819 0.0734,0.47956 0,0.66146 -0.0734,0.1819 -0.133452,0.0331 -0.133452,-0.33073 z m 128.566616,-0.15434 c 0.0127,-0.30822 0.0754,-0.37092 0.15985,-0.15985 0.0764,0.191 0.067,0.4192 -0.0209,0.50712 -0.0879,0.0879 -0.15045,-0.0684 -0.13896,-0.34727 z m 25.54409,-0.78193 c -0.25532,-0.66534 -0.18,-0.83702 0.1319,-0.30065 0.15444,0.26557 0.22506,0.5386 0.15693,0.60672 -0.0681,0.0681 -0.19809,-0.0696 -0.28883,-0.30607 z m -153.867011,-0.2764 c 0.0127,-0.30823 0.07539,-0.37092 0.159853,-0.15985 0.07643,0.19099 0.06703,0.4192 -0.02089,0.50711 -0.08792,0.0879 -0.150452,-0.0683 -0.138964,-0.34726 z m 82.793701,0.31903 c 0,-0.0549 0.20836,-0.2633 0.46302,-0.46302 0.41964,-0.32911 0.429,-0.31975 0.0999,0.0999 -0.34564,0.44073 -0.56291,0.58089 -0.56291,0.36313 z m 61.34958,-0.36313 c -0.32911,-0.41964 -0.31975,-0.429 0.0999,-0.0999 0.44073,0.34564 0.58088,0.56291 0.36312,0.56291 -0.0549,0 -0.2633,-0.20836 -0.46302,-0.46302 z m 62.21084,-0.33073 c -0.15577,-0.29104 -0.22367,-0.52916 -0.15091,-0.52916 0.0728,0 0.25973,0.23812 0.41549,0.52916 0.15576,0.29104 0.22367,0.52917 0.15091,0.52917 -0.0728,0 -0.25973,-0.23813 -0.41549,-0.52917 z M 93.165424,110.00441 c 0.0127,-0.30823 0.07539,-0.37092 0.159852,-0.15985 0.07643,0.19099 0.06703,0.4192 -0.02089,0.50711 -0.08792,0.0879 -0.150453,-0.0683 -0.138964,-0.34726 z m 17.727436,-0.37483 c 0.38572,-0.8099 0.50793,-0.96 0.50793,-0.62383 0,0.14196 -0.18517,0.48922 -0.41147,0.7717 -0.38798,0.48427 -0.39349,0.47583 -0.0965,-0.14787 z m 8.23242,-0.39687 c 0.005,-0.43657 0.0647,-0.58313 0.13178,-0.3257 0.0671,0.25743 0.0627,0.61462 -0.01,0.79375 -0.0725,0.17913 -0.12736,-0.0315 -0.12197,-0.46805 z m 48.6979,0.47907 c 0.25466,-0.0666 0.67138,-0.0666 0.92604,0 0.25467,0.0665 0.0463,0.121 -0.46302,0.121 -0.50932,0 -0.71768,-0.0545 -0.46302,-0.121 z m -74.856407,-2.59574 c 0.0012,-1.01865 0.049,-1.40294 0.106272,-0.85399 0.05728,0.54894 0.05632,1.38238 -0.0021,1.85208 -0.05845,0.4697 -0.105312,0.0206 -0.104138,-0.99809 z m 18.454897,1.03628 c 0.0127,-0.30822 0.0754,-0.37091 0.15986,-0.15985 0.0764,0.191 0.067,0.4192 -0.0209,0.50712 -0.0879,0.0879 -0.15045,-0.0683 -0.13897,-0.34727 z m -10.58333,-0.26458 c 0.0127,-0.30822 0.0754,-0.37092 0.15985,-0.15985 0.0764,0.191 0.067,0.4192 -0.0209,0.50712 -0.0879,0.0879 -0.15045,-0.0684 -0.13896,-0.34727 z m 18.54172,-0.11024 c 0,-0.3638 0.0601,-0.51263 0.13345,-0.33073 0.0734,0.1819 0.0734,0.47956 0,0.66146 -0.0734,0.1819 -0.13345,0.0331 -0.13345,-0.33073 z m 59.45573,-0.46302 c -0.32911,-0.41965 -0.31975,-0.429 0.0999,-0.0999 0.25466,0.19972 0.46302,0.40808 0.46302,0.46302 0,0.21776 -0.21727,0.0776 -0.56291,-0.36312 z m -20.86834,-0.67811 c 0,-0.0455 0.38696,-0.43248 0.8599,-0.85989 l 0.8599,-0.77711 -0.77711,0.8599 c -0.72437,0.80154 -0.94269,0.98151 -0.94269,0.7771 z m -57.12911,-0.60071 c 0.0127,-0.30823 0.0754,-0.37092 0.15985,-0.15985 0.0764,0.19099 0.067,0.4192 -0.0209,0.50711 -0.0879,0.0879 -0.15045,-0.0683 -0.13896,-0.34726 z m 10.58333,0 c 0.0127,-0.30823 0.0754,-0.37092 0.15986,-0.15985 0.0764,0.19099 0.067,0.4192 -0.0209,0.50711 -0.0879,0.0879 -0.15045,-0.0683 -0.13897,-0.34726 z m 66.10493,-0.30868 -0.64144,-0.72761 0.72761,0.64144 c 0.68005,0.59951 0.84894,0.81377 0.64143,0.81377 -0.0474,0 -0.37482,-0.32742 -0.7276,-0.7276 z m -139.671879,0.0661 c 0,-0.14552 0.115416,-0.44317 0.25648,-0.66145 0.141064,-0.21829 0.256481,-0.27782 0.256481,-0.1323 0,0.14552 -0.115417,0.44318 -0.256481,0.66146 -0.141064,0.21828 -0.25648,0.27781 -0.25648,0.13229 z m 81.525339,-0.66145 c 0,-0.36381 0.0601,-0.51264 0.13345,-0.33073 0.0734,0.1819 0.0734,0.47955 0,0.66145 -0.0734,0.18191 -0.13345,0.0331 -0.13345,-0.33072 z m 40.43948,-0.0999 c 0,-0.0549 0.20836,-0.2633 0.46302,-0.46302 0.41964,-0.32911 0.429,-0.31975 0.0999,0.0999 -0.34564,0.44073 -0.56291,0.58089 -0.56291,0.36313 z M 38.525087,104.26036 c 0.09936,-0.26094 0.247304,-0.40778 0.328766,-0.32632 0.08146,0.0815 1.68e-4,0.29495 -0.180654,0.47443 -0.261306,0.25936 -0.291697,0.22897 -0.148112,-0.14811 z m 54.640337,-0.0768 c 0.0127,-0.30822 0.07539,-0.37091 0.159852,-0.15985 0.07643,0.191 0.06703,0.4192 -0.02089,0.50712 -0.08792,0.0879 -0.150453,-0.0683 -0.138964,-0.34727 z m 8.974946,-0.7717 c 0.34177,-0.3638 0.68094,-0.66145 0.7537,-0.66145 0.0728,0 -0.14734,0.29765 -0.48912,0.66145 -0.34177,0.36381 -0.68094,0.66146 -0.7537,0.66146 -0.0728,0 0.14734,-0.29765 0.48912,-0.66146 z m 7.65867,-0.33073 -0.9118,-0.99218 0.99219,0.9118 c 0.54571,0.50148 0.99219,0.94797 0.99219,0.99218 0,0.20204 -0.2239,0.0117 -1.07258,-0.9118 z m 9.31644,0.46303 c 0,-0.36381 0.06,-0.51264 0.13345,-0.33073 0.0734,0.1819 0.0734,0.47955 0,0.66145 -0.0734,0.18191 -0.13345,0.0331 -0.13345,-0.33072 z m 108.94653,-0.46303 -0.64143,-0.7276 0.7276,0.64143 c 0.40019,0.35279 0.72761,0.68021 0.72761,0.72761 0,0.2075 -0.21426,0.0386 -0.81378,-0.64144 z m -54.21956,0.19844 c -0.23846,-0.15411 -0.2711,-0.2581 -0.0818,-0.26053 0.17332,-0.002 0.3887,0.11501 0.47864,0.26053 0.20302,0.32849 0.11142,0.32849 -0.39688,0 z m -6.28385,-1.25107 c 0.5457,-0.0571 1.43867,-0.0571 1.98437,0 0.54571,0.0571 0.0992,0.10378 -0.99218,0.10378 -1.09141,0 -1.53789,-0.0467 -0.99219,-0.10378 z M 30.173701,101.17853 c 0,-0.13693 0.117699,-0.32171 0.261553,-0.41062 0.149981,-0.0927 0.194338,0.0135 0.103984,0.24897 -0.175893,0.45837 -0.365537,0.54224 -0.365537,0.16165 z m 194.855679,-1.404677 -1.31297,-1.389063 1.38907,1.312971 c 1.29074,1.220039 1.5104,1.465159 1.31297,1.465159 -0.0419,0 -0.66693,-0.62508 -1.38907,-1.389067 z M 30.702868,100.1202 c 0,-0.136936 0.117698,-0.321714 0.261552,-0.41062 0.149982,-0.09269 0.194339,0.01351 0.103985,0.248968 -0.175893,0.458372 -0.365537,0.542232 -0.365537,0.161652 z m 206.217572,-0.346347 -0.50403,-0.595313 0.59532,0.504028 c 0.32742,0.277215 0.59531,0.545102 0.59531,0.595312 0,0.21173 -0.21294,0.0554 -0.6866,-0.504027 z M 41.286201,99.740104 c 0,-0.05494 0.20836,-0.263302 0.463021,-0.463021 0.419644,-0.329108 0.429002,-0.319749 0.09989,0.09989 -0.345644,0.440729 -0.562916,0.580887 -0.562916,0.363126 z M 95.461456,99.17854 c 0.302762,-0.436562 1.122404,-1.329531 1.821426,-1.984375 1.129637,-1.058243 1.097238,-0.999407 -0.291393,0.529167 -2.090315,2.300968 -2.167478,2.374358 -1.530033,1.455208 z m 21.461834,-0.06615 c -0.32911,-0.419644 -0.31975,-0.429002 0.0999,-0.09989 0.44073,0.345644 0.58089,0.562916 0.36313,0.562916 -0.0549,0 -0.2633,-0.208359 -0.46302,-0.463021 z m 118.67424,-0.926042 -0.50403,-0.595312 0.59531,0.504028 c 0.32742,0.277215 0.59531,0.545106 0.59531,0.595312 0,0.211734 -0.21293,0.05542 -0.68659,-0.504028 z m -192.988412,-0.0066 c 0,-0.04002 0.922734,-0.962757 2.050521,-2.050521 l 2.050521,-1.977753 -1.977753,2.05052 c -1.836894,1.904479 -2.123289,2.171244 -2.123289,1.977754 z m 179.494652,-1.051712 -0.50402,-0.595312 0.59531,0.504028 c 0.32742,0.277215 0.59531,0.545106 0.59531,0.595312 0,0.211734 -0.21293,0.05542 -0.6866,-0.504028 z m -107.68541,-0.529167 -0.50403,-0.595312 0.59531,0.504028 c 0.32742,0.277215 0.59531,0.545106 0.59531,0.595312 0,0.211734 -0.21293,0.05542 -0.68659,-0.504028 z m 117.7592,-2.116666 -2.37573,-2.447396 2.4474,2.375734 c 2.27308,2.206528 2.56783,2.519058 2.37573,2.519058 -0.0394,0 -1.14074,-1.101329 -2.4474,-2.447396 z m -11.5376,1.455208 c -0.32911,-0.419644 -0.31975,-0.429002 0.0999,-0.0999 0.44073,0.345644 0.58089,0.562916 0.36313,0.562916 -0.0549,0 -0.2633,-0.208359 -0.46302,-0.463021 z M 34.142451,94.448437 c 0,-0.05494 0.208359,-0.263302 0.463021,-0.463021 0.419644,-0.329108 0.429002,-0.319749 0.0999,0.0999 -0.345644,0.440729 -0.562916,0.580887 -0.562916,0.363126 z M 47.107035,93.91927 c 0,-0.05494 0.208359,-0.263301 0.463021,-0.463021 0.419643,-0.329107 0.429002,-0.319749 0.09989,0.0999 -0.345643,0.440729 -0.562915,0.580887 -0.562915,0.363126 z m 56.571225,-0.08085 c 0.191,-0.07643 0.4192,-0.06703 0.50712,0.02089 0.0879,0.08792 -0.0683,0.150453 -0.34727,0.138965 -0.30822,-0.0127 -0.37092,-0.07539 -0.15985,-0.159853 z m 2.10013,-0.259071 c 0.1819,-0.0734 0.47956,-0.0734 0.66146,0 0.1819,0.0734 0.0331,0.133452 -0.33073,0.133452 -0.3638,0 -0.51263,-0.06005 -0.33073,-0.133452 z M 35.333076,92.960832 c 0.263389,-0.291042 0.538421,-0.529167 0.611181,-0.529167 0.07276,0 -0.08321,0.238125 -0.346598,0.529167 -0.263389,0.291041 -0.53842,0.529166 -0.61118,0.529166 -0.07276,0 0.08321,-0.238125 0.346597,-0.529166 z M 215.11746,92.431665 c -0.23847,-0.154109 -0.27111,-0.258098 -0.0818,-0.260532 0.17332,-0.0022 0.3887,0.115011 0.47864,0.260532 0.20302,0.328487 0.11142,0.328487 -0.39687,0 z M 37.052868,90.976457 c 0.493655,-0.509323 0.957086,-0.926042 1.029846,-0.926042 0.07276,0 -0.271608,0.416719 -0.765263,0.926042 -0.493655,0.509322 -0.957086,0.926041 -1.029846,0.926041 -0.07276,0 0.271608,-0.416719 0.765263,-0.926041 z m 13.49375,0.547784 c 0,-0.07276 0.238125,-0.259732 0.529167,-0.415493 0.291041,-0.155761 0.529166,-0.22367 0.529166,-0.15091 0,0.07276 -0.238125,0.259733 -0.529166,0.415494 -0.291042,0.15576 -0.529167,0.22367 -0.529167,0.150909 z M 213.00079,91.373332 c -0.23847,-0.15411 -0.2711,-0.258098 -0.0818,-0.260532 0.17331,-0.0022 0.3887,0.115011 0.47863,0.260532 0.20302,0.328486 0.11143,0.328486 -0.39687,0 z m 15.1884,-0.595313 -0.50403,-0.595313 0.59532,0.504028 c 0.32742,0.277216 0.59531,0.545106 0.59531,0.595313 0,0.211734 -0.21294,0.05542 -0.6866,-0.504028 z M 51.869535,90.740181 c 0,-0.05719 0.184777,-0.17489 0.410617,-0.261553 0.235459,-0.09035 0.341662,-0.046 0.248968,0.103984 -0.155379,0.251408 -0.659585,0.371858 -0.659585,0.157569 z m 1.058333,-0.529167 c 0,-0.05719 0.184778,-0.17489 0.410617,-0.261553 0.235459,-0.09035 0.341662,-0.046 0.248968,0.103984 -0.155378,0.251408 -0.659585,0.371858 -0.659585,0.157569 z m 173.797502,-0.62362 c -0.3291,-0.419644 -0.31975,-0.429002 0.0999,-0.0999 0.25466,0.199719 0.46302,0.408079 0.46302,0.463021 0,0.217761 -0.21727,0.0776 -0.56292,-0.363126 z M 38.904951,89.173874 c 0,-0.04553 0.386953,-0.432488 0.859896,-0.859896 l 0.859896,-0.777105 -0.777105,0.859896 c -0.724372,0.801543 -0.942687,0.981512 -0.942687,0.777105 z M 203.69076,88.017591 c 0.191,-0.07643 0.4192,-0.06703 0.50712,0.02089 0.0879,0.08792 -0.0684,0.150453 -0.34727,0.138964 -0.30822,-0.01269 -0.37091,-0.07539 -0.15985,-0.159852 z M 60.022009,87.753008 c 0.190996,-0.07643 0.419199,-0.06703 0.507118,0.02089 0.08792,0.08792 -0.06835,0.150452 -0.347266,0.138964 -0.308224,-0.0127 -0.370919,-0.07539 -0.159852,-0.159852 z m 142.610421,0 c 0.19099,-0.07643 0.4192,-0.06703 0.50712,0.02089 0.0879,0.08792 -0.0684,0.150452 -0.34727,0.138964 -0.30822,-0.0127 -0.37092,-0.07539 -0.15985,-0.159852 z M 62.915889,87.229353 c 0.181901,-0.0734 0.479558,-0.0734 0.661459,0 0.181901,0.0734 0.03307,0.133452 -0.33073,0.133452 -0.363802,0 -0.51263,-0.06005 -0.330729,-0.133452 z m 136.789591,0 c 0.1819,-0.0734 0.47955,-0.0734 0.66145,0 0.1819,0.0734 0.0331,0.133452 -0.33073,0.133452 -0.3638,0 -0.51263,-0.06005 -0.33072,-0.133452 z m -1.57097,-0.270096 c 0.191,-0.07643 0.4192,-0.06703 0.50712,0.02089 0.0879,0.08792 -0.0683,0.150452 -0.34727,0.138964 -0.30822,-0.0127 -0.37091,-0.07539 -0.15985,-0.159854 z m -8.21862,-0.280689 c 1.20055,-0.04903 3.16508,-0.04903 4.36563,0 1.20054,0.04903 0.21828,0.08914 -2.18282,0.08914 -2.40109,0 -3.38335,-0.04011 -2.18281,-0.08914 z M 64.061257,85.662741 c 0.0127,-0.308224 0.07539,-0.370919 0.159852,-0.159852 0.07643,0.190996 0.06703,0.419199 -0.02089,0.507118 -0.08792,0.08792 -0.150453,-0.06835 -0.138964,-0.347266 z m 123.099323,-2.22691 c 0,-1.091406 0.0467,-1.53789 0.10378,-0.992187 0.0571,0.545703 0.0571,1.438672 0,1.984375 -0.0571,0.545703 -0.10378,0.09922 -0.10378,-0.992188 z M 63.53209,83.810658 c 0.0127,-0.308225 0.07539,-0.370919 0.159852,-0.159853 0.07643,0.190996 0.06703,0.4192 -0.02089,0.507118 -0.08792,0.08792 -0.150453,-0.06835 -0.138964,-0.347265 z m -0.243695,-1.43316 c 0,-0.363802 0.06005,-0.51263 0.133452,-0.330729 0.0734,0.181901 0.0734,0.479557 0,0.661458 -0.0734,0.181901 -0.133452,0.03307 -0.133452,-0.330729 z m 151.564475,0 c -0.23847,-0.154109 -0.2711,-0.258097 -0.0818,-0.260532 0.17331,-0.0022 0.3887,0.115011 0.47864,0.260532 0.20301,0.328487 0.11142,0.328487 -0.39688,0 z M 186.85862,79.33479 c 0.005,-0.436563 0.0647,-0.583125 0.13177,-0.325694 0.0671,0.257431 0.0627,0.614618 -0.01,0.79375 -0.0725,0.179131 -0.12736,-0.03149 -0.12197,-0.468056 z m 14.98006,-0.842199 c 0.19099,-0.07643 0.4192,-0.06703 0.50712,0.02089 0.0879,0.08792 -0.0684,0.150453 -0.34727,0.138964 -0.30822,-0.0127 -0.37092,-0.07539 -0.15985,-0.159852 z m -1.86862,-0.259072 c 0.1819,-0.0734 0.47956,-0.0734 0.66146,0 0.1819,0.0734 0.0331,0.133453 -0.33073,0.133453 -0.3638,0 -0.51263,-0.06005 -0.33073,-0.133453 z M 63.288395,77.614998 c 0,-0.363802 0.06005,-0.51263 0.133452,-0.330729 0.0734,0.181901 0.0734,0.479557 0,0.661458 -0.0734,0.181901 -0.133452,0.03307 -0.133452,-0.330729 z m 123.295835,0 c 0,-0.363802 0.0601,-0.51263 0.13345,-0.330729 0.0734,0.181901 0.0734,0.479557 0,0.661458 -0.0734,0.181901 -0.13345,0.03307 -0.13345,-0.330729 z m 10.87732,0.345813 c 0.25743,-0.06708 0.61462,-0.06267 0.79375,0.0098 0.17913,0.07248 -0.0315,0.127362 -0.46805,0.121969 -0.43657,-0.0054 -0.58313,-0.06469 -0.3257,-0.131773 z m -1.69243,-0.808834 c -0.32911,-0.419644 -0.31975,-0.429002 0.0999,-0.0999 0.25466,0.19972 0.46302,0.408079 0.46302,0.463021 0,0.217761 -0.21727,0.0776 -0.56292,-0.363126 z M 54.566948,76.688956 c 0.0054,-0.436562 0.06469,-0.583124 0.131774,-0.325693 0.06708,0.257431 0.06267,0.614618 -0.0098,0.79375 -0.07248,0.179131 -0.127362,-0.03149 -0.12197,-0.468057 z m 8.965142,-0.551215 c 0.0127,-0.308225 0.07539,-0.370919 0.159852,-0.159853 0.07643,0.190997 0.06703,0.4192 -0.02089,0.507119 -0.08792,0.08792 -0.150453,-0.06835 -0.138964,-0.347266 z m -8.73125,-1.322917 c 0.0127,-0.308224 0.07539,-0.370919 0.159852,-0.159852 0.07643,0.190996 0.06703,0.419199 -0.02089,0.507118 -0.08792,0.08792 -0.150453,-0.06835 -0.138964,-0.347266 z m 131.23334,-0.264583 c 0.0127,-0.308225 0.0754,-0.370919 0.15985,-0.159853 0.0764,0.190997 0.067,0.4192 -0.0209,0.507119 -0.0879,0.08792 -0.15045,-0.06835 -0.13896,-0.347266 z m 8.99583,0 c 0.0127,-0.308225 0.0754,-0.370919 0.15985,-0.159853 0.0764,0.190997 0.067,0.4192 -0.0209,0.507119 -0.0879,0.08792 -0.15045,-0.06835 -0.13896,-0.347266 z M 55.065423,73.491908 c 0.0127,-0.308225 0.07539,-0.37092 0.159852,-0.159853 0.07643,0.190996 0.06703,0.419199 -0.02089,0.507118 -0.08792,0.08792 -0.150452,-0.06835 -0.138964,-0.347265 z m 9.768695,-1.07391 c 0,-0.141961 0.185162,-0.489227 0.411472,-0.771701 0.387979,-0.484269 0.393485,-0.475827 0.09645,0.147867 -0.385713,0.809899 -0.507924,0.959999 -0.507924,0.623834 z M 184.97584,70.581491 c 0.0127,-0.308225 0.0754,-0.370919 0.15985,-0.159853 0.0764,0.190996 0.067,0.4192 -0.0209,0.507118 -0.0879,0.08792 -0.15046,-0.06835 -0.13897,-0.347265 z M 66.421618,69.577603 c 0,-0.05494 0.20836,-0.263302 0.463021,-0.463021 0.419644,-0.329107 0.429003,-0.319749 0.09989,0.0999 -0.345644,0.440729 -0.562916,0.580887 -0.562916,0.363126 z m -9.78148,-0.561564 c 0,-0.14552 0.115416,-0.443177 0.25648,-0.661458 0.141064,-0.218281 0.256481,-0.277812 0.256481,-0.132292 0,0.145521 -0.115417,0.443177 -0.256481,0.661459 -0.141064,0.218281 -0.25648,0.277812 -0.25648,0.132291 z M 93.904537,67.89156 c -0.329108,-0.419644 -0.319749,-0.429002 0.09989,-0.0999 0.440729,0.345644 0.580887,0.562916 0.363126,0.562916 -0.05494,0 -0.263302,-0.208359 -0.463021,-0.463021 z M 68.273702,67.428539 c 0.341774,-0.363802 0.680939,-0.661458 0.753699,-0.661458 0.07276,0 -0.147342,0.297656 -0.489116,0.661458 -0.341774,0.363802 -0.680939,0.661459 -0.753699,0.661459 -0.07276,0 0.147342,-0.297657 0.489116,-0.661459 z m 24.321642,-0.859896 -0.641433,-0.727604 0.727604,0.641433 c 0.680056,0.599516 0.848939,0.813776 0.641433,0.813776 -0.04739,0 -0.374816,-0.327422 -0.727604,-0.727605 z m -22.998725,-0.16604 c 0,-0.05494 0.208359,-0.263302 0.46302,-0.463021 0.419644,-0.329107 0.429003,-0.319749 0.09989,0.0999 -0.345643,0.440729 -0.562915,0.580887 -0.562915,0.363126 z m 26.73102,-1.09073 c 0,-0.145521 0.115416,-0.443177 0.25648,-0.661459 0.141064,-0.218281 0.25648,-0.277812 0.25648,-0.132291 0,0.14552 -0.115416,0.443177 -0.25648,0.661458 -0.141064,0.218281 -0.25648,0.277812 -0.25648,0.132292 z M 182.61187,64.71656 c -0.28871,-0.674699 -0.28218,-0.69026 0.0898,-0.214014 0.22064,0.282475 0.40117,0.609897 0.40117,0.727605 0,0.402142 -0.17947,0.214408 -0.491,-0.513591 z M 59.277868,64.285936 c 0,-0.05494 0.20836,-0.263301 0.463021,-0.463021 0.419644,-0.329107 0.429002,-0.319749 0.09989,0.09989 -0.345644,0.440729 -0.562916,0.580887 -0.562916,0.363126 z m 13.758334,-0.164688 c 0.218281,-0.141065 0.515937,-0.256481 0.661458,-0.256481 0.145521,0 0.08599,0.115416 -0.132291,0.256481 -0.218282,0.141064 -0.515938,0.25648 -0.661459,0.25648 -0.145521,0 -0.08599,-0.115416 0.132292,-0.25648 z m 16.009165,0.003 c -0.09269,-0.149982 0.01351,-0.194338 0.248968,-0.103984 0.458369,0.175893 0.542234,0.365537 0.161649,0.365537 -0.136933,0 -0.32171,-0.117699 -0.410617,-0.261553 z m 7.952638,-0.345171 c 0.09936,-0.260937 0.247304,-0.407781 0.328766,-0.326319 0.08146,0.08146 1.67e-4,0.294956 -0.180654,0.474432 -0.261306,0.259362 -0.291697,0.228971 -0.148112,-0.148113 z m -9.145136,-0.187026 c -0.238467,-0.154109 -0.271101,-0.258098 -0.08176,-0.260532 0.173313,-0.0022 0.388699,0.115011 0.478636,0.260532 0.203016,0.328487 0.111422,0.328487 -0.396876,0 z m 94.076391,-0.187027 c -0.14359,-0.377083 -0.1132,-0.407474 0.14811,-0.148112 0.18082,0.179476 0.26211,0.39297 0.18065,0.474432 -0.0815,0.08146 -0.2294,-0.06538 -0.32876,-0.32632 z M 61.79141,61.475414 c 0.716663,-0.727604 1.362556,-1.322917 1.435316,-1.322917 0.07276,0 -0.454069,0.595313 -1.170733,1.322917 -0.716663,0.727604 -1.362555,1.322917 -1.435316,1.322917 -0.07276,0 0.45407,-0.595313 1.170733,-1.322917 z m 16.734896,0.883105 c 0.181901,-0.0734 0.479558,-0.0734 0.661459,0 0.181901,0.0734 0.03307,0.133452 -0.33073,0.133452 -0.363802,0 -0.51263,-0.06005 -0.330729,-0.133452 z m 5.027084,0 c 0.181901,-0.0734 0.479557,-0.0734 0.661458,0 0.181901,0.0734 0.03307,0.133452 -0.330729,0.133452 -0.363802,0 -0.51263,-0.06005 -0.330729,-0.133452 z M 64.040368,59.523436 c 0,-0.05494 0.20836,-0.263302 0.463021,-0.463021 0.419644,-0.329107 0.429003,-0.319749 0.0999,0.0999 -0.345644,0.440729 -0.562916,0.580887 -0.562916,0.363126 z M 178.83579,58.36656 c -0.32911,-0.419644 -0.31975,-0.429002 0.0999,-0.09989 0.44073,0.345644 0.58089,0.562916 0.36313,0.562916 -0.0549,0 -0.2633,-0.20836 -0.46302,-0.463021 z m -2.09424,-2.778125 c -0.49149,-0.618464 -0.68446,-0.95646 -0.4288,-0.751103 0.48153,0.386798 1.61541,1.875582 1.42846,1.875582 -0.0583,0 -0.50816,-0.506016 -0.99966,-1.124479 z m -75.13035,0.760001 c 0,-0.05494 0.20836,-0.263302 0.46302,-0.463021 0.41965,-0.329107 0.42901,-0.319749 0.0999,0.09989 -0.34565,0.440729 -0.56292,0.580887 -0.56292,0.363126 z M 91.292452,54.756847 c 0,-0.05719 0.184778,-0.174891 0.410617,-0.261553 0.23546,-0.09035 0.341662,-0.046 0.248969,0.103984 -0.155379,0.251408 -0.659586,0.371858 -0.659586,0.157569 z m 12.170838,-0.557475 c 0.34177,-0.363802 0.68094,-0.661458 0.7537,-0.661458 0.0728,0 -0.14735,0.297656 -0.48912,0.661458 -0.34178,0.363802 -0.68094,0.661459 -0.7537,0.661459 -0.0728,0 0.14734,-0.297657 0.48912,-0.661459 z m 71.15867,-1.124479 -0.9118,-0.992187 0.99219,0.911798 c 0.92351,0.848682 1.11384,1.072577 0.9118,1.072577 -0.0442,0 -0.4907,-0.446485 -0.99219,-0.992188 z m -98.195784,0.546864 c 0.190996,-0.07643 0.419199,-0.06703 0.507118,0.02089 0.08792,0.08792 -0.06835,0.150453 -0.347266,0.138964 -0.308224,-0.0127 -0.370919,-0.07539 -0.159852,-0.159852 z m 8.202083,0 c 0.190997,-0.07643 0.4192,-0.06703 0.507119,0.02089 0.08792,0.08792 -0.06835,0.150453 -0.347266,0.138964 -0.308225,-0.0127 -0.370919,-0.07539 -0.159853,-0.159852 z m -6.363451,-0.270972 c 0.329118,-0.06329 0.805368,-0.06088 1.058333,0.0053 0.252965,0.06622 -0.01631,0.118003 -0.598397,0.115066 -0.582084,-0.0029 -0.789055,-0.05712 -0.459936,-0.120405 z m 3.833373,0.0047 c 0.254662,-0.06655 0.671381,-0.06655 0.926042,0 0.254661,0.06655 0.0463,0.121 -0.463021,0.121 -0.509323,0 -0.717682,-0.05445 -0.463021,-0.121 z m 11.046355,-0.446677 c 0,-0.05494 0.208359,-0.263302 0.463021,-0.463021 0.419643,-0.329108 0.429002,-0.319749 0.09989,0.09989 -0.345643,0.44073 -0.562915,0.580888 -0.562915,0.363127 z M 184.65662,51.22281 c -0.32911,-0.419644 -0.31975,-0.429002 0.0999,-0.0999 0.25466,0.199719 0.46302,0.408079 0.46302,0.463021 0,0.217761 -0.21727,0.0776 -0.56292,-0.363126 z M 94.732036,50.792186 c 0,-0.05494 0.208359,-0.263302 0.463021,-0.463021 0.419643,-0.329108 0.429002,-0.319749 0.09989,0.09989 -0.345643,0.440729 -0.562915,0.580887 -0.562915,0.363126 z m 12.700004,-0.512063 c 0,-0.04553 0.38695,-0.432487 0.85989,-0.859895 l 0.8599,-0.777106 -0.77711,0.859896 c -0.72437,0.801544 -0.94268,0.981512 -0.94268,0.777105 z m 63.61564,-0.777105 -0.7771,-0.859896 0.85989,0.777106 c 0.47295,0.427408 0.8599,0.814361 0.8599,0.859895 0,0.204407 -0.21831,0.02444 -0.94269,-0.777105 z M 95.922661,49.304581 c 0.263389,-0.291042 0.53842,-0.529167 0.611181,-0.529167 0.07276,0 -0.08321,0.238125 -0.346598,0.529167 -0.263389,0.291041 -0.53842,0.529166 -0.611181,0.529166 -0.07276,0 0.08321,-0.238125 0.346598,-0.529166 z m 86.237519,-1.12448 -0.7771,-0.859895 0.8599,0.777105 c 0.47294,0.427408 0.85989,0.814361 0.85989,0.859896 0,0.204406 -0.21831,0.02444 -0.94269,-0.777106 z M 96.584119,48.42804 c 0,-0.04554 0.386953,-0.432488 0.859896,-0.859896 l 0.859896,-0.777105 -0.777106,0.859896 c -0.724371,0.801543 -0.942686,0.981512 -0.942686,0.777105 z m 12.964581,-0.0171 c 0,-0.05494 0.20836,-0.263302 0.46302,-0.463021 0.41965,-0.329108 0.42901,-0.319749 0.0999,0.09989 -0.34565,0.440729 -0.56292,0.580887 -0.56292,0.363126 z m 59.37382,-0.760001 -0.50402,-0.595313 0.59531,0.504028 c 0.32742,0.277216 0.59531,0.545106 0.59531,0.595313 0,0.211733 -0.21293,0.05542 -0.6866,-0.504028 z m -58.31548,-0.03375 c 0,-0.05494 0.20836,-0.263302 0.46302,-0.463021 0.41964,-0.329108 0.429,-0.319749 0.0999,0.0999 -0.34564,0.440729 -0.56291,0.580887 -0.56291,0.363126 z m 1.85208,-1.322917 c 0,-0.05494 0.20836,-0.263302 0.46302,-0.463021 0.41964,-0.329107 0.429,-0.319749 0.0999,0.09989 -0.34565,0.440729 -0.56292,0.580887 -0.56292,0.363126 z m -12.700001,-1.32292 c 0,-0.05494 0.20836,-0.263301 0.463021,-0.463021 0.41964,-0.329107 0.429,-0.319749 0.0999,0.0999 -0.345639,0.440729 -0.562911,0.580887 -0.562911,0.363126 z m 77.508671,-1.686042 -0.91179,-0.992188 0.99218,0.911798 c 0.92351,0.848682 1.11384,1.072577 0.9118,1.072577 -0.0442,0 -0.4907,-0.446484 -0.99219,-0.992187 z m -59.58756,-0.363561 c 0.17948,-0.180821 0.39297,-0.262115 0.47443,-0.180653 0.0815,0.08146 -0.0654,0.229406 -0.32632,0.328765 -0.37708,0.143586 -0.40747,0.113195 -0.14811,-0.148112 z m -14.8784,-0.760919 c 0.26339,-0.291041 0.53842,-0.529166 0.61118,-0.529166 0.0728,0 -0.0832,0.238125 -0.3466,0.529166 -0.26339,0.291042 -0.53842,0.529167 -0.61118,0.529167 -0.0728,0 0.0832,-0.238125 0.3466,-0.529167 z m 57.15187,0.003 c -0.0927,-0.149982 0.0135,-0.194338 0.24897,-0.103984 0.45837,0.175892 0.54223,0.365537 0.16165,0.365537 -0.13693,0 -0.32171,-0.117699 -0.41062,-0.261553 z m -1.1925,-0.532197 c -0.21828,-0.141064 -0.27781,-0.256481 -0.13229,-0.256481 0.14552,0 0.44318,0.115417 0.66146,0.256481 0.21828,0.141064 0.27781,0.25648 0.13229,0.25648 -0.14552,0 -0.44317,-0.115416 -0.66146,-0.25648 z m 16.37042,-0.198438 c -0.32911,-0.419644 -0.31975,-0.429002 0.0999,-0.09989 0.44073,0.345644 0.58088,0.562916 0.36312,0.562916 -0.0549,0 -0.2633,-0.208359 -0.46302,-0.463021 z m -70.74229,-0.595312 c 0.26339,-0.291042 0.53842,-0.529167 0.61118,-0.529167 0.0728,0 -0.0832,0.238125 -0.3466,0.529167 -0.26339,0.291041 -0.53842,0.529166 -0.61118,0.529166 -0.0728,0 0.0832,-0.238125 0.3466,-0.529166 z m 51.72604,-0.264584 c -0.21828,-0.141064 -0.27781,-0.25648 -0.13229,-0.25648 0.14552,0 0.44318,0.115416 0.66146,0.25648 0.21828,0.141065 0.27781,0.256481 0.13229,0.256481 -0.14552,0 -0.44318,-0.115416 -0.66146,-0.256481 z m 17.69334,-0.198437 c -0.32911,-0.419644 -0.31975,-0.429002 0.0999,-0.0999 0.44073,0.345644 0.58089,0.562916 0.36313,0.562916 -0.0549,0 -0.26331,-0.20836 -0.46302,-0.463021 z m -68.22876,-0.430624 c 0,-0.05494 0.20836,-0.263302 0.46302,-0.463021 0.41965,-0.329107 0.42901,-0.319749 0.0999,0.09989 -0.34565,0.440729 -0.56292,0.580887 -0.56292,0.363126 z m 46.78164,-0.610013 c 0.191,-0.07643 0.4192,-0.06703 0.50712,0.02089 0.0879,0.08792 -0.0683,0.150452 -0.34726,0.138964 -0.30823,-0.0127 -0.37092,-0.07539 -0.15986,-0.159853 z m 19.33045,-0.546863 c -0.32911,-0.419644 -0.31975,-0.429002 0.0999,-0.0999 0.25466,0.199719 0.46302,0.408079 0.46302,0.463021 0,0.217761 -0.21727,0.0776 -0.56291,-0.363126 z m -43.40753,0.0177 c 0.191,-0.07643 0.4192,-0.06703 0.50712,0.02089 0.0879,0.08792 -0.0684,0.150453 -0.34727,0.138964 -0.30822,-0.0127 -0.37092,-0.07539 -0.15985,-0.159852 z m 21.96042,0 c 0.19099,-0.07643 0.4192,-0.06703 0.50712,0.02089 0.0879,0.08792 -0.0684,0.150453 -0.34727,0.138964 -0.30822,-0.0127 -0.37092,-0.07539 -0.15985,-0.159852 z m -19.59571,-0.523655 c 0.18191,-0.0734 0.47956,-0.0734 0.66146,0 0.1819,0.0734 0.0331,0.133452 -0.33073,0.133452 -0.3638,0 -0.51263,-0.06005 -0.33073,-0.133452 z m 16.80608,-0.0081 c 0.25743,-0.06708 0.61462,-0.06267 0.79375,0.0098 0.17913,0.07248 -0.0315,0.127362 -0.46805,0.12197 -0.43657,-0.0054 -0.58313,-0.06469 -0.3257,-0.131774 z m -15.21858,-0.256458 c 0.18191,-0.0734 0.47956,-0.0734 0.66146,0 0.1819,0.0734 0.0331,0.133452 -0.33073,0.133452 -0.3638,0 -0.51263,-0.06005 -0.33073,-0.133452 z m 13.51029,-0.0055 c 0.191,-0.07643 0.4192,-0.06703 0.50712,0.02089 0.0879,0.08792 -0.0684,0.150453 -0.34727,0.138964 -0.30822,-0.0127 -0.37092,-0.07539 -0.15985,-0.159852 z m -11.25769,-0.273703 c 0.40218,-0.06082 0.9975,-0.05919 1.32292,0.0036 0.32542,0.0628 -0.004,0.11256 -0.73125,0.110573 -0.7276,-0.002 -0.99385,-0.05337 -0.59167,-0.114185 z m 8.19845,3.51e-4 c 0.40018,-0.06062 1.05502,-0.06062 1.4552,0 0.40019,0.06062 0.0728,0.110223 -0.7276,0.110223 -0.80036,0 -1.12779,-0.0496 -0.7276,-0.110223 z m -3.69914,-0.258428 c 0.25744,-0.06708 0.61462,-0.06267 0.79375,0.0098 0.17914,0.07247 -0.0315,0.127362 -0.46805,0.121969 -0.43656,-0.0054 -0.58313,-0.06469 -0.3257,-0.131773 z m -13.08537,-7.141137 c 0.191,-0.07643 0.4192,-0.06703 0.50712,0.02089 0.0879,0.08792 -0.0684,0.150453 -0.34727,0.138964 -0.30822,-0.0127 -0.37092,-0.07539 -0.15985,-0.159852 z m 1.32292,-0.264583 c 0.19099,-0.07643 0.4192,-0.06703 0.50712,0.02089 0.0879,0.08792 -0.0684,0.150453 -0.34727,0.138964 -0.30822,-0.0127 -0.37092,-0.07539 -0.15985,-0.159852 z m 1.32291,-0.264584 c 0.191,-0.07643 0.4192,-0.06703 0.50712,0.02089 0.0879,0.08792 -0.0683,0.150453 -0.34726,0.138965 -0.30823,-0.0127 -0.37092,-0.07539 -0.15986,-0.159853 z m 23.01875,0 c 0.191,-0.07643 0.4192,-0.06703 0.50712,0.02089 0.0879,0.08792 -0.0684,0.150453 -0.34726,0.138965 -0.30823,-0.0127 -0.37092,-0.07539 -0.15986,-0.159853 z m -21.43125,-0.264583 c 0.191,-0.07643 0.4192,-0.06703 0.50712,0.02089 0.0879,0.08792 -0.0684,0.150453 -0.34726,0.138964 -0.30823,-0.0127 -0.37092,-0.07539 -0.15986,-0.159852 z m 19.84375,0 c 0.191,-0.07643 0.4192,-0.06703 0.50712,0.02089 0.0879,0.08792 -0.0684,0.150453 -0.34726,0.138964 -0.30823,-0.0127 -0.37092,-0.07539 -0.15986,-0.159852 z m -18.53737,-0.259071 c 0.18191,-0.0734 0.47956,-0.0734 0.66146,0 0.1819,0.0734 0.0331,0.133452 -0.33073,0.133452 -0.3638,0 -0.51263,-0.06005 -0.33073,-0.133452 z m 16.80608,-0.0081 c 0.25743,-0.06708 0.61462,-0.06267 0.79375,0.0098 0.17913,0.07248 -0.0315,0.127362 -0.46805,0.12197 -0.43657,-0.0054 -0.58313,-0.06469 -0.3257,-0.131774 z m -14.2875,-0.264583 c 0.25743,-0.06708 0.61462,-0.06267 0.79375,0.0098 0.17913,0.07248 -0.0315,0.127362 -0.46806,0.12197 -0.43656,-0.0054 -0.58312,-0.06469 -0.32569,-0.131774 z m 12.17083,0 c 0.25744,-0.06708 0.61462,-0.06267 0.79375,0.0098 0.17914,0.07248 -0.0315,0.127362 -0.46805,0.12197 -0.43656,-0.0054 -0.58313,-0.06469 -0.3257,-0.131774 z m -7.81024,-0.278076 c 1.20055,-0.04903 3.16508,-0.04903 4.36563,0 1.20054,0.04903 0.21828,0.08914 -2.18282,0.08914 -2.40109,0 -3.38336,-0.04011 -2.18281,-0.08914 z"
         id="path24" /><path
         style="fill:#c4fa5e"
         d="m 133.89037,153.08698 c -1.32479,-0.6618 -1.65982,-1.8481 -1.35253,-4.78917 0.13147,-1.25841 0.2533,-12.85422 0.27073,-25.76846 0.028,-20.74282 -0.0165,-23.595855 -0.38193,-24.470347 -0.52522,-1.257019 -1.31679,-2.104796 -2.56107,-2.742897 -0.54015,-0.277005 -1.24227,-0.771434 -1.56027,-1.098731 -0.31799,-0.327297 -0.48193,-0.416491 -0.3643,-0.19821 0.11762,0.218281 -0.1018,0.109351 -0.48761,-0.242067 -0.76857,-0.700062 -2.82344,-3.733122 -2.82344,-4.1675 0,-0.149398 -0.17821,-0.628879 -0.39604,-1.065512 -0.89045,-1.784966 -1.16546,-5.281802 -0.64241,-8.168516 0.3405,-1.879202 2.0242,-5.148591 3.37278,-6.549221 1.78984,-1.858926 5.25489,-3.825984 7.58755,-4.307338 3.61422,-0.74581 7.32606,-0.05141 10.58333,1.979904 1.4706,0.917097 3.05325,2.445386 2.85858,2.760376 -0.0892,0.144357 -0.0349,0.183798 0.12065,0.08765 0.15706,-0.09707 0.55147,0.26719 0.88681,0.819015 0.33217,0.54661 0.67101,1.053368 0.75298,1.126128 0.3987,0.353904 1.34953,2.951857 1.59136,4.348073 0.74782,4.31762 -0.10453,7.964528 -2.67454,11.443419 -0.97923,1.325538 -2.72394,2.941547 -3.01108,2.788962 -0.2322,-0.12339 -1.93056,1.129125 -2.4825,1.830804 -0.28765,0.365684 -0.60419,1.012671 -0.70342,1.437749 -0.0992,0.425078 -0.3675,0.921697 -0.59614,1.103598 -0.25087,0.199584 -0.29074,0.330729 -0.10056,0.330729 0.24169,0 0.31515,6.092262 0.31515,26.134872 0,29.03966 0.13083,27.02928 -1.79373,27.56378 -1.63318,0.45358 -5.34267,0.34528 -6.40835,-0.18709 z m 6.14507,-65.902087 c 0.50462,-0.311876 1.01439,-0.479329 1.1328,-0.372117 0.11842,0.107212 0.11849,0.02804 1.7e-4,-0.175937 -0.13373,-0.230529 -0.0672,-0.480829 0.17576,-0.661458 0.57733,-0.42918 1.01512,-1.915907 0.84904,-2.88331 -0.3771,-2.196496 -1.44506,-3.55084 -3.3839,-4.29129 -0.99804,-0.381152 -1.32151,-0.398175 -2.18529,-0.115003 -0.55762,0.182804 -1.26149,0.49333 -1.56415,0.690057 -0.30265,0.196727 -0.63008,0.297737 -0.7276,0.224466 -0.0975,-0.07327 -0.12293,-0.05899 -0.0565,0.03173 0.0665,0.09072 -0.16506,0.539799 -0.51451,0.997951 -0.34945,0.458153 -0.7599,1.388703 -0.91211,2.067891 -0.23235,1.036795 -0.19715,1.420575 0.21946,2.392467 0.55656,1.298423 1.82826,2.50052 2.89264,2.73434 0.38897,0.08545 0.8232,0.183606 0.96497,0.218133 0.56943,0.138681 2.24453,-0.323529 3.10919,-0.857917 z"
         id="path23" /><path
         style="fill:#37d0f8;stroke-width:9.6;stroke-dasharray:none"
         d="m 154.25675,171.5486 c -1.90704,-0.24616 -2.46535,-0.5707 -3.06783,-1.78331 -0.47157,-0.94912 -0.50206,-2.06353 -0.5848,-21.37425 -0.0634,-14.78918 -0.004,-20.6515 0.21633,-21.38935 0.20817,-0.69693 0.87844,-1.56287 2.13226,-2.75476 2.39983,-2.28128 2.79048,-3.26069 2.48147,-6.22133 -0.32205,-3.08567 -0.21085,-5.06712 0.39664,-7.06715 1.01194,-3.33158 3.87424,-6.37307 7.39813,-7.86127 1.61316,-0.68127 2.01992,-0.73922 5.20327,-0.74134 l 3.4533,-0.002 2.10295,1.03493 c 2.80377,1.37983 5.01114,3.60445 6.37422,6.42406 0.89789,1.85735 1.0095,2.32289 1.10504,4.60943 0.12346,2.95466 -0.2722,4.66286 -1.72094,7.42992 -1.81795,3.47224 -5.0292,5.66647 -9.49219,6.48596 -2.16604,0.39772 -2.4329,0.39493 -4.19138,-0.0438 -4.36693,-1.08955 -5.2796,-1.03487 -6.65316,0.39856 l -0.78115,0.8152 -0.0736,16.85536 c -0.0628,14.37498 -0.0172,16.93244 0.30938,17.37913 0.37779,0.5167 0.84621,0.52467 34.734,0.59111 32.30231,0.0633 34.40571,0.0397 35.26769,-0.39688 1.72265,-0.8724 5.79277,-7.49563 7.79977,-12.69242 1.21367,-3.14259 2.42278,-8.06436 2.80824,-11.43116 0.46445,-4.0567 0.1845,-12.12194 -0.53798,-15.49897 -1.4897,-6.96315 -4.54599,-13.45925 -9.03661,-19.20717 -8.29373,-10.615841 -18.87338,-16.596172 -32.23792,-18.223038 -1.23311,-0.150106 -3.99905,-0.272921 -6.14653,-0.272921 -4.56141,0 -4.06005,0.493483 -4.30086,-4.233333 -0.48586,-9.536933 -3.36908,-17.472544 -9.29036,-25.570282 -2.44865,-3.348675 -8.23882,-8.912323 -11.62232,-11.167619 -6.16531,-4.109533 -12.23688,-6.423619 -19.97604,-7.613569 -3.0466,-0.468436 -10.5117,-0.526475 -13.39396,-0.104134 -15.9358,2.335083 -30.56384,13.455239 -36.900344,28.051437 -0.473802,1.091406 -0.956644,2.094122 -1.072983,2.228258 -0.120479,0.138909 -0.81263,-0.32204 -1.608059,-1.070914 -3.89816,-3.670009 -7.373529,-4.990732 -12.641325,-4.804003 -3.540734,0.125508 -6.09848,0.864999 -9.076918,2.6243 -6.602126,3.899738 -9.843183,12.026489 -7.842546,19.664701 0.29867,1.140289 0.447498,2.160955 0.330729,2.268146 -0.116769,0.107192 -1.330337,0.396309 -2.696817,0.642483 -6.900281,1.243099 -12.116613,3.96688 -17.022066,8.88831 C 33.948954,106.9015 32.21831,122.7832 40.16474,135.29448 c 1.377435,2.1687 3.546127,4.77001 4.296441,5.1535 0.524139,0.2679 7.984875,0.35853 35.937834,0.43656 35.025795,0.0978 35.279195,0.0947 35.672765,-0.43069 0.3383,-0.45162 0.38192,-1.80869 0.29763,-9.26042 -0.10886,-9.62466 -0.16208,-9.96361 -1.77797,-11.32329 -1.03634,-0.87202 -2.01554,-0.91016 -4.77817,-0.18608 -6.42822,1.68481 -12.575113,-1.08544 -15.488497,-6.98027 -0.919224,-1.85992 -1.01327,-2.25754 -1.124268,-4.7533 -0.189326,-4.25693 0.812132,-7.02071 3.638928,-10.042559 5.116827,-5.469901 13.394657,-5.513939 18.859007,-0.10033 2.07452,2.055261 3.02643,3.813069 3.54029,6.537579 0.31375,1.66348 0.33997,2.42678 0.11879,3.45812 -0.41968,1.95687 -0.35453,4.62111 0.13718,5.61004 0.23156,0.46572 1.21988,1.62067 2.19626,2.56655 1.35149,1.30927 1.85397,2.004 2.10502,2.91042 0.24853,0.89731 0.31039,4.5264 0.25113,14.73139 -0.0772,13.29001 -0.0889,13.5546 -0.63546,14.2875 -0.30625,0.41071 -0.92911,0.96476 -1.38413,1.23123 -0.79245,0.46409 -2.49637,0.48338 -40.45359,0.4582 l -39.62629,-0.0263 -1.455209,-0.72278 c -1.197489,-0.59478 -1.890138,-1.26165 -3.911035,-3.76549 -4.298879,-5.32621 -6.445089,-9.01477 -7.982213,-13.71855 -4.015535,-12.28801 -2.255723,-24.90198 4.971879,-35.637408 4.453671,-6.615204 9.826916,-10.989863 17.854726,-14.53653 2.645824,-1.168919 2.936531,-1.527959 3.217177,-3.973414 0.741539,-6.461502 3.355687,-11.862996 7.773854,-16.062755 3.383511,-3.216251 8.06414,-5.960505 11.809988,-6.924201 2.000908,-0.514774 6.175934,-0.995813 7.327403,-0.844249 0.481074,0.06332 1.589056,0.185825 2.462181,0.272231 0.873125,0.08641 2.714012,0.434692 4.090861,0.773971 1.490388,0.367256 2.774922,0.544243 3.174468,0.437388 0.655454,-0.175295 1.079166,-0.649464 4.40991,-4.935061 6.585,-8.472778 15.23971,-14.626637 25.23414,-17.942527 3.80784,-1.263344 8.67974,-2.343209 12.5677,-2.785656 3.57079,-0.406352 11.04385,-0.336773 14.47685,0.13479 11.94115,1.640255 22.5449,7.121968 31.96231,16.523216 7.6381,7.625008 12.67483,17.000734 14.9267,27.785648 0.90875,4.352287 0.7224,4.193232 5.57373,4.757483 6.95019,0.808366 14.65847,3.504357 20.67735,7.231959 7.35498,4.555069 15.04205,12.173222 19.41293,19.238895 5.72521,9.25498 8.19361,18.89899 7.85078,30.67283 -0.30631,10.51969 -2.6949,19.01387 -7.72432,27.46892 -2.04014,3.42972 -5.44905,7.80631 -6.48236,8.3225 -0.86994,0.43459 -3.27433,0.46054 -39.68751,0.42833 -21.3188,-0.0188 -39.41924,-0.11918 -40.2232,-0.22296 z m 16.75637,-51.45578 c 2.06074,-0.9894 3.23689,-3.80742 2.58256,-6.18774 -0.67073,-2.43998 -3.72908,-4.58124 -5.94864,-4.16484 -1.21017,0.22702 -3.06887,1.52933 -3.85875,2.70364 -0.56371,0.83806 -0.66146,1.28566 -0.66146,3.02874 0,1.8899 0.0619,2.12183 0.81456,3.05176 1.2439,1.53688 2.8371,2.28197 4.6094,2.15568 0.80036,-0.057 1.90841,-0.32129 2.46233,-0.58724 z m -61.6284,-8.56236 c 2.70994,-1.96307 3.06187,-5.90178 0.74526,-8.34065 -1.07858,-1.1355 -2.08583,-1.55064 -3.76226,-1.55064 -3.97938,0 -6.63436,3.82467 -5.13936,7.4036 1.36612,3.27037 5.38414,4.49587 8.15636,2.48769 z"
         id="path22" /></g></g></svg>
