<svg version="1.1" id="Layer_1" xmlns="http://www.w3.org/2000/svg" xmlns:xlink="http://www.w3.org/1999/xlink" x="0px" y="0px"
	 width="100%" viewBox="0 0 1080 832" enable-background="new 0 0 1080 832" xml:space="preserve">
<path fill="#FEFEFE" opacity="1.000000" stroke="none" 
	d="
M1.000000,301.000000 
	C1.000000,200.679703 1.000000,100.859421 1.000000,1.019565 
	C360.939941,1.019565 720.879883,1.019565 1080.909912,1.019565 
	C1080.909912,278.237000 1080.909912,555.473999 1080.909912,832.855530 
	C721.000061,832.855530 361.000031,832.855530 1.000000,832.855530 
	C1.000000,655.786743 1.000000,478.643372 1.000000,301.000000 
M460.254303,356.101166 
	C456.120270,356.045715 451.951324,355.614258 447.857727,355.994263 
	C414.846588,359.058838 394.963287,397.550751 411.491089,426.225403 
	C423.533112,447.117523 443.549683,454.812195 468.972321,448.321991 
	C481.625641,445.091675 487.761566,449.613342 487.981201,462.835297 
	C488.277313,480.662201 488.251587,498.494629 488.334900,516.324829 
	C488.364227,522.597229 487.796326,523.165466 481.499847,523.164612 
	C401.339935,523.153564 321.179840,523.183655 241.020706,522.925171 
	C237.654373,522.914368 233.313019,521.073792 231.084854,518.594604 
	C204.059753,488.525055 195.050034,453.183472 205.951706,414.614624 
	C219.037262,368.319397 251.266693,341.941895 298.653656,334.107208 
	C304.961975,333.064209 305.714142,332.129089 303.790863,325.926849 
	C300.085571,313.977875 300.162994,302.018677 303.440674,289.997284 
	C315.604767,245.383957 376.814789,228.735596 408.700806,263.735046 
	C412.158295,267.530151 413.638062,267.138275 415.688354,262.245026 
	C427.054260,235.118927 444.038361,212.315750 467.275360,194.129898 
	C507.532776,162.623520 552.815552,151.574173 602.995056,160.530380 
	C641.508423,167.404388 673.437866,186.040771 698.963135,215.581970 
	C713.017151,231.846924 724.262268,249.861557 731.235596,270.331879 
	C737.190430,287.812378 740.241516,305.780090 740.213989,324.276550 
	C740.204712,330.501709 741.729736,331.840881 747.946655,331.903442 
	C752.612549,331.950378 757.280029,331.878479 761.945007,331.960663 
	C814.521667,332.886841 857.182129,354.059113 890.091187,394.949310 
	C917.089294,428.495148 928.940552,466.821747 926.242981,509.784515 
	C924.138367,543.303223 913.024109,573.442200 893.142212,600.434692 
	C890.255188,604.354370 886.655518,606.167358 881.656921,606.160889 
	C803.330322,606.060486 725.003540,606.080811 646.676819,606.050659 
	C640.468323,606.048279 639.025879,604.603271 639.011902,598.354736 
	C638.982544,585.189514 639.059692,572.024109 639.066589,558.858765 
	C639.078247,536.693970 639.004211,514.528870 639.093689,492.364380 
	C639.146484,479.277924 645.468811,474.461121 658.025513,477.664215 
	C658.832397,477.870056 659.647034,478.049744 660.445312,478.284851 
	C683.602539,485.105591 706.755249,474.295380 716.799744,452.428253 
	C728.909668,426.064362 715.860413,402.198822 697.874146,391.750610 
	C680.007202,381.371765 661.845154,382.703217 645.165161,394.477905 
	C629.019897,405.875061 623.518311,422.160889 627.194092,441.460327 
	C628.930176,450.575195 626.532959,458.196777 619.024353,463.478363 
	C611.452637,468.804352 609.166016,476.077728 609.279297,484.668457 
	C609.439636,496.825836 609.746277,508.982025 609.815735,521.139709 
	C609.989136,551.469116 610.010864,581.799438 610.198608,612.128784 
	C610.309692,630.072632 614.098755,633.794067 631.986633,633.809082 
	C681.482422,633.850464 730.978271,633.858521 780.474060,633.868164 
	C820.137451,633.875854 859.800842,633.829285 899.464111,633.908203 
	C904.993408,633.919189 909.122253,632.262939 912.817993,627.767639 
	C935.316833,600.401550 949.896973,569.503174 955.788940,534.503906 
	C961.386719,501.251801 959.849304,468.429352 949.452820,436.305847 
	C937.695435,399.976959 915.792847,370.505096 887.032898,345.751251 
	C855.707581,318.789368 819.472229,303.672485 778.408142,300.012451 
	C773.238586,299.551697 770.909302,297.206207 769.791382,292.167877 
	C767.343445,281.135590 764.987549,270.001801 761.367126,259.325531 
	C749.165344,223.343231 727.270691,194.056229 698.049927,170.047165 
	C675.065369,151.162018 649.468933,137.327377 620.409302,130.443924 
	C598.364441,125.222076 576.036499,123.726952 553.438416,126.138611 
	C529.410278,128.702896 506.210266,134.219604 484.287872,144.567871 
	C452.795471,159.433533 427.848938,181.952377 407.730927,210.125885 
	C401.346039,219.067368 400.149689,219.266312 389.335358,216.305130 
	C377.552307,213.078720 365.645447,211.471161 353.314056,212.815201 
	C316.203125,216.860062 274.070740,247.425262 269.504364,297.009155 
	C268.795319,304.708130 265.562378,308.494476 258.774658,311.212219 
	C233.265274,321.425995 212.207993,337.508270 196.438950,360.183533 
	C167.892853,401.231720 162.039337,445.482971 177.848831,492.770325 
	C184.874954,513.785889 198.370316,530.740173 212.390625,547.282776 
	C214.827209,550.157654 218.767426,552.765137 222.389404,553.422180 
	C230.334015,554.863525 238.518478,555.528809 246.607086,555.546143 
	C328.599701,555.721680 410.592712,555.712463 492.585632,555.708862 
	C496.570709,555.708679 500.605530,555.596252 504.530487,554.982056 
	C512.730957,553.698914 516.823608,549.403748 516.880798,541.180908 
	C517.091858,510.852509 517.061401,480.521973 516.993042,450.192535 
	C516.980469,444.618073 514.957092,439.502869 510.268921,436.290710 
	C499.929169,429.206329 497.364899,419.838715 500.072388,407.945923 
	C502.554749,397.041718 499.928619,386.718597 493.697784,377.517700 
	C485.848297,365.926636 474.724792,359.096863 460.254303,356.101166 
M573.181213,569.040466 
	C579.825439,567.391113 581.884766,564.598022 581.897095,556.648376 
	C581.953003,520.500793 581.962952,484.353119 581.969727,448.205475 
	C581.974121,424.884521 581.947144,401.563599 581.928162,378.242645 
	C581.921753,370.425751 585.320129,364.949097 592.682495,361.897217 
	C594.765930,361.033569 596.720459,359.601837 598.402222,358.066956 
	C611.812622,345.827545 616.878906,330.491638 615.058411,312.630463 
	C612.667175,289.170380 590.934937,268.825287 567.289612,267.960236 
	C532.699219,266.694733 507.253906,295.345673 513.360046,329.371674 
	C516.012390,344.151764 522.786804,356.680634 537.485046,363.330078 
	C544.114990,366.329407 546.031677,372.212311 546.026306,378.971771 
	C545.984314,431.776520 545.962891,484.581299 545.843506,537.385925 
	C545.828430,544.035034 545.123108,550.680603 545.021484,557.332153 
	C544.908508,564.728699 547.726379,568.393616 554.959290,569.134216 
	C560.689758,569.721008 566.539062,569.146667 573.181213,569.040466 
M355.223297,698.078796 
	C337.233826,691.783081 321.604492,694.807983 309.029785,710.663025 
	C303.085510,698.770142 293.093811,695.343994 281.466949,695.131470 
	C269.691895,694.916260 260.016235,699.387939 252.698471,709.743164 
	C251.539001,704.882996 251.784637,699.923157 249.473190,697.932678 
	C247.226639,695.998047 242.358398,697.107910 238.486389,696.871399 
	C238.486389,728.043152 238.486389,758.389038 238.486389,788.616089 
	C243.493423,788.616089 248.052567,788.616089 252.968536,788.616089 
	C252.968536,786.365540 252.968002,784.554138 252.968628,782.742737 
	C252.973831,767.752808 252.694092,752.754517 253.129700,737.777100 
	C253.295975,732.060608 254.645782,726.257019 256.278290,720.736206 
	C258.205994,714.217102 262.995453,709.908813 269.717804,708.635132 
	C282.622253,706.190063 291.395569,708.402222 295.254761,718.829407 
	C296.545868,722.317932 296.877899,726.316040 296.913666,730.088196 
	C297.080963,747.741516 296.984009,765.397278 297.005585,783.052124 
	C297.007935,784.968445 297.165771,786.884705 297.249481,788.755310 
	C302.364471,788.755310 306.794067,788.755310 311.811676,788.755310 
	C311.811676,786.671753 311.810425,784.885742 311.811890,783.099792 
	C311.825165,766.610901 311.654297,750.119202 311.902100,733.633789 
	C312.175018,715.478943 321.346649,707.056519 339.348419,707.905518 
	C347.490265,708.289490 353.491486,713.375366 354.951782,721.470276 
	C355.567963,724.885803 355.884064,728.399841 355.902771,731.871399 
	C355.995209,749.026062 355.942444,766.181519 355.940948,783.336731 
	C355.940796,785.098022 355.940918,786.859314 355.940918,788.667603 
	C361.230713,788.667603 365.774872,788.667603 370.759247,788.667603 
	C370.759247,781.155884 370.832550,774.019531 370.744110,766.885193 
	C370.554352,751.576416 370.689880,736.247375 369.894073,720.968201 
	C369.388977,711.270264 365.521790,702.855042 355.223297,698.078796 
M416.193970,699.570190 
	C412.627106,702.608887 409.060242,705.647583 405.125549,708.999634 
	C404.652466,706.417786 404.223511,704.316467 403.888306,702.200195 
	C403.034943,696.812378 402.466827,696.716003 394.512238,696.894531 
	C389.581390,697.005310 390.957123,700.332642 390.953674,702.827759 
	C390.897247,743.449890 390.914337,784.072021 390.914856,824.694214 
	C390.914856,826.483276 390.914856,828.272339 390.914856,830.755615 
	C394.729767,830.755615 398.021088,830.568604 401.281525,830.805908 
	C404.851440,831.065674 405.935577,829.575867 405.845978,826.158752 
	C405.475403,812.030334 405.278687,797.897400 405.028595,783.765930 
	C404.995911,781.918396 405.024109,780.069763 405.024109,777.381775 
	C406.533722,778.498291 407.128143,778.802551 407.545349,779.266174 
	C417.651093,790.497803 430.425598,793.002014 444.385254,789.541077 
	C457.594818,786.266052 465.836273,777.134033 469.591431,764.254822 
	C473.479889,750.918396 473.210815,737.391663 470.338593,723.834167 
	C464.533936,696.434875 435.843262,689.421143 416.193970,699.570190 
M218.050339,724.520020 
	C218.050339,722.582092 218.050339,720.644226 218.050339,718.399475 
	C215.780731,718.290955 214.153839,718.148254 212.526703,718.145691 
	C199.371262,718.125000 186.214020,718.011292 173.061386,718.203430 
	C169.276978,718.258728 167.764587,717.387695 167.897766,713.250122 
	C168.202957,703.768066 167.975204,694.269287 168.003830,684.777466 
	C168.008591,683.199219 168.215042,681.621704 168.349945,679.742188 
	C170.929977,679.742188 172.914276,679.741943 174.898560,679.742188 
	C188.720139,679.743591 202.543198,679.838806 216.361313,679.620728 
	C217.973236,679.595276 220.699371,678.061035 220.935410,676.843628 
	C221.575836,673.540466 221.155106,670.031555 221.155106,666.514893 
	C198.030624,666.514893 175.666992,666.514893 153.235703,666.514893 
	C153.235703,707.487061 153.235703,748.031555 153.235703,788.698792 
	C175.947983,788.698792 198.324936,788.698792 221.185181,788.698792 
	C221.185181,786.053589 220.932953,783.723145 221.237473,781.467896 
	C221.879440,776.713562 219.802139,775.640564 215.351944,775.722961 
	C201.368698,775.981934 187.375809,775.691650 173.390503,775.888062 
	C169.372452,775.944519 167.807205,774.895081 167.903641,770.604370 
	C168.165482,758.953491 167.979385,747.292786 168.008682,735.636169 
	C168.012222,734.224792 168.247650,732.813965 168.398865,731.146179 
	C177.058456,731.146179 185.203903,731.146179 193.349350,731.146179 
	C201.436066,731.146179 209.522781,731.146179 218.050385,731.146179 
	C218.050385,728.732422 218.050385,727.099487 218.050339,724.520020 
M604.499451,745.900208 
	C609.827637,745.894287 615.161133,745.742920 620.481873,745.938477 
	C623.535645,746.050781 624.818115,744.803589 624.703247,741.920288 
	C624.577576,738.767456 624.263184,735.620728 624.184631,732.467529 
	C623.724060,713.976013 611.972351,697.763123 591.483704,695.269836 
	C574.923157,693.254578 557.736816,702.258118 550.999817,717.377869 
	C544.985046,730.876709 544.341797,744.890686 547.458130,758.897095 
	C550.471130,772.438782 558.324402,782.647278 571.958435,787.565430 
	C587.471252,793.161133 602.685852,791.292114 617.748291,785.840637 
	C618.841858,785.444885 620.308533,784.215820 620.401794,783.257507 
	C620.728027,779.903442 620.528137,776.498169 620.528137,772.415771 
	C618.022644,773.101868 616.341858,773.732544 614.604675,774.009338 
	C605.951721,775.388062 597.263367,777.882019 588.625549,777.735962 
	C571.603088,777.448120 561.180725,765.946838 561.713440,745.900085 
	C575.626282,745.900085 589.562988,745.900085 604.499451,745.900208 
M941.506470,734.042542 
	C930.140259,734.235718 918.822571,734.929932 908.439087,740.162354 
	C900.015442,744.407288 894.670959,751.084839 894.070984,760.830200 
	C893.459290,770.766602 895.227234,779.798767 904.343689,785.776245 
	C917.082092,794.128540 938.000977,792.177429 948.849548,781.509338 
	C950.593750,779.794189 951.954041,777.688538 953.491760,775.763428 
	C955.725586,780.155396 955.499512,784.886719 957.751953,787.134583 
	C959.900146,789.278503 964.631897,788.833679 968.749878,789.627502 
	C968.749878,766.067749 969.209900,743.921143 968.559082,721.807312 
	C968.225403,710.470947 963.001343,701.097168 951.214722,697.461426 
	C936.154053,692.816101 921.578430,695.507996 907.469116,701.560547 
	C906.314514,702.055847 905.012207,704.450378 905.288452,705.599182 
	C905.996216,708.541809 907.555664,711.279541 908.336609,713.086121 
	C916.708923,711.148193 924.185425,708.956360 931.817749,707.753113 
	C945.105286,705.658386 952.462769,711.582825 953.937256,724.803101 
	C954.909119,733.516541 954.643188,733.822632 945.983215,733.965576 
	C944.817200,733.984802 943.651123,734.007874 941.506470,734.042542 
M729.594604,710.980225 
	C735.594543,709.747314 741.545654,708.103394 747.606506,707.383972 
	C755.440796,706.454102 763.349304,710.531921 765.186646,716.749451 
	C766.737732,721.998291 766.933655,727.647583 767.870361,734.088745 
	C760.875671,734.088745 755.238098,733.807617 749.638794,734.150452 
	C739.666382,734.761169 729.718994,735.744507 720.682434,740.656067 
	C710.215820,746.344910 706.336853,755.469910 707.144653,766.913940 
	C707.932556,778.075745 713.615112,785.817749 724.398254,788.903076 
	C738.904480,793.053711 752.422974,791.534668 763.537415,780.037842 
	C764.651855,778.885071 765.869080,777.831726 767.755127,776.058533 
	C768.921204,780.452209 768.857544,785.042786 771.121033,787.310120 
	C773.168762,789.361389 777.757324,788.876221 781.676025,789.591675 
	C781.676025,765.954346 782.076599,743.644348 781.510071,721.358887 
	C781.218811,709.901550 775.948303,701.009705 763.962158,697.407654 
	C751.472473,693.654236 739.186951,694.786621 727.225525,699.073181 
	C716.021057,703.088440 716.267151,700.506775 721.311340,712.857056 
	C721.474548,713.256714 721.976135,713.518188 722.448120,713.965515 
	C724.599731,713.036011 726.721741,712.119202 729.594604,710.980225 
M633.994812,717.780334 
	C633.231750,728.154541 637.970825,735.342468 646.994934,739.931030 
	C650.995850,741.965393 655.137146,743.722412 659.198547,745.639526 
	C666.106018,748.900208 673.299683,751.690125 679.817261,755.603577 
	C686.413452,759.564148 687.252808,768.871765 681.613281,773.550171 
	C678.830688,775.858459 674.906189,777.199036 671.282227,778.004150 
	C662.090271,780.046143 653.102722,778.297791 644.303528,775.390991 
	C641.055359,774.317932 637.809021,773.239685 634.307556,772.079590 
	C634.185669,773.603516 634.051392,774.587524 634.039551,775.573059 
	C634.013428,777.738953 633.711426,779.980835 634.171936,782.046875 
	C634.509216,783.559998 635.588257,785.656311 636.835876,786.105103 
	C653.864319,792.230957 670.896606,793.505676 687.657227,785.112732 
	C696.251953,780.808899 699.464478,773.129395 699.671448,764.147827 
	C699.879333,755.130676 696.009705,747.894226 687.863647,743.673279 
	C681.671753,740.464844 675.076599,738.044922 668.768555,735.047485 
	C662.941528,732.278564 656.738525,729.902161 651.644714,726.091675 
	C645.559448,721.539551 647.034241,712.614380 654.181702,709.987488 
	C659.028259,708.206116 664.605591,707.157288 669.699036,707.597534 
	C677.372864,708.260864 684.909363,710.512024 692.967773,712.184326 
	C694.043701,709.719360 695.547974,706.917603 696.416199,703.930969 
	C696.716125,702.898987 695.739441,700.585938 694.829529,700.247925 
	C679.776184,694.655701 664.485779,692.629822 649.035583,698.596008 
	C640.684998,701.820618 635.158508,707.618774 633.994812,717.780334 
M20.065733,358.316071 
	C40.467556,369.761414 60.869381,381.206726 81.897293,393.003296 
	C87.549660,382.282196 93.666725,372.337219 98.181953,361.711578 
	C104.344788,347.208649 100.481995,332.570404 88.782509,321.703339 
	C81.487900,314.927765 72.972786,310.048218 63.310951,307.572021 
	C49.534500,304.041260 36.452614,306.141907 27.403811,317.458771 
	C19.325075,327.562439 13.319356,339.323700 6.203026,350.665649 
	C11.300434,353.483124 15.357034,355.725342 20.065733,358.316071 
M810.850037,164.655289 
	C818.550354,170.767639 826.859253,172.182037 836.282043,167.712173 
	C834.809021,171.333969 833.026550,174.400665 831.200012,177.440857 
	C825.126160,187.550262 817.657593,189.527390 807.258057,183.931122 
	C800.149292,180.105698 796.206543,174.173248 795.537109,165.922668 
	C792.235657,166.200653 789.467773,166.433716 786.543945,166.679901 
	C786.543945,167.841812 786.435608,168.658707 786.560059,169.438431 
	C788.601929,182.230225 799.359558,192.305130 814.263062,195.419586 
	C824.213440,197.498978 831.951538,194.300217 837.412842,185.751907 
	C839.292480,182.809784 841.029419,179.775085 842.790527,176.758759 
	C852.331787,160.416733 861.860291,144.067215 871.593628,127.376518 
	C868.839111,125.704353 866.388184,124.216515 863.850586,122.676003 
	C861.835144,125.858139 860.191772,128.452972 858.018799,131.883926 
	C857.597351,130.013931 857.377930,129.258957 857.260925,128.488434 
	C855.158325,114.644806 843.472290,106.054688 829.716614,108.618408 
	C814.371155,111.478409 806.818787,122.604362 802.409790,136.173721 
	C798.912231,146.937897 801.649841,156.553497 810.850037,164.655289 
M540.975525,40.853661 
	C531.136719,29.411955 512.274658,31.698324 503.507935,45.395290 
	C495.450592,57.983902 496.647430,78.837120 505.911957,90.638222 
	C515.820740,103.259918 537.555115,103.456413 544.114197,89.670403 
	C544.421692,89.024086 545.113586,88.560654 546.497070,87.080750 
	C546.733093,91.255836 546.904968,94.296333 547.104919,97.833679 
	C550.220764,97.601479 553.100708,97.386864 556.196045,97.156197 
	C554.970276,68.464745 553.765747,40.270237 552.569885,12.279707 
	C549.081299,12.279707 546.185852,12.279707 543.634277,12.279707 
	C543.634277,22.839430 543.634277,32.978451 543.634277,43.768444 
	C542.582397,42.646534 542.029236,42.056503 540.975525,40.853661 
M1003.906311,712.500000 
	C1003.908752,696.022827 1003.985901,679.544800 1003.797668,663.069824 
	C1003.778992,661.434448 1002.326599,658.581299 1001.221741,658.415771 
	C997.365234,657.837952 993.368958,658.192139 989.296143,658.192139 
	C989.296143,702.123657 989.296143,745.418640 989.296143,788.672729 
	C994.308228,788.672729 998.871887,788.672729 1003.906555,788.672729 
	C1003.906555,763.360840 1003.906555,738.430420 1003.906311,712.500000 
M503.161285,765.500000 
	C503.163025,757.005127 503.022186,748.507141 503.206116,740.016235 
	C503.395050,731.295532 505.727783,723.277466 511.908600,716.733032 
	C519.602600,708.586426 529.252686,707.813721 540.176941,709.681335 
	C540.848816,705.141113 541.482788,700.857300 542.128357,696.494812 
	C533.913452,694.386108 526.215027,693.842041 519.609863,697.948792 
	C513.333252,701.851318 508.000305,707.271545 502.264893,712.014038 
	C502.027405,710.352600 501.724792,708.101257 501.381378,705.856140 
	C499.876007,696.013855 499.817139,695.971375 489.603577,697.156921 
	C489.306488,697.191345 489.035095,697.447388 488.544495,697.711670 
	C488.544495,727.968506 488.544495,758.325012 488.544495,788.718140 
	C493.522003,788.718140 498.102722,788.718140 503.161743,788.718140 
	C503.161743,781.091125 503.161743,773.795532 503.161285,765.500000 
M809.497437,789.051392 
	C811.899048,789.051392 814.300659,789.051392 816.963135,789.051392 
	C816.963135,771.454407 816.935181,754.805542 816.971375,738.156799 
	C817.003967,723.188416 828.291565,706.867737 847.583374,708.909485 
	C849.522034,709.114685 851.469116,709.240906 853.734680,709.430847 
	C854.414001,705.061646 855.063965,700.881287 855.706116,696.751099 
	C840.318420,692.472778 833.828491,695.165894 816.039062,713.341309 
	C815.273499,707.669067 814.584045,702.561401 813.888977,697.411743 
	C809.762024,697.411743 806.053101,697.411743 802.312805,697.411743 
	C802.312805,728.079529 802.312805,758.303284 802.312805,789.051514 
	C804.616882,789.051514 806.579956,789.051514 809.497437,789.051392 
M606.104004,101.543671 
	C615.112244,100.573799 621.964539,96.497833 626.229431,87.808357 
	C623.076538,86.611626 620.339355,85.572670 617.715942,84.576912 
	C609.983459,93.392654 601.430969,95.450577 592.253357,90.909622 
	C584.587219,87.116547 580.687134,78.872658 582.479248,69.872131 
	C597.747437,71.146835 613.052063,72.424583 628.815552,73.740639 
	C628.815552,68.493355 629.178467,64.147064 628.742554,59.882423 
	C627.729431,49.970833 623.286743,41.973255 613.825867,37.905453 
	C604.056213,33.704861 594.244385,33.875370 585.332336,40.290264 
	C574.023743,48.430202 568.989502,67.897148 574.075073,82.582764 
	C578.547058,95.496536 588.995178,101.894188 606.104004,101.543671 
M140.014572,202.513718 
	C128.991394,213.242081 127.005386,225.449432 135.041718,238.537659 
	C138.106506,243.529099 142.240952,248.218918 146.831940,251.853912 
	C162.948227,264.614258 183.339081,259.879059 192.700989,241.561981 
	C196.109924,234.892273 196.371567,228.036697 193.286118,220.586502 
	C190.197586,222.339386 187.658783,223.780258 185.234055,225.156403 
	C186.988571,236.576096 183.275803,244.116013 174.006744,248.436768 
	C166.150803,252.098785 157.320450,249.854996 150.640518,241.885986 
	C161.554123,231.164810 172.533997,220.378555 183.499191,209.606705 
	C169.351532,193.785324 155.126953,191.328873 140.014572,202.513718 
M764.864380,111.439842 
	C774.328857,115.420647 783.793335,119.401451 794.001831,123.695190 
	C795.652161,118.315460 797.687744,113.546715 798.538391,108.575203 
	C801.762939,89.729980 784.513550,73.431549 765.952698,77.869614 
	C750.141418,81.650230 743.037476,93.594139 740.010376,108.243324 
	C735.420959,130.453659 752.473816,143.114868 769.777161,143.737289 
	C776.415222,143.976074 782.298462,141.589203 787.109558,136.223373 
	C784.482544,134.117020 782.174988,132.266846 779.953430,130.485611 
	C770.298279,136.648422 762.552490,136.259155 754.705322,129.414764 
	C747.976257,123.545563 746.487732,114.711922 750.916260,105.652824 
	C755.313354,107.476883 759.736694,109.311829 764.864380,111.439842 
M433.709534,639.056946 
	C443.021240,641.739563 450.895691,639.734253 456.837402,630.920654 
	C458.865234,644.270630 457.090942,650.388489 450.718323,653.541870 
	C442.808014,657.456299 434.431122,655.449463 426.246948,647.492493 
	C424.337250,648.842163 422.385010,650.221924 420.466248,651.578003 
	C426.352631,660.954468 437.258392,664.493347 449.971741,661.554199 
	C459.879517,659.263550 465.130432,653.018127 465.253296,642.827515 
	C465.407776,630.011292 465.303253,617.191895 465.308777,604.373901 
	C465.311188,598.739746 465.309204,593.105652 465.309204,587.377319 
	C462.591248,587.377319 460.338989,587.377319 457.910522,587.377319 
	C457.721954,590.113708 457.550293,592.604614 457.338959,595.671448 
	C446.792511,585.086609 436.252960,583.950134 426.886047,591.179565 
	C414.713776,600.574280 413.185760,632.232971 433.709534,639.056946 
M916.601562,197.124802 
	C918.211670,194.041138 920.184326,191.089783 921.366516,187.849976 
	C925.578430,176.307632 922.851685,165.045013 914.277344,157.277420 
	C904.926147,148.805969 893.530884,146.720367 882.970276,152.182571 
	C871.090332,158.327133 863.372070,168.028122 860.875488,181.303284 
	C857.266357,200.494492 875.481689,217.800171 894.539856,213.494781 
	C904.013428,211.354630 910.732727,205.392776 916.601562,197.124802 
M988.394897,279.880707 
	C985.498474,282.837341 982.124451,285.462311 979.796997,288.814056 
	C973.310547,298.155212 972.184509,308.166779 977.851196,318.372284 
	C983.390198,328.347992 991.847778,334.241547 1003.416992,333.462891 
	C1018.062256,332.477234 1029.364014,325.011322 1036.211792,312.130798 
	C1045.167236,295.286133 1034.267700,274.283142 1015.436096,271.377747 
	C1005.452087,269.837402 996.895996,273.830353 988.394897,279.880707 
M328.161957,86.757866 
	C323.300568,102.751381 327.863464,116.512207 339.201141,127.863823 
	C346.998566,135.670822 356.962860,137.258881 367.462524,133.390961 
	C378.249207,129.417313 384.825745,121.869621 386.061768,110.256721 
	C387.167786,99.865456 384.237427,90.392929 378.227051,82.013306 
	C364.665771,63.106281 338.992065,65.252060 328.161957,86.757866 
M679.230347,111.852943 
	C682.268127,101.149261 685.217651,90.419289 688.394226,79.756943 
	C689.427429,76.288666 690.631714,72.740112 692.496094,69.677780 
	C696.476379,63.139980 704.645691,61.095917 712.381714,64.201805 
	C719.176514,66.929802 722.398560,73.081650 720.876587,80.861427 
	C720.271545,83.954132 719.225525,86.960693 718.378174,90.005890 
	C715.446472,100.541824 712.513977,111.077515 709.529358,121.801498 
	C712.850159,122.700439 715.659363,123.460899 718.735229,124.293549 
	C722.797180,109.695831 727.022827,95.725380 730.523865,81.575615 
	C733.836304,68.188232 726.080994,57.397148 712.421143,55.260796 
	C705.467224,54.173222 699.355652,55.811665 693.787598,60.539944 
	C694.441284,57.547920 695.094971,54.555893 695.788879,51.379837 
	C692.825684,50.521690 690.188538,49.757957 687.193237,48.890514 
	C681.352722,69.646217 675.613464,90.041885 669.732605,110.941025 
	C673.178711,111.556335 676.038391,112.066933 679.230347,111.852943 
M408.607513,54.119350 
	C406.765106,57.047016 404.922729,59.974682 402.791473,63.361328 
	C401.866577,59.997593 401.090515,57.175201 400.213867,53.986969 
	C397.242767,54.644264 394.557587,55.238312 391.365143,55.944584 
	C396.422363,76.971092 401.371552,97.548515 406.399292,118.452538 
	C409.641510,117.682037 412.470093,117.009834 415.485565,116.293221 
	C415.178192,114.690788 415.006531,113.556236 414.740234,112.444359 
	C411.951508,100.801125 408.991425,89.196205 406.396179,77.510193 
	C404.226349,67.739677 409.414368,59.569244 418.756927,57.351608 
	C427.669983,55.235924 434.408997,59.742088 437.035492,69.745773 
	C438.513214,75.374054 439.734528,81.069214 441.114075,86.723824 
	C442.901978,94.052063 444.732452,101.369911 446.586426,108.861237 
	C449.962585,108.001457 452.636017,107.320625 455.721588,106.534843 
	C452.291931,92.357994 449.370728,78.369324 445.475250,64.657433 
	C440.420349,46.864227 423.874695,42.064285 408.607513,54.119350 
M1049.329224,375.849670 
	C1049.346069,374.036346 1049.655151,372.168243 1049.327515,370.419495 
	C1048.137085,364.068176 1046.662720,357.770508 1045.434692,351.425659 
	C1044.590576,347.064911 1044.995728,342.947021 1049.550537,340.715668 
	C1054.267212,338.405090 1058.082031,340.710510 1061.094849,344.025299 
	C1066.963501,350.482117 1068.529785,357.639069 1063.201538,364.907623 
	C1065.378662,367.264679 1067.246094,369.286499 1069.272827,371.480652 
	C1075.208618,364.525757 1076.849243,357.116852 1073.619141,348.922455 
	C1070.104980,340.007446 1064.629517,332.818176 1054.563721,331.043945 
	C1051.635498,330.527771 1048.165405,331.102844 1045.363159,332.224854 
	C1036.792480,335.656494 1033.924683,343.187225 1036.435547,354.439545 
	C1037.591431,359.619659 1039.066650,364.734467 1040.057373,369.943512 
	C1040.792480,373.808472 1039.747925,377.297699 1035.994995,379.317352 
	C1032.069458,381.429932 1028.520264,380.065613 1025.347168,377.596893 
	C1016.966003,371.076172 1015.463867,361.353119 1021.580383,352.282043 
	C1019.688721,350.168091 1017.735046,347.984802 1015.720947,345.733978 
	C1011.174866,349.205811 1008.978821,353.527130 1008.491638,358.724640 
	C1007.454773,369.786560 1015.947327,383.923676 1026.179688,388.296417 
	C1036.487427,392.701416 1046.908203,387.431396 1049.329224,375.849670 
M239.366806,178.828415 
	C238.157196,180.654083 235.638535,182.743958 235.945251,184.263580 
	C238.380112,196.326889 226.683167,206.806427 214.556519,204.108124 
	C202.330826,201.387787 191.060394,185.528351 192.705536,173.099396 
	C194.015457,163.203125 204.477417,155.416229 213.340790,158.960373 
	C219.220734,161.311569 222.185455,158.859512 226.284866,154.796600 
	C223.235168,153.131332 220.563400,151.119217 217.555176,150.124176 
	C203.432098,145.452530 186.145813,156.338409 183.739746,171.479523 
	C181.329498,186.647064 188.280823,198.047440 199.595917,206.997772 
	C212.700562,217.363693 228.189285,215.666962 239.339508,203.290359 
	C246.064362,195.825867 247.345856,185.192749 242.403015,176.807373 
	C241.575073,177.324127 240.751709,177.838013 239.366806,178.828415 
M289.803802,156.553589 
	C284.492432,167.266403 273.211670,171.078354 263.550629,164.856583 
	C254.534576,159.050171 249.178604,150.477020 248.419907,139.686859 
	C247.488556,126.441521 260.787140,116.074348 271.772308,121.868454 
	C277.520142,124.900139 280.316528,122.327034 284.248199,119.305687 
	C277.678253,111.978020 269.848083,109.771416 260.962616,112.163216 
	C250.320450,115.027885 242.244156,121.266312 239.908249,132.538666 
	C236.754013,147.760101 242.892990,160.053772 254.141937,169.716354 
	C266.685883,180.491272 283.218567,178.806625 294.223480,166.382492 
	C300.285248,159.538971 301.774597,149.677795 297.741516,143.088364 
	C291.270782,146.483047 291.276428,146.483704 290.480469,153.299500 
	C290.384186,154.123840 290.187073,154.936417 289.803802,156.553589 
M970.308716,207.216003 
	C963.553223,199.576248 955.104736,195.382263 944.982544,197.423904 
	C929.943726,200.457230 919.706848,209.898682 914.664917,224.257416 
	C909.533142,238.871780 918.354065,255.199692 933.233521,259.642365 
	C940.389160,261.778870 947.158386,260.978577 953.335449,256.329315 
	C950.157349,251.780106 947.256409,249.627716 941.289612,251.051041 
	C932.373779,253.177780 923.122314,244.664688 922.557495,235.313293 
	C921.763062,222.158157 936.365234,206.392502 949.602173,206.113907 
	C959.922485,205.896698 969.960876,215.825775 967.332275,224.965179 
	C965.465820,231.454697 968.773621,233.778076 972.544373,236.923706 
	C979.168823,227.501099 978.558655,218.456329 970.308716,207.216003 
M879.826843,774.494141 
	C879.825256,763.169434 879.823364,751.844788 879.822205,740.520081 
	C879.820801,727.530029 879.898499,714.538818 879.714417,701.551331 
	C879.692688,700.024170 878.379883,697.327087 877.415466,697.208618 
	C873.399292,696.715271 869.287476,697.001099 865.269531,697.001099 
	C865.269531,728.114136 865.269531,758.342590 865.269531,789.053955 
	C867.924133,789.053955 870.218384,789.053955 872.512634,789.053955 
	C874.775146,789.053955 877.037720,789.053955 879.825317,789.053955 
	C879.825317,784.087036 879.825317,779.788635 879.826843,774.494141 
M178.338806,628.060364 
	C175.855865,627.806763 173.528503,625.339478 171.044067,629.062500 
	C167.140182,634.912598 159.275589,636.509583 152.212387,633.758606 
	C145.686584,631.216919 141.724258,624.471680 142.476624,616.506836 
	C155.278152,616.506836 168.147400,616.506836 181.306763,616.506836 
	C181.146591,612.934204 181.218857,609.930115 180.842651,606.983215 
	C179.486710,596.362366 172.833221,588.844299 163.371628,587.005249 
	C152.472183,584.886658 142.601547,589.006409 137.827942,598.175171 
	C132.411911,608.577820 132.219101,619.382263 137.435440,629.854126 
	C144.216675,643.467468 165.424896,646.596619 175.967850,635.608643 
	C177.680206,633.824036 178.067764,630.768250 178.338806,628.060364 
M492.577332,622.285400 
	C491.329926,629.319031 492.990936,635.527893 499.379730,639.103821 
	C509.287140,644.649109 518.639709,643.365967 526.750793,634.410828 
	C527.020508,636.990906 527.218445,638.884094 527.418701,640.799561 
	C530.070862,640.799561 532.362305,640.799561 534.829712,640.799561 
	C534.829712,627.324524 535.158203,614.037781 534.685913,600.779541 
	C534.462280,594.501953 530.526489,589.937683 524.384460,587.948303 
	C517.154724,585.606628 509.746765,585.561707 503.042664,589.211426 
	C499.407654,591.190369 496.639191,594.761169 493.230316,597.839233 
	C498.386230,601.278564 501.434235,601.505493 504.942444,597.336853 
	C508.793945,592.760254 516.900696,592.137939 522.050781,594.891907 
	C526.109070,597.062073 527.406799,600.761047 526.958496,604.991150 
	C526.515747,609.169434 522.784729,608.519775 519.981079,609.035706 
	C514.261169,610.088196 508.454681,610.781555 502.828186,612.196655 
	C497.992157,613.412964 493.974274,616.086365 492.577332,622.285400 
M400.912079,638.498047 
	C412.483124,630.241699 413.809753,618.467896 411.400513,605.912903 
	C409.038177,593.602539 399.642548,586.292908 387.732605,586.443420 
	C375.617523,586.596497 366.450653,594.424255 364.402527,606.913696 
	C363.712494,611.121643 363.578461,615.583313 364.133972,619.804871 
	C366.603699,638.572205 383.359283,647.310181 400.912079,638.498047 
M304.042694,639.577148 
	C319.942688,646.296814 335.445129,638.807129 338.391022,622.237915 
	C339.463440,616.206177 339.245392,609.448975 337.675690,603.538025 
	C333.250580,586.874756 312.348328,580.834351 299.530579,591.857605 
	C286.738556,602.858643 287.407471,631.076538 304.042694,639.577148 
M239.832520,630.481201 
	C239.832520,633.917236 239.832520,637.353271 239.832520,640.780396 
	C242.750076,640.780396 245.024872,640.780396 247.894211,640.780396 
	C247.894211,630.799500 247.846436,621.016907 247.925812,611.235291 
	C247.947281,608.589355 248.003784,605.857178 248.651550,603.319580 
	C250.338974,596.709106 255.943497,593.116028 263.058136,593.703735 
	C269.606476,594.244690 273.554810,597.905029 274.109131,604.962952 
	C274.629547,611.589294 274.453827,618.272522 274.521179,624.931458 
	C274.574463,630.204102 274.531830,635.477722 274.531830,640.785217 
	C277.430054,640.785217 279.712830,640.785217 281.993195,640.785217 
	C281.993195,627.607239 282.411530,614.614990 281.848633,601.665466 
	C281.462372,592.779907 275.555573,587.575317 266.652252,586.622253 
	C258.991455,585.802124 252.683044,588.189880 247.999649,595.859680 
	C247.731522,592.299683 247.550995,589.902710 247.359787,587.363770 
	C244.797729,587.363770 242.557129,587.363770 239.832611,587.363770 
	C239.832611,601.571045 239.832611,615.527954 239.832520,630.481201 
M110.499001,569.048462 
	C98.730469,569.048462 86.961929,569.048462 75.075562,569.048462 
	C75.075562,571.776550 75.075562,573.892578 75.075562,576.654541 
	C82.673538,576.654541 90.078880,576.654541 97.773148,576.654541 
	C97.773148,598.418823 97.773148,619.539062 97.773148,640.620361 
	C100.662186,640.620361 103.218033,640.620361 106.135239,640.620361 
	C106.135239,619.165466 106.135239,598.074585 106.135239,576.457092 
	C113.743202,576.457092 120.986084,576.457092 128.340164,576.457092 
	C128.340164,573.721924 128.340164,571.525269 128.340164,569.047729 
	C122.456215,569.047729 116.977150,569.047729 110.499001,569.048462 
M197.650284,626.488220 
	C194.114136,618.828186 193.829636,610.956360 197.046799,603.249695 
	C201.551926,592.457703 216.163391,589.777161 222.073135,598.907043 
	C225.023819,603.465576 228.008270,603.465210 232.398514,602.597168 
	C230.936661,595.087280 226.588379,590.418152 219.888580,587.942810 
	C206.951767,583.163086 193.588776,589.027466 189.156494,602.169678 
	C187.356995,607.505310 186.875092,613.640320 187.294647,619.300293 
	C188.382690,633.978088 199.481644,642.983643 214.135498,641.966553 
	C223.637054,641.307068 231.901245,633.648315 231.524139,624.829651 
	C228.852753,625.602478 225.326721,625.518433 224.047531,627.172302 
	C215.925491,637.673096 205.725235,637.850220 197.650284,626.488220 
M112.743034,235.522430 
	C110.882172,236.099335 108.575249,236.170609 107.242615,237.346268 
	C102.940849,241.141296 100.672997,246.023819 101.029655,251.940704 
	C101.149384,253.926865 101.048584,255.926300 101.048584,258.420288 
	C98.544243,256.424713 96.789719,255.026657 94.875832,253.501587 
	C92.795593,256.165070 91.096542,258.340515 89.155487,260.825806 
	C105.918579,274.414520 122.363701,287.745483 138.963562,301.201874 
	C141.302567,298.407410 143.189072,296.153564 145.144562,293.817291 
	C134.704102,285.358337 124.644997,277.178131 114.551811,269.040192 
	C106.244164,262.341888 105.691589,251.810791 113.311310,244.270889 
	C114.228416,243.363388 115.194923,242.505814 116.180191,241.586243 
	C115.069046,239.640244 114.083420,237.914047 112.743034,235.522430 
M964.515259,278.983459 
	C977.698486,267.839691 990.881714,256.695923 1004.225037,245.416840 
	C1002.035156,242.904312 1000.105774,240.690659 997.914490,238.176514 
	C981.404602,252.110672 965.289246,265.711914 948.860474,279.577637 
	C951.108154,282.166534 953.118530,284.482025 955.183716,286.860657 
	C958.376709,284.157288 961.169434,281.792877 964.515259,278.983459 
M104.441551,309.974915 
	C110.637962,314.349731 116.834366,318.724548 123.178871,323.203918 
	C125.131660,320.430908 126.812241,318.044464 128.691116,315.376404 
	C110.972534,302.885468 93.685280,290.698608 76.094795,278.297974 
	C74.184608,281.082275 72.528069,283.496887 70.652184,286.231201 
	C81.905914,294.152863 92.871475,301.871704 104.441551,309.974915 
M313.196320,139.388794 
	C315.398682,143.784744 317.601074,148.180695 319.921570,152.812424 
	C322.997223,151.276764 325.582275,149.986084 328.425934,148.566269 
	C318.884216,129.065582 309.642853,110.178741 300.247162,90.976456 
	C297.005310,92.589355 294.407349,93.881897 291.699768,95.228989 
	C298.930573,110.048599 305.918976,124.371338 313.196320,139.388794 
M355.323639,615.500427 
	C355.323639,600.105042 355.323639,584.709595 355.323639,569.270203 
	C352.280579,569.270203 350.011292,569.270203 347.465118,569.270203 
	C347.465118,593.226685 347.465118,616.930481 347.465118,640.712769 
	C350.166046,640.712769 352.567749,640.712769 355.323944,640.712769 
	C355.323944,632.451294 355.323944,624.475891 355.323639,615.500427 
M484.157043,595.644409 
	C484.157043,592.882812 484.157043,590.121216 484.157043,587.399719 
	C481.247498,587.399719 478.989655,587.399719 476.617920,587.399719 
	C476.617920,605.391357 476.617920,623.082947 476.617920,640.786499 
	C479.311127,640.786499 481.596100,640.786499 484.156982,640.786499 
	C484.156982,625.913818 484.156982,611.260132 484.157043,595.644409 
M864.080383,668.185242 
	C864.600769,671.525635 864.345886,675.273071 865.833130,678.105774 
	C867.795715,681.843811 872.026917,681.751465 875.643555,680.506836 
	C880.085632,678.978210 881.318115,675.230896 881.007263,670.863342 
	C880.706787,666.643188 878.785156,663.512329 874.510376,662.471008 
	C869.877441,661.342346 866.347900,662.924561 864.080383,668.185242 
M347.232971,54.029015 
	C348.290649,49.439434 349.348297,44.849854 350.570099,39.548107 
	C347.391266,40.788048 345.018127,41.524067 342.840210,42.640827 
	C341.699707,43.225658 340.227783,44.373718 340.060425,45.447407 
	C339.094208,51.647179 338.472717,57.900665 337.731323,64.162201 
	C344.663879,64.437721 346.606110,60.342686 347.232971,54.029015 
M56.570950,265.937653 
	C52.507175,268.083923 51.244656,271.451111 53.209854,275.480072 
	C54.802006,278.744202 57.868874,279.659210 61.242485,278.199158 
	C64.720467,276.693909 66.272217,273.881317 65.293686,270.151428 
	C64.213303,266.033264 61.332382,264.740997 56.570950,265.937653 
M294.861786,75.040321 
	C294.453583,74.324043 294.153839,73.089920 293.619141,72.977966 
	C290.770203,72.381447 287.472778,71.062912 285.103424,71.983475 
	C283.339661,72.668770 281.533630,76.648811 281.980713,78.666313 
	C282.430450,80.695801 285.785889,83.611519 287.609406,83.436951 
	C290.152252,83.193512 292.545380,80.548225 294.791901,78.677780 
	C295.310059,78.246384 294.973541,76.788513 294.861786,75.040321 
M1007.891663,230.360947 
	C1008.513916,234.844055 1011.040405,237.321671 1015.610352,237.015808 
	C1019.057617,236.785110 1020.993835,234.626541 1021.109863,231.111206 
	C1021.236267,227.283783 1019.477783,224.641083 1015.642151,223.991180 
	C1011.301208,223.255646 1008.627319,225.244354 1007.891663,230.360947 
M478.330200,579.391418 
	C480.250824,579.182373 483.088409,579.702209 483.933899,578.638489 
	C487.662842,573.947449 490.817780,568.800110 494.180603,563.818054 
	C493.910919,563.459778 493.641235,563.101501 493.371582,562.743225 
	C490.435577,563.363403 486.175079,562.996765 484.829926,564.802124 
	C481.696472,569.007874 479.966431,574.259094 478.330200,579.391418 
z"/>
<path fill="#3BD2FA" opacity="1.000000" stroke="none" 
	d="
M460.678040,356.157776 
	C474.724792,359.096863 485.848297,365.926636 493.697784,377.517700 
	C499.928619,386.718597 502.554749,397.041718 500.072388,407.945923 
	C497.364899,419.838715 499.929169,429.206329 510.268921,436.290710 
	C514.957092,439.502869 516.980469,444.618073 516.993042,450.192535 
	C517.061401,480.521973 517.091858,510.852509 516.880798,541.180908 
	C516.823608,549.403748 512.730957,553.698914 504.530487,554.982056 
	C500.605530,555.596252 496.570709,555.708679 492.585632,555.708862 
	C410.592712,555.712463 328.599701,555.721680 246.607086,555.546143 
	C238.518478,555.528809 230.334015,554.863525 222.389404,553.422180 
	C218.767426,552.765137 214.827209,550.157654 212.390625,547.282776 
	C198.370316,530.740173 184.874954,513.785889 177.848831,492.770325 
	C162.039337,445.482971 167.892853,401.231720 196.438950,360.183533 
	C212.207993,337.508270 233.265274,321.425995 258.774658,311.212219 
	C265.562378,308.494476 268.795319,304.708130 269.504364,297.009155 
	C274.070740,247.425262 316.203125,216.860062 353.314056,212.815201 
	C365.645447,211.471161 377.552307,213.078720 389.335358,216.305130 
	C400.149689,219.266312 401.346039,219.067368 407.730927,210.125885 
	C427.848938,181.952377 452.795471,159.433533 484.287872,144.567871 
	C506.210266,134.219604 529.410278,128.702896 553.438416,126.138611 
	C576.036499,123.726952 598.364441,125.222076 620.409302,130.443924 
	C649.468933,137.327377 675.065369,151.162018 698.049927,170.047165 
	C727.270691,194.056229 749.165344,223.343231 761.367126,259.325531 
	C764.987549,270.001801 767.343445,281.135590 769.791382,292.167877 
	C770.909302,297.206207 773.238586,299.551697 778.408142,300.012451 
	C819.472229,303.672485 855.707581,318.789368 887.032898,345.751251 
	C915.792847,370.505096 937.695435,399.976959 949.452820,436.305847 
	C959.849304,468.429352 961.386719,501.251801 955.788940,534.503906 
	C949.896973,569.503174 935.316833,600.401550 912.817993,627.767639 
	C909.122253,632.262939 904.993408,633.919189 899.464111,633.908203 
	C859.800842,633.829285 820.137451,633.875854 780.474060,633.868164 
	C730.978271,633.858521 681.482422,633.850464 631.986633,633.809082 
	C614.098755,633.794067 610.309692,630.072632 610.198608,612.128784 
	C610.010864,581.799438 609.989136,551.469116 609.815735,521.139709 
	C609.746277,508.982025 609.439636,496.825836 609.279297,484.668457 
	C609.166016,476.077728 611.452637,468.804352 619.024353,463.478363 
	C626.532959,458.196777 628.930176,450.575195 627.194092,441.460327 
	C623.518311,422.160889 629.019897,405.875061 645.165161,394.477905 
	C661.845154,382.703217 680.007202,381.371765 697.874146,391.750610 
	C715.860413,402.198822 728.909668,426.064362 716.799744,452.428253 
	C706.755249,474.295380 683.602539,485.105591 660.445312,478.284851 
	C659.647034,478.049744 658.832397,477.870056 658.025513,477.664215 
	C645.468811,474.461121 639.146484,479.277924 639.093689,492.364380 
	C639.004211,514.528870 639.078247,536.693970 639.066589,558.858765 
	C639.059692,572.024109 638.982544,585.189514 639.011902,598.354736 
	C639.025879,604.603271 640.468323,606.048279 646.676819,606.050659 
	C725.003540,606.080811 803.330322,606.060486 881.656921,606.160889 
	C886.655518,606.167358 890.255188,604.354370 893.142212,600.434692 
	C913.024109,573.442200 924.138367,543.303223 926.242981,509.784515 
	C928.940552,466.821747 917.089294,428.495148 890.091187,394.949310 
	C857.182129,354.059113 814.521667,332.886841 761.945007,331.960663 
	C757.280029,331.878479 752.612549,331.950378 747.946655,331.903442 
	C741.729736,331.840881 740.204712,330.501709 740.213989,324.276550 
	C740.241516,305.780090 737.190430,287.812378 731.235596,270.331879 
	C724.262268,249.861557 713.017151,231.846924 698.963135,215.581970 
	C673.437866,186.040771 641.508423,167.404388 602.995056,160.530380 
	C552.815552,151.574173 507.532776,162.623520 467.275360,194.129898 
	C444.038361,212.315750 427.054260,235.118927 415.688354,262.245026 
	C413.638062,267.138275 412.158295,267.530151 408.700806,263.735046 
	C376.814789,228.735596 315.604767,245.383957 303.440674,289.997284 
	C300.162994,302.018677 300.085571,313.977875 303.790863,325.926849 
	C305.714142,332.129089 304.961975,333.064209 298.653656,334.107208 
	C251.266693,341.941895 219.037262,368.319397 205.951706,414.614624 
	C195.050034,453.183472 204.059753,488.525055 231.084854,518.594604 
	C233.313019,521.073792 237.654373,522.914368 241.020706,522.925171 
	C321.179840,523.183655 401.339935,523.153564 481.499847,523.164612 
	C487.796326,523.165466 488.364227,522.597229 488.334900,516.324829 
	C488.251587,498.494629 488.277313,480.662201 487.981201,462.835297 
	C487.761566,449.613342 481.625641,445.091675 468.972321,448.321991 
	C443.549683,454.812195 423.533112,447.117523 411.491089,426.225403 
	C394.963287,397.550751 414.846588,359.058838 447.857727,355.994263 
	C451.951324,355.614258 456.120270,356.045715 460.678040,356.157776 
M461.042206,420.795013 
	C471.375214,415.133850 474.787811,403.772095 469.188660,393.672791 
	C464.336731,384.921326 453.141541,381.950500 444.093719,387.013397 
	C435.965607,391.561646 432.271637,402.359009 435.960388,410.772034 
	C439.334442,418.467346 449.054688,425.730896 461.042206,420.795013 
M655.655945,438.436981 
	C659.344604,448.333740 668.714783,453.280273 678.751282,450.628998 
	C688.243958,448.121338 693.484680,439.825073 691.975769,429.693970 
	C690.603699,420.481476 681.970398,413.371979 672.592957,413.732208 
	C661.621521,414.153717 653.719849,425.149017 655.655945,438.436981 
z"/>
<path fill="#C7FC62" opacity="1.000000" stroke="none" 
	d="
M572.758423,569.064209 
	C566.539062,569.146667 560.689758,569.721008 554.959290,569.134216 
	C547.726379,568.393616 544.908508,564.728699 545.021484,557.332153 
	C545.123108,550.680603 545.828430,544.035034 545.843506,537.385925 
	C545.962891,484.581299 545.984314,431.776520 546.026306,378.971771 
	C546.031677,372.212311 544.114990,366.329407 537.485046,363.330078 
	C522.786804,356.680634 516.012390,344.151764 513.360046,329.371674 
	C507.253906,295.345673 532.699219,266.694733 567.289612,267.960236 
	C590.934937,268.825287 612.667175,289.170380 615.058411,312.630463 
	C616.878906,330.491638 611.812622,345.827545 598.402222,358.066956 
	C596.720459,359.601837 594.765930,361.033569 592.682495,361.897217 
	C585.320129,364.949097 581.921753,370.425751 581.928162,378.242645 
	C581.947144,401.563599 581.974121,424.884521 581.969727,448.205475 
	C581.962952,484.353119 581.953003,520.500793 581.897095,556.648376 
	C581.884766,564.598022 579.825439,567.391113 572.758423,569.064209 
M562.738464,334.898682 
	C566.178345,333.912933 569.991211,333.565369 572.984802,331.815918 
	C580.492859,327.428192 581.934570,317.949524 576.735168,310.614777 
	C571.540649,303.286926 562.050354,301.407990 555.340881,306.525513 
	C550.092224,310.528809 547.351257,315.687775 548.666199,322.512787 
	C550.083496,329.869385 555.036560,333.380432 562.738464,334.898682 
z"/>
<path fill="#C8F96A" opacity="1.000000" stroke="none" 
	d="
M355.563721,698.247559 
	C365.521790,702.855042 369.388977,711.270264 369.894073,720.968201 
	C370.689880,736.247375 370.554352,751.576416 370.744110,766.885193 
	C370.832550,774.019531 370.759247,781.155884 370.759247,788.667603 
	C365.774872,788.667603 361.230713,788.667603 355.940918,788.667603 
	C355.940918,786.859314 355.940796,785.098022 355.940948,783.336731 
	C355.942444,766.181519 355.995209,749.026062 355.902771,731.871399 
	C355.884064,728.399841 355.567963,724.885803 354.951782,721.470276 
	C353.491486,713.375366 347.490265,708.289490 339.348419,707.905518 
	C321.346649,707.056519 312.175018,715.478943 311.902100,733.633789 
	C311.654297,750.119202 311.825165,766.610901 311.811890,783.099792 
	C311.810425,784.885742 311.811676,786.671753 311.811676,788.755310 
	C306.794067,788.755310 302.364471,788.755310 297.249481,788.755310 
	C297.165771,786.884705 297.007935,784.968445 297.005585,783.052124 
	C296.984009,765.397278 297.080963,747.741516 296.913666,730.088196 
	C296.877899,726.316040 296.545868,722.317932 295.254761,718.829407 
	C291.395569,708.402222 282.622253,706.190063 269.717804,708.635132 
	C262.995453,709.908813 258.205994,714.217102 256.278290,720.736206 
	C254.645782,726.257019 253.295975,732.060608 253.129700,737.777100 
	C252.694092,752.754517 252.973831,767.752808 252.968628,782.742737 
	C252.968002,784.554138 252.968536,786.365540 252.968536,788.616089 
	C248.052567,788.616089 243.493423,788.616089 238.486389,788.616089 
	C238.486389,758.389038 238.486389,728.043152 238.486389,696.871399 
	C242.358398,697.107910 247.226639,695.998047 249.473190,697.932678 
	C251.784637,699.923157 251.539001,704.882996 252.698471,709.743164 
	C260.016235,699.387939 269.691895,694.916260 281.466949,695.131470 
	C293.093811,695.343994 303.085510,698.770142 309.029785,710.663025 
	C321.604492,694.807983 337.233826,691.783081 355.563721,698.247559 
z"/>
<path fill="#C8F96A" opacity="1.000000" stroke="none" 
	d="
M416.516968,699.384888 
	C435.843262,689.421143 464.533936,696.434875 470.338593,723.834167 
	C473.210815,737.391663 473.479889,750.918396 469.591431,764.254822 
	C465.836273,777.134033 457.594818,786.266052 444.385254,789.541077 
	C430.425598,793.002014 417.651093,790.497803 407.545349,779.266174 
	C407.128143,778.802551 406.533722,778.498291 405.024109,777.381775 
	C405.024109,780.069763 404.995911,781.918396 405.028595,783.765930 
	C405.278687,797.897400 405.475403,812.030334 405.845978,826.158752 
	C405.935577,829.575867 404.851440,831.065674 401.281525,830.805908 
	C398.021088,830.568604 394.729767,830.755615 390.914856,830.755615 
	C390.914856,828.272339 390.914856,826.483276 390.914856,824.694214 
	C390.914337,784.072021 390.897247,743.449890 390.953674,702.827759 
	C390.957123,700.332642 389.581390,697.005310 394.512238,696.894531 
	C402.466827,696.716003 403.034943,696.812378 403.888306,702.200195 
	C404.223511,704.316467 404.652466,706.417786 405.125549,708.999634 
	C409.060242,705.647583 412.627106,702.608887 416.516968,699.384888 
M416.794647,711.072266 
	C413.907410,715.012207 409.807220,718.554565 408.360901,722.966797 
	C404.063751,736.075989 404.612793,749.576111 408.470490,762.749268 
	C411.356018,772.602966 418.367554,777.668640 428.223785,778.130920 
	C440.937195,778.727051 448.648010,774.948547 452.745087,765.080933 
	C458.734619,750.655273 458.942841,735.936951 453.135254,721.348511 
	C450.386749,714.444458 445.456116,709.443542 437.931000,708.287170 
	C431.009186,707.223511 423.967407,707.232849 416.794647,711.072266 
z"/>
<path fill="#C8F967" opacity="1.000000" stroke="none" 
	d="
M218.050354,724.993286 
	C218.050385,727.099487 218.050385,728.732422 218.050385,731.146179 
	C209.522781,731.146179 201.436066,731.146179 193.349350,731.146179 
	C185.203903,731.146179 177.058456,731.146179 168.398865,731.146179 
	C168.247650,732.813965 168.012222,734.224792 168.008682,735.636169 
	C167.979385,747.292786 168.165482,758.953491 167.903641,770.604370 
	C167.807205,774.895081 169.372452,775.944519 173.390503,775.888062 
	C187.375809,775.691650 201.368698,775.981934 215.351944,775.722961 
	C219.802139,775.640564 221.879440,776.713562 221.237473,781.467896 
	C220.932953,783.723145 221.185181,786.053589 221.185181,788.698792 
	C198.324936,788.698792 175.947983,788.698792 153.235703,788.698792 
	C153.235703,748.031555 153.235703,707.487061 153.235703,666.514893 
	C175.666992,666.514893 198.030624,666.514893 221.155106,666.514893 
	C221.155106,670.031555 221.575836,673.540466 220.935410,676.843628 
	C220.699371,678.061035 217.973236,679.595276 216.361313,679.620728 
	C202.543198,679.838806 188.720139,679.743591 174.898560,679.742188 
	C172.914276,679.741943 170.929977,679.742188 168.349945,679.742188 
	C168.215042,681.621704 168.008591,683.199219 168.003830,684.777466 
	C167.975204,694.269287 168.202957,703.768066 167.897766,713.250122 
	C167.764587,717.387695 169.276978,718.258728 173.061386,718.203430 
	C186.214020,718.011292 199.371262,718.125000 212.526703,718.145691 
	C214.153839,718.148254 215.780731,718.290955 218.050339,718.399475 
	C218.050339,720.644226 218.050339,722.582092 218.050354,724.993286 
z"/>
<path fill="#C8F96A" opacity="1.000000" stroke="none" 
	d="
M603.999634,745.900146 
	C589.562988,745.900085 575.626282,745.900085 561.713440,745.900085 
	C561.180725,765.946838 571.603088,777.448120 588.625549,777.735962 
	C597.263367,777.882019 605.951721,775.388062 614.604675,774.009338 
	C616.341858,773.732544 618.022644,773.101868 620.528137,772.415771 
	C620.528137,776.498169 620.728027,779.903442 620.401794,783.257507 
	C620.308533,784.215820 618.841858,785.444885 617.748291,785.840637 
	C602.685852,791.292114 587.471252,793.161133 571.958435,787.565430 
	C558.324402,782.647278 550.471130,772.438782 547.458130,758.897095 
	C544.341797,744.890686 544.985046,730.876709 550.999817,717.377869 
	C557.736816,702.258118 574.923157,693.254578 591.483704,695.269836 
	C611.972351,697.763123 623.724060,713.976013 624.184631,732.467529 
	C624.263184,735.620728 624.577576,738.767456 624.703247,741.920288 
	C624.818115,744.803589 623.535645,746.050781 620.481873,745.938477 
	C615.161133,745.742920 609.827637,745.894287 603.999634,745.900146 
M605.905151,718.786926 
	C601.518311,708.146667 589.225647,705.262512 578.273987,708.494751 
	C568.337708,711.427307 561.212280,722.832275 562.402527,733.690552 
	C577.712646,733.690552 593.061096,733.690552 609.702026,733.690552 
	C608.456421,728.571533 607.349915,724.024109 605.905151,718.786926 
z"/>
<path fill="#C9F96B" opacity="1.000000" stroke="none" 
	d="
M941.995789,734.035889 
	C943.651123,734.007874 944.817200,733.984802 945.983215,733.965576 
	C954.643188,733.822632 954.909119,733.516541 953.937256,724.803101 
	C952.462769,711.582825 945.105286,705.658386 931.817749,707.753113 
	C924.185425,708.956360 916.708923,711.148193 908.336609,713.086121 
	C907.555664,711.279541 905.996216,708.541809 905.288452,705.599182 
	C905.012207,704.450378 906.314514,702.055847 907.469116,701.560547 
	C921.578430,695.507996 936.154053,692.816101 951.214722,697.461426 
	C963.001343,701.097168 968.225403,710.470947 968.559082,721.807312 
	C969.209900,743.921143 968.749878,766.067749 968.749878,789.627502 
	C964.631897,788.833679 959.900146,789.278503 957.751953,787.134583 
	C955.499512,784.886719 955.725586,780.155396 953.491760,775.763428 
	C951.954041,777.688538 950.593750,779.794189 948.849548,781.509338 
	C938.000977,792.177429 917.082092,794.128540 904.343689,785.776245 
	C895.227234,779.798767 893.459290,770.766602 894.070984,760.830200 
	C894.670959,751.084839 900.015442,744.407288 908.439087,740.162354 
	C918.822571,734.929932 930.140259,734.235718 941.995789,734.035889 
M932.537903,778.154297 
	C948.895325,775.615845 956.661133,762.766846 953.013916,744.011963 
	C941.794678,744.132751 930.490845,743.964478 919.696167,747.956970 
	C912.794556,750.509766 908.534180,757.736694 909.281067,764.957336 
	C910.061890,772.505066 913.812622,776.692139 921.868530,778.156128 
	C925.049438,778.734192 928.418091,778.279480 932.537903,778.154297 
z"/>
<path fill="#C9F96B" opacity="1.000000" stroke="none" 
	d="
M729.219238,711.091309 
	C726.721741,712.119202 724.599731,713.036011 722.448120,713.965515 
	C721.976135,713.518188 721.474548,713.256714 721.311340,712.857056 
	C716.267151,700.506775 716.021057,703.088440 727.225525,699.073181 
	C739.186951,694.786621 751.472473,693.654236 763.962158,697.407654 
	C775.948303,701.009705 781.218811,709.901550 781.510071,721.358887 
	C782.076599,743.644348 781.676025,765.954346 781.676025,789.591675 
	C777.757324,788.876221 773.168762,789.361389 771.121033,787.310120 
	C768.857544,785.042786 768.921204,780.452209 767.755127,776.058533 
	C765.869080,777.831726 764.651855,778.885071 763.537415,780.037842 
	C752.422974,791.534668 738.904480,793.053711 724.398254,788.903076 
	C713.615112,785.817749 707.932556,778.075745 707.144653,766.913940 
	C706.336853,755.469910 710.215820,746.344910 720.682434,740.656067 
	C729.718994,735.744507 739.666382,734.761169 749.638794,734.150452 
	C755.238098,733.807617 760.875671,734.088745 767.870361,734.088745 
	C766.933655,727.647583 766.737732,721.998291 765.186646,716.749451 
	C763.349304,710.531921 755.440796,706.454102 747.606506,707.383972 
	C741.545654,708.103394 735.594543,709.747314 729.219238,711.091309 
M757.810303,773.440613 
	C767.421387,765.839233 767.494629,755.378174 766.785767,743.598389 
	C758.206421,744.257202 749.958679,744.506836 741.841797,745.669678 
	C737.535828,746.286621 733.119629,747.910706 729.353394,750.108582 
	C723.442749,753.557739 721.182495,760.966797 723.195374,768.668396 
	C724.775452,774.713989 729.512634,777.135437 735.299866,778.232300 
	C743.240906,779.737488 750.385315,777.725464 757.810303,773.440613 
z"/>
<path fill="#C8F96A" opacity="1.000000" stroke="none" 
	d="
M634.023315,717.341187 
	C635.158508,707.618774 640.684998,701.820618 649.035583,698.596008 
	C664.485779,692.629822 679.776184,694.655701 694.829529,700.247925 
	C695.739441,700.585938 696.716125,702.898987 696.416199,703.930969 
	C695.547974,706.917603 694.043701,709.719360 692.967773,712.184326 
	C684.909363,710.512024 677.372864,708.260864 669.699036,707.597534 
	C664.605591,707.157288 659.028259,708.206116 654.181702,709.987488 
	C647.034241,712.614380 645.559448,721.539551 651.644714,726.091675 
	C656.738525,729.902161 662.941528,732.278564 668.768555,735.047485 
	C675.076599,738.044922 681.671753,740.464844 687.863647,743.673279 
	C696.009705,747.894226 699.879333,755.130676 699.671448,764.147827 
	C699.464478,773.129395 696.251953,780.808899 687.657227,785.112732 
	C670.896606,793.505676 653.864319,792.230957 636.835876,786.105103 
	C635.588257,785.656311 634.509216,783.559998 634.171936,782.046875 
	C633.711426,779.980835 634.013428,777.738953 634.039551,775.573059 
	C634.051392,774.587524 634.185669,773.603516 634.307556,772.079590 
	C637.809021,773.239685 641.055359,774.317932 644.303528,775.390991 
	C653.102722,778.297791 662.090271,780.046143 671.282227,778.004150 
	C674.906189,777.199036 678.830688,775.858459 681.613281,773.550171 
	C687.252808,768.871765 686.413452,759.564148 679.817261,755.603577 
	C673.299683,751.690125 666.106018,748.900208 659.198547,745.639526 
	C655.137146,743.722412 650.995850,741.965393 646.994934,739.931030 
	C637.970825,735.342468 633.231750,728.154541 634.023315,717.341187 
z"/>
<path fill="#0C0C0C" opacity="1.000000" stroke="none" 
	d="
M19.739683,358.141785 
	C15.357034,355.725342 11.300434,353.483124 6.203026,350.665649 
	C13.319356,339.323700 19.325075,327.562439 27.403811,317.458771 
	C36.452614,306.141907 49.534500,304.041260 63.310951,307.572021 
	C72.972786,310.048218 81.487900,314.927765 88.782509,321.703339 
	C100.481995,332.570404 104.344788,347.208649 98.181953,361.711578 
	C93.666725,372.337219 87.549660,382.282196 81.897293,393.003296 
	C60.869381,381.206726 40.467556,369.761414 19.739683,358.141785 
M56.943794,316.107727 
	C49.012444,315.208313 40.994938,315.831116 35.662613,322.118896 
	C29.436069,329.461060 24.500664,337.898163 18.802885,346.153168 
	C39.565319,357.758087 58.998119,368.619812 78.979424,379.788116 
	C82.643066,372.711731 86.733963,366.184418 89.502243,359.137573 
	C93.547394,348.840332 91.712364,339.108765 83.990601,330.884918 
	C76.829285,323.257965 68.039101,318.427246 56.943794,316.107727 
z"/>
<path fill="#0C0C0C" opacity="1.000000" stroke="none" 
	d="
M810.578003,164.427094 
	C801.649841,156.553497 798.912231,146.937897 802.409790,136.173721 
	C806.818787,122.604362 814.371155,111.478409 829.716614,108.618408 
	C843.472290,106.054688 855.158325,114.644806 857.260925,128.488434 
	C857.377930,129.258957 857.597351,130.013931 858.018799,131.883926 
	C860.191772,128.452972 861.835144,125.858139 863.850586,122.676003 
	C866.388184,124.216515 868.839111,125.704353 871.593628,127.376518 
	C861.860291,144.067215 852.331787,160.416733 842.790527,176.758759 
	C841.029419,179.775085 839.292480,182.809784 837.412842,185.751907 
	C831.951538,194.300217 824.213440,197.498978 814.263062,195.419586 
	C799.359558,192.305130 788.601929,182.230225 786.560059,169.438431 
	C786.435608,168.658707 786.543945,167.841812 786.543945,166.679901 
	C789.467773,166.433716 792.235657,166.200653 795.537109,165.922668 
	C796.206543,174.173248 800.149292,180.105698 807.258057,183.931122 
	C817.657593,189.527390 825.126160,187.550262 831.200012,177.440857 
	C833.026550,174.400665 834.809021,171.333969 836.282043,167.712173 
	C826.859253,172.182037 818.550354,170.767639 810.578003,164.427094 
M841.317261,157.866013 
	C844.763855,151.893478 849.042542,146.234558 851.442383,139.867462 
	C854.320862,132.230652 851.109131,124.927628 844.752991,120.641273 
	C838.035095,116.110947 829.923157,115.616943 823.977539,121.172226 
	C819.166382,125.667564 814.989990,131.437576 812.265076,137.430222 
	C808.223206,146.319016 810.887634,153.965881 817.987671,159.061234 
	C825.722046,164.611740 832.609009,164.392975 841.317261,157.866013 
z"/>
<path fill="#0D0D0D" opacity="1.000000" stroke="none" 
	d="
M541.225769,41.160065 
	C542.029236,42.056503 542.582397,42.646534 543.634277,43.768444 
	C543.634277,32.978451 543.634277,22.839430 543.634277,12.279707 
	C546.185852,12.279707 549.081299,12.279707 552.569885,12.279707 
	C553.765747,40.270237 554.970276,68.464745 556.196045,97.156197 
	C553.100708,97.386864 550.220764,97.601479 547.104919,97.833679 
	C546.904968,94.296333 546.733093,91.255836 546.497070,87.080750 
	C545.113586,88.560654 544.421692,89.024086 544.114197,89.670403 
	C537.555115,103.456413 515.820740,103.259918 505.911957,90.638222 
	C496.647430,78.837120 495.450592,57.983902 503.507935,45.395290 
	C512.274658,31.698324 531.136719,29.411955 541.225769,41.160065 
M510.155396,79.046364 
	C514.942322,88.529465 520.742249,92.244751 529.201843,91.246971 
	C537.300415,90.291771 543.420532,84.742088 544.554199,75.313210 
	C545.330688,68.856079 544.950439,61.966419 543.544678,55.611328 
	C541.587402,46.762856 534.767212,42.019630 526.637756,42.101238 
	C517.811584,42.189838 511.367645,47.237007 508.960022,56.189053 
	C506.959930,63.625919 507.331787,71.022102 510.155396,79.046364 
z"/>
<path fill="#C8F969" opacity="1.000000" stroke="none" 
	d="
M1003.906433,713.000000 
	C1003.906555,738.430420 1003.906555,763.360840 1003.906555,788.672729 
	C998.871887,788.672729 994.308228,788.672729 989.296143,788.672729 
	C989.296143,745.418640 989.296143,702.123657 989.296143,658.192139 
	C993.368958,658.192139 997.365234,657.837952 1001.221741,658.415771 
	C1002.326599,658.581299 1003.778992,661.434448 1003.797668,663.069824 
	C1003.985901,679.544800 1003.908752,696.022827 1003.906433,713.000000 
z"/>
<path fill="#C9F96B" opacity="1.000000" stroke="none" 
	d="
M503.161499,766.000000 
	C503.161743,773.795532 503.161743,781.091125 503.161743,788.718140 
	C498.102722,788.718140 493.522003,788.718140 488.544495,788.718140 
	C488.544495,758.325012 488.544495,727.968506 488.544495,697.711670 
	C489.035095,697.447388 489.306488,697.191345 489.603577,697.156921 
	C499.817139,695.971375 499.876007,696.013855 501.381378,705.856140 
	C501.724792,708.101257 502.027405,710.352600 502.264893,712.014038 
	C508.000305,707.271545 513.333252,701.851318 519.609863,697.948792 
	C526.215027,693.842041 533.913452,694.386108 542.128357,696.494812 
	C541.482788,700.857300 540.848816,705.141113 540.176941,709.681335 
	C529.252686,707.813721 519.602600,708.586426 511.908600,716.733032 
	C505.727783,723.277466 503.395050,731.295532 503.206116,740.016235 
	C503.022186,748.507141 503.163025,757.005127 503.161499,766.000000 
z"/>
<path fill="#C8F96A" opacity="1.000000" stroke="none" 
	d="
M809.020203,789.051453 
	C806.579956,789.051514 804.616882,789.051514 802.312805,789.051514 
	C802.312805,758.303284 802.312805,728.079529 802.312805,697.411743 
	C806.053101,697.411743 809.762024,697.411743 813.888977,697.411743 
	C814.584045,702.561401 815.273499,707.669067 816.039062,713.341309 
	C833.828491,695.165894 840.318420,692.472778 855.706116,696.751099 
	C855.063965,700.881287 854.414001,705.061646 853.734680,709.430847 
	C851.469116,709.240906 849.522034,709.114685 847.583374,708.909485 
	C828.291565,706.867737 817.003967,723.188416 816.971375,738.156799 
	C816.935181,754.805542 816.963135,771.454407 816.963135,789.051392 
	C814.300659,789.051392 811.899048,789.051392 809.020203,789.051453 
z"/>
<path fill="#0E0E0E" opacity="1.000000" stroke="none" 
	d="
M605.658020,101.596100 
	C588.995178,101.894188 578.547058,95.496536 574.075073,82.582764 
	C568.989502,67.897148 574.023743,48.430202 585.332336,40.290264 
	C594.244385,33.875370 604.056213,33.704861 613.825867,37.905453 
	C623.286743,41.973255 627.729431,49.970833 628.742554,59.882423 
	C629.178467,64.147064 628.815552,68.493355 628.815552,73.740639 
	C613.052063,72.424583 597.747437,71.146835 582.479248,69.872131 
	C580.687134,78.872658 584.587219,87.116547 592.253357,90.909622 
	C601.430969,95.450577 609.983459,93.392654 617.715942,84.576912 
	C620.339355,85.572670 623.076538,86.611626 626.229431,87.808357 
	C621.964539,96.497833 615.112244,100.573799 605.658020,101.596100 
M619.604004,62.643047 
	C618.811707,50.563831 612.253845,43.781200 601.424255,43.840202 
	C591.602234,43.893711 583.417725,51.601185 583.080566,61.632710 
	C594.615112,62.549274 606.179199,63.481960 617.748657,64.344101 
	C618.288452,64.384323 618.875183,63.794548 619.604004,62.643047 
z"/>
<path fill="#0C0C0C" opacity="1.000000" stroke="none" 
	d="
M140.288849,202.284363 
	C155.126953,191.328873 169.351532,193.785324 183.499191,209.606705 
	C172.533997,220.378555 161.554123,231.164810 150.640518,241.885986 
	C157.320450,249.854996 166.150803,252.098785 174.006744,248.436768 
	C183.275803,244.116013 186.988571,236.576096 185.234055,225.156403 
	C187.658783,223.780258 190.197586,222.339386 193.286118,220.586502 
	C196.371567,228.036697 196.109924,234.892273 192.700989,241.561981 
	C183.339081,259.879059 162.948227,264.614258 146.831940,251.853912 
	C142.240952,248.218918 138.106506,243.529099 135.041718,238.537659 
	C127.005386,225.449432 128.991394,213.242081 140.288849,202.284363 
M163.765427,218.267685 
	C166.315750,215.977936 168.866074,213.688187 171.417831,211.397171 
	C162.186966,202.629288 152.167435,202.321198 144.871536,209.783386 
	C137.163651,217.666931 137.219101,228.832993 145.748199,237.075989 
	C151.579773,230.987396 157.427673,224.881760 163.765427,218.267685 
z"/>
<path fill="#0C0C0C" opacity="1.000000" stroke="none" 
	d="
M764.512207,111.293304 
	C759.736694,109.311829 755.313354,107.476883 750.916260,105.652824 
	C746.487732,114.711922 747.976257,123.545563 754.705322,129.414764 
	C762.552490,136.259155 770.298279,136.648422 779.953430,130.485611 
	C782.174988,132.266846 784.482544,134.117020 787.109558,136.223373 
	C782.298462,141.589203 776.415222,143.976074 769.777161,143.737289 
	C752.473816,143.114868 735.420959,130.453659 740.010376,108.243324 
	C743.037476,93.594139 750.141418,81.650230 765.952698,77.869614 
	C784.513550,73.431549 801.762939,89.729980 798.538391,108.575203 
	C797.687744,113.546715 795.652161,118.315460 794.001831,123.695190 
	C783.793335,119.401451 774.328857,115.420647 764.512207,111.293304 
M759.365723,100.171074 
	C768.774597,104.119034 778.183533,108.066994 787.567688,112.004585 
	C792.342590,101.218185 788.761414,91.731247 778.828491,87.425949 
	C769.310059,83.300262 758.116394,87.963158 754.152161,97.894089 
	C755.648743,98.557053 757.154541,99.224075 759.365723,100.171074 
z"/>
<path fill="#0C0C0C" opacity="1.000000" stroke="none" 
	d="
M433.321838,638.945984 
	C413.185760,632.232971 414.713776,600.574280 426.886047,591.179565 
	C436.252960,583.950134 446.792511,585.086609 457.338959,595.671448 
	C457.550293,592.604614 457.721954,590.113708 457.910522,587.377319 
	C460.338989,587.377319 462.591248,587.377319 465.309204,587.377319 
	C465.309204,593.105652 465.311188,598.739746 465.308777,604.373901 
	C465.303253,617.191895 465.407776,630.011292 465.253296,642.827515 
	C465.130432,653.018127 459.879517,659.263550 449.971741,661.554199 
	C437.258392,664.493347 426.352631,660.954468 420.466248,651.578003 
	C422.385010,650.221924 424.337250,648.842163 426.246948,647.492493 
	C434.431122,655.449463 442.808014,657.456299 450.718323,653.541870 
	C457.090942,650.388489 458.865234,644.270630 456.837402,630.920654 
	C450.895691,639.734253 443.021240,641.739563 433.321838,638.945984 
M434.258728,595.342712 
	C426.299286,601.512146 423.463043,612.696228 427.302612,622.772217 
	C430.072540,630.041016 435.423248,633.489014 443.137451,632.976135 
	C449.893738,632.526917 455.234589,628.219788 456.592926,621.048706 
	C457.409760,616.736572 457.603394,612.072632 456.912262,607.753235 
	C455.012787,595.881714 446.460022,591.125793 434.258728,595.342712 
z"/>
<path fill="#0C0C0C" opacity="1.000000" stroke="none" 
	d="
M916.390015,197.416473 
	C910.732727,205.392776 904.013428,211.354630 894.539856,213.494781 
	C875.481689,217.800171 857.266357,200.494492 860.875488,181.303284 
	C863.372070,168.028122 871.090332,158.327133 882.970276,152.182571 
	C893.530884,146.720367 904.926147,148.805969 914.277344,157.277420 
	C922.851685,165.045013 925.578430,176.307632 921.366516,187.849976 
	C920.184326,191.089783 918.211670,194.041138 916.390015,197.416473 
M909.338562,190.695419 
	C910.820435,186.673111 913.072083,182.756912 913.643982,178.609131 
	C915.572510,164.621170 901.789429,154.305740 888.832092,159.924210 
	C879.972412,163.765869 874.331421,170.818359 871.000977,179.760071 
	C867.904114,188.074493 869.776611,195.432678 876.260132,200.865051 
	C882.615906,206.190369 890.766052,206.996704 897.969727,202.004684 
	C902.113525,199.133057 905.335083,194.930557 909.338562,190.695419 
z"/>
<path fill="#0C0C0C" opacity="1.000000" stroke="none" 
	d="
M988.674438,279.657806 
	C996.895996,273.830353 1005.452087,269.837402 1015.436096,271.377747 
	C1034.267700,274.283142 1045.167236,295.286133 1036.211792,312.130798 
	C1029.364014,325.011322 1018.062256,332.477234 1003.416992,333.462891 
	C991.847778,334.241547 983.390198,328.347992 977.851196,318.372284 
	C972.184509,308.166779 973.310547,298.155212 979.796997,288.814056 
	C982.124451,285.462311 985.498474,282.837341 988.674438,279.657806 
M983.266907,308.852356 
	C986.893616,319.546570 993.087646,324.685852 1001.992615,324.389343 
	C1012.741516,324.031433 1025.569702,314.747162 1029.288940,304.633789 
	C1032.853638,294.940857 1026.822998,283.272247 1017.077271,281.005371 
	C1001.915710,277.478851 983.167114,292.419922 983.266907,308.852356 
z"/>
<path fill="#0B0B0B" opacity="1.000000" stroke="none" 
	d="
M328.302490,86.399727 
	C338.992065,65.252060 364.665771,63.106281 378.227051,82.013306 
	C384.237427,90.392929 387.167786,99.865456 386.061768,110.256721 
	C384.825745,121.869621 378.249207,129.417313 367.462524,133.390961 
	C356.962860,137.258881 346.998566,135.670822 339.201141,127.863823 
	C327.863464,116.512207 323.300568,102.751381 328.302490,86.399727 
M341.039673,115.298080 
	C342.132385,116.763016 343.095581,118.349991 344.340637,119.671371 
	C349.275269,124.908531 354.915466,128.159271 362.504669,126.037804 
	C370.281281,123.863953 375.133118,119.072693 376.647888,111.028000 
	C378.562531,100.859680 372.046600,85.977631 363.261017,80.578506 
	C351.960693,73.633949 337.360199,80.842049 335.960724,94.106819 
	C335.183746,101.471619 336.980072,108.292686 341.039673,115.298080 
z"/>
<path fill="#0D0D0D" opacity="1.000000" stroke="none" 
	d="
M679.064209,112.215240 
	C676.038391,112.066933 673.178711,111.556335 669.732605,110.941025 
	C675.613464,90.041885 681.352722,69.646217 687.193237,48.890514 
	C690.188538,49.757957 692.825684,50.521690 695.788879,51.379837 
	C695.094971,54.555893 694.441284,57.547920 693.787598,60.539944 
	C699.355652,55.811665 705.467224,54.173222 712.421143,55.260796 
	C726.080994,57.397148 733.836304,68.188232 730.523865,81.575615 
	C727.022827,95.725380 722.797180,109.695831 718.735229,124.293549 
	C715.659363,123.460899 712.850159,122.700439 709.529358,121.801498 
	C712.513977,111.077515 715.446472,100.541824 718.378174,90.005890 
	C719.225525,86.960693 720.271545,83.954132 720.876587,80.861427 
	C722.398560,73.081650 719.176514,66.929802 712.381714,64.201805 
	C704.645691,61.095917 696.476379,63.139980 692.496094,69.677780 
	C690.631714,72.740112 689.427429,76.288666 688.394226,79.756943 
	C685.217651,90.419289 682.268127,101.149261 679.064209,112.215240 
z"/>
<path fill="#0C0C0C" opacity="1.000000" stroke="none" 
	d="
M408.868591,53.869934 
	C423.874695,42.064285 440.420349,46.864227 445.475250,64.657433 
	C449.370728,78.369324 452.291931,92.357994 455.721588,106.534843 
	C452.636017,107.320625 449.962585,108.001457 446.586426,108.861237 
	C444.732452,101.369911 442.901978,94.052063 441.114075,86.723824 
	C439.734528,81.069214 438.513214,75.374054 437.035492,69.745773 
	C434.408997,59.742088 427.669983,55.235924 418.756927,57.351608 
	C409.414368,59.569244 404.226349,67.739677 406.396179,77.510193 
	C408.991425,89.196205 411.951508,100.801125 414.740234,112.444359 
	C415.006531,113.556236 415.178192,114.690788 415.485565,116.293221 
	C412.470093,117.009834 409.641510,117.682037 406.399292,118.452538 
	C401.371552,97.548515 396.422363,76.971092 391.365143,55.944584 
	C394.557587,55.238312 397.242767,54.644264 400.213867,53.986969 
	C401.090515,57.175201 401.866577,59.997593 402.791473,63.361328 
	C404.922729,59.974682 406.765106,57.047016 408.868591,53.869934 
z"/>
<path fill="#0C0C0C" opacity="1.000000" stroke="none" 
	d="
M1049.260254,376.254395 
	C1046.908203,387.431396 1036.487427,392.701416 1026.179688,388.296417 
	C1015.947327,383.923676 1007.454773,369.786560 1008.491638,358.724640 
	C1008.978821,353.527130 1011.174866,349.205811 1015.720947,345.733978 
	C1017.735046,347.984802 1019.688721,350.168091 1021.580383,352.282043 
	C1015.463867,361.353119 1016.966003,371.076172 1025.347168,377.596893 
	C1028.520264,380.065613 1032.069458,381.429932 1035.994995,379.317352 
	C1039.747925,377.297699 1040.792480,373.808472 1040.057373,369.943512 
	C1039.066650,364.734467 1037.591431,359.619659 1036.435547,354.439545 
	C1033.924683,343.187225 1036.792480,335.656494 1045.363159,332.224854 
	C1048.165405,331.102844 1051.635498,330.527771 1054.563721,331.043945 
	C1064.629517,332.818176 1070.104980,340.007446 1073.619141,348.922455 
	C1076.849243,357.116852 1075.208618,364.525757 1069.272827,371.480652 
	C1067.246094,369.286499 1065.378662,367.264679 1063.201538,364.907623 
	C1068.529785,357.639069 1066.963501,350.482117 1061.094849,344.025299 
	C1058.082031,340.710510 1054.267212,338.405090 1049.550537,340.715668 
	C1044.995728,342.947021 1044.590576,347.064911 1045.434692,351.425659 
	C1046.662720,357.770508 1048.137085,364.068176 1049.327515,370.419495 
	C1049.655151,372.168243 1049.346069,374.036346 1049.260254,376.254395 
z"/>
<path fill="#0D0D0D" opacity="1.000000" stroke="none" 
	d="
M239.647568,178.590164 
	C240.751709,177.838013 241.575073,177.324127 242.403015,176.807373 
	C247.345856,185.192749 246.064362,195.825867 239.339508,203.290359 
	C228.189285,215.666962 212.700562,217.363693 199.595917,206.997772 
	C188.280823,198.047440 181.329498,186.647064 183.739746,171.479523 
	C186.145813,156.338409 203.432098,145.452530 217.555176,150.124176 
	C220.563400,151.119217 223.235168,153.131332 226.284866,154.796600 
	C222.185455,158.859512 219.220734,161.311569 213.340790,158.960373 
	C204.477417,155.416229 194.015457,163.203125 192.705536,173.099396 
	C191.060394,185.528351 202.330826,201.387787 214.556519,204.108124 
	C226.683167,206.806427 238.380112,196.326889 235.945251,184.263580 
	C235.638535,182.743958 238.157196,180.654083 239.647568,178.590164 
z"/>
<path fill="#0D0D0D" opacity="1.000000" stroke="none" 
	d="
M289.920258,156.154022 
	C290.187073,154.936417 290.384186,154.123840 290.480469,153.299500 
	C291.276428,146.483704 291.270782,146.483047 297.741516,143.088364 
	C301.774597,149.677795 300.285248,159.538971 294.223480,166.382492 
	C283.218567,178.806625 266.685883,180.491272 254.141937,169.716354 
	C242.892990,160.053772 236.754013,147.760101 239.908249,132.538666 
	C242.244156,121.266312 250.320450,115.027885 260.962616,112.163216 
	C269.848083,109.771416 277.678253,111.978020 284.248199,119.305687 
	C280.316528,122.327034 277.520142,124.900139 271.772308,121.868454 
	C260.787140,116.074348 247.488556,126.441521 248.419907,139.686859 
	C249.178604,150.477020 254.534576,159.050171 263.550629,164.856583 
	C273.211670,171.078354 284.492432,167.266403 289.920258,156.154022 
z"/>
<path fill="#0D0D0D" opacity="1.000000" stroke="none" 
	d="
M970.546875,207.480774 
	C978.558655,218.456329 979.168823,227.501099 972.544373,236.923706 
	C968.773621,233.778076 965.465820,231.454697 967.332275,224.965179 
	C969.960876,215.825775 959.922485,205.896698 949.602173,206.113907 
	C936.365234,206.392502 921.763062,222.158157 922.557495,235.313293 
	C923.122314,244.664688 932.373779,253.177780 941.289612,251.051041 
	C947.256409,249.627716 950.157349,251.780106 953.335449,256.329315 
	C947.158386,260.978577 940.389160,261.778870 933.233521,259.642365 
	C918.354065,255.199692 909.533142,238.871780 914.664917,224.257416 
	C919.706848,209.898682 929.943726,200.457230 944.982544,197.423904 
	C955.104736,195.382263 963.553223,199.576248 970.546875,207.480774 
z"/>
<path fill="#C9F96B" opacity="1.000000" stroke="none" 
	d="
M879.826050,774.992188 
	C879.825317,779.788635 879.825317,784.087036 879.825317,789.053955 
	C877.037720,789.053955 874.775146,789.053955 872.512634,789.053955 
	C870.218384,789.053955 867.924133,789.053955 865.269531,789.053955 
	C865.269531,758.342590 865.269531,728.114136 865.269531,697.001099 
	C869.287476,697.001099 873.399292,696.715271 877.415466,697.208618 
	C878.379883,697.327087 879.692688,700.024170 879.714417,701.551331 
	C879.898499,714.538818 879.820801,727.530029 879.822205,740.520081 
	C879.823364,751.844788 879.825256,763.169434 879.826050,774.992188 
z"/>
<path fill="#0F0F0F" opacity="1.000000" stroke="none" 
	d="
M178.703247,628.180176 
	C178.067764,630.768250 177.680206,633.824036 175.967850,635.608643 
	C165.424896,646.596619 144.216675,643.467468 137.435440,629.854126 
	C132.219101,619.382263 132.411911,608.577820 137.827942,598.175171 
	C142.601547,589.006409 152.472183,584.886658 163.371628,587.005249 
	C172.833221,588.844299 179.486710,596.362366 180.842651,606.983215 
	C181.218857,609.930115 181.146591,612.934204 181.306763,616.506836 
	C168.147400,616.506836 155.278152,616.506836 142.476624,616.506836 
	C141.724258,624.471680 145.686584,631.216919 152.212387,633.758606 
	C159.275589,636.509583 167.140182,634.912598 171.044067,629.062500 
	C173.528503,625.339478 175.855865,627.806763 178.703247,628.180176 
M157.584122,593.581177 
	C149.431885,593.366028 142.069672,601.050415 142.236633,609.497803 
	C152.409470,609.497803 162.583771,609.497803 172.748672,609.497803 
	C172.925690,599.925232 168.285522,594.865784 157.584122,593.581177 
z"/>
<path fill="#0E0E0E" opacity="1.000000" stroke="none" 
	d="
M492.673462,621.895142 
	C493.974274,616.086365 497.992157,613.412964 502.828186,612.196655 
	C508.454681,610.781555 514.261169,610.088196 519.981079,609.035706 
	C522.784729,608.519775 526.515747,609.169434 526.958496,604.991150 
	C527.406799,600.761047 526.109070,597.062073 522.050781,594.891907 
	C516.900696,592.137939 508.793945,592.760254 504.942444,597.336853 
	C501.434235,601.505493 498.386230,601.278564 493.230316,597.839233 
	C496.639191,594.761169 499.407654,591.190369 503.042664,589.211426 
	C509.746765,585.561707 517.154724,585.606628 524.384460,587.948303 
	C530.526489,589.937683 534.462280,594.501953 534.685913,600.779541 
	C535.158203,614.037781 534.829712,627.324524 534.829712,640.799561 
	C532.362305,640.799561 530.070862,640.799561 527.418701,640.799561 
	C527.218445,638.884094 527.020508,636.990906 526.750793,634.410828 
	C518.639709,643.365967 509.287140,644.649109 499.379730,639.103821 
	C492.990936,635.527893 491.329926,629.319031 492.673462,621.895142 
M521.197327,615.654846 
	C516.622559,616.385315 511.973206,616.814453 507.492126,617.923584 
	C502.054413,619.269470 499.735382,622.493042 500.142090,627.008972 
	C500.523285,631.241699 503.837036,634.191162 509.007568,634.899780 
	C521.824585,636.656189 529.301636,627.987732 526.418030,614.497070 
	C524.977478,614.820496 523.537659,615.143738 521.197327,615.654846 
z"/>
<path fill="#101010" opacity="1.000000" stroke="none" 
	d="
M400.599945,638.697571 
	C383.359283,647.310181 366.603699,638.572205 364.133972,619.804871 
	C363.578461,615.583313 363.712494,611.121643 364.402527,606.913696 
	C366.450653,594.424255 375.617523,586.596497 387.732605,586.443420 
	C399.642548,586.292908 409.038177,593.602539 411.400513,605.912903 
	C413.809753,618.467896 412.483124,630.241699 400.599945,638.697571 
M402.957825,604.993591 
	C399.377899,596.384644 394.346985,592.996826 386.279022,593.762024 
	C378.961029,594.456177 373.611237,599.339233 372.439484,607.870850 
	C371.755432,612.851257 371.985291,618.232239 373.124420,623.125671 
	C374.980927,631.100464 380.717133,635.027710 388.333099,634.911011 
	C395.617401,634.799316 401.424133,630.736206 402.912231,622.994629 
	C403.978394,617.448059 403.152344,611.537781 402.957825,604.993591 
z"/>
<path fill="#0E0E0E" opacity="1.000000" stroke="none" 
	d="
M303.726013,639.374512 
	C287.407471,631.076538 286.738556,602.858643 299.530579,591.857605 
	C312.348328,580.834351 333.250580,586.874756 337.675690,603.538025 
	C339.245392,609.448975 339.463440,616.206177 338.391022,622.237915 
	C335.445129,638.807129 319.942688,646.296814 303.726013,639.374512 
M300.949585,602.753906 
	C297.944550,609.982239 297.849548,617.342163 300.448242,624.634155 
	C302.823944,631.300537 308.093964,634.868286 314.833221,634.913940 
	C321.787262,634.961060 326.717682,631.677734 329.414917,624.963745 
	C331.910248,618.752258 332.084198,612.365662 330.191010,605.967773 
	C328.331848,599.685059 324.888916,594.929688 317.847015,593.887573 
	C310.433746,592.790588 304.856720,595.408936 300.949585,602.753906 
z"/>
<path fill="#0B0B0B" opacity="1.000000" stroke="none" 
	d="
M239.832565,629.983032 
	C239.832611,615.527954 239.832611,601.571045 239.832611,587.363770 
	C242.557129,587.363770 244.797729,587.363770 247.359787,587.363770 
	C247.550995,589.902710 247.731522,592.299683 247.999649,595.859680 
	C252.683044,588.189880 258.991455,585.802124 266.652252,586.622253 
	C275.555573,587.575317 281.462372,592.779907 281.848633,601.665466 
	C282.411530,614.614990 281.993195,627.607239 281.993195,640.785217 
	C279.712830,640.785217 277.430054,640.785217 274.531830,640.785217 
	C274.531830,635.477722 274.574463,630.204102 274.521179,624.931458 
	C274.453827,618.272522 274.629547,611.589294 274.109131,604.962952 
	C273.554810,597.905029 269.606476,594.244690 263.058136,593.703735 
	C255.943497,593.116028 250.338974,596.709106 248.651550,603.319580 
	C248.003784,605.857178 247.947281,608.589355 247.925812,611.235291 
	C247.846436,621.016907 247.894211,630.799500 247.894211,640.780396 
	C245.024872,640.780396 242.750076,640.780396 239.832520,640.780396 
	C239.832520,637.353271 239.832520,633.917236 239.832565,629.983032 
z"/>
<path fill="#0A0A0A" opacity="1.000000" stroke="none" 
	d="
M110.998543,569.048096 
	C116.977150,569.047729 122.456215,569.047729 128.340164,569.047729 
	C128.340164,571.525269 128.340164,573.721924 128.340164,576.457092 
	C120.986084,576.457092 113.743202,576.457092 106.135239,576.457092 
	C106.135239,598.074585 106.135239,619.165466 106.135239,640.620361 
	C103.218033,640.620361 100.662186,640.620361 97.773148,640.620361 
	C97.773148,619.539062 97.773148,598.418823 97.773148,576.654541 
	C90.078880,576.654541 82.673538,576.654541 75.075562,576.654541 
	C75.075562,573.892578 75.075562,571.776550 75.075562,569.048462 
	C86.961929,569.048462 98.730469,569.048462 110.998543,569.048096 
z"/>
<path fill="#0F0F0F" opacity="1.000000" stroke="none" 
	d="
M197.837906,626.827881 
	C205.725235,637.850220 215.925491,637.673096 224.047531,627.172302 
	C225.326721,625.518433 228.852753,625.602478 231.524139,624.829651 
	C231.901245,633.648315 223.637054,641.307068 214.135498,641.966553 
	C199.481644,642.983643 188.382690,633.978088 187.294647,619.300293 
	C186.875092,613.640320 187.356995,607.505310 189.156494,602.169678 
	C193.588776,589.027466 206.951767,583.163086 219.888580,587.942810 
	C226.588379,590.418152 230.936661,595.087280 232.398514,602.597168 
	C228.008270,603.465210 225.023819,603.465576 222.073135,598.907043 
	C216.163391,589.777161 201.551926,592.457703 197.046799,603.249695 
	C193.829636,610.956360 194.114136,618.828186 197.837906,626.827881 
z"/>
<path fill="#0E0E0E" opacity="1.000000" stroke="none" 
	d="
M112.920410,235.855148 
	C114.083420,237.914047 115.069046,239.640244 116.180191,241.586243 
	C115.194923,242.505814 114.228416,243.363388 113.311310,244.270889 
	C105.691589,251.810791 106.244164,262.341888 114.551811,269.040192 
	C124.644997,277.178131 134.704102,285.358337 145.144562,293.817291 
	C143.189072,296.153564 141.302567,298.407410 138.963562,301.201874 
	C122.363701,287.745483 105.918579,274.414520 89.155487,260.825806 
	C91.096542,258.340515 92.795593,256.165070 94.875832,253.501587 
	C96.789719,255.026657 98.544243,256.424713 101.048584,258.420288 
	C101.048584,255.926300 101.149384,253.926865 101.029655,251.940704 
	C100.672997,246.023819 102.940849,241.141296 107.242615,237.346268 
	C108.575249,236.170609 110.882172,236.099335 112.920410,235.855148 
z"/>
<path fill="#0D0D0D" opacity="1.000000" stroke="none" 
	d="
M964.238708,279.205933 
	C961.169434,281.792877 958.376709,284.157288 955.183716,286.860657 
	C953.118530,284.482025 951.108154,282.166534 948.860474,279.577637 
	C965.289246,265.711914 981.404602,252.110672 997.914490,238.176514 
	C1000.105774,240.690659 1002.035156,242.904312 1004.225037,245.416840 
	C990.881714,256.695923 977.698486,267.839691 964.238708,279.205933 
z"/>
<path fill="#0D0D0D" opacity="1.000000" stroke="none" 
	d="
M104.139297,309.782715 
	C92.871475,301.871704 81.905914,294.152863 70.652184,286.231201 
	C72.528069,283.496887 74.184608,281.082275 76.094795,278.297974 
	C93.685280,290.698608 110.972534,302.885468 128.691116,315.376404 
	C126.812241,318.044464 125.131660,320.430908 123.178871,323.203918 
	C116.834366,318.724548 110.637962,314.349731 104.139297,309.782715 
z"/>
<path fill="#0D0D0D" opacity="1.000000" stroke="none" 
	d="
M313.051819,139.041443 
	C305.918976,124.371338 298.930573,110.048599 291.699768,95.228989 
	C294.407349,93.881897 297.005310,92.589355 300.247162,90.976456 
	C309.642853,110.178741 318.884216,129.065582 328.425934,148.566269 
	C325.582275,149.986084 322.997223,151.276764 319.921570,152.812424 
	C317.601074,148.180695 315.398682,143.784744 313.051819,139.041443 
z"/>
<path fill="#101010" opacity="1.000000" stroke="none" 
	d="
M355.323792,616.000488 
	C355.323944,624.475891 355.323944,632.451294 355.323944,640.712769 
	C352.567749,640.712769 350.166046,640.712769 347.465118,640.712769 
	C347.465118,616.930481 347.465118,593.226685 347.465118,569.270203 
	C350.011292,569.270203 352.280579,569.270203 355.323639,569.270203 
	C355.323639,584.709595 355.323639,600.105042 355.323792,616.000488 
z"/>
<path fill="#101010" opacity="1.000000" stroke="none" 
	d="
M484.157013,596.125488 
	C484.156982,611.260132 484.156982,625.913818 484.156982,640.786499 
	C481.596100,640.786499 479.311127,640.786499 476.617920,640.786499 
	C476.617920,623.082947 476.617920,605.391357 476.617920,587.399719 
	C478.989655,587.399719 481.247498,587.399719 484.157043,587.399719 
	C484.157043,590.121216 484.157043,592.882812 484.157013,596.125488 
z"/>
<path fill="#C9F96B" opacity="1.000000" stroke="none" 
	d="
M864.196533,667.788391 
	C866.347900,662.924561 869.877441,661.342346 874.510376,662.471008 
	C878.785156,663.512329 880.706787,666.643188 881.007263,670.863342 
	C881.318115,675.230896 880.085632,678.978210 875.643555,680.506836 
	C872.026917,681.751465 867.795715,681.843811 865.833130,678.105774 
	C864.345886,675.273071 864.600769,671.525635 864.196533,667.788391 
z"/>
<path fill="#101010" opacity="1.000000" stroke="none" 
	d="
M347.151367,54.433189 
	C346.606110,60.342686 344.663879,64.437721 337.731323,64.162201 
	C338.472717,57.900665 339.094208,51.647179 340.060425,45.447407 
	C340.227783,44.373718 341.699707,43.225658 342.840210,42.640827 
	C345.018127,41.524067 347.391266,40.788048 350.570099,39.548107 
	C349.348297,44.849854 348.290649,49.439434 347.151367,54.433189 
z"/>
<path fill="#101010" opacity="1.000000" stroke="none" 
	d="
M56.936325,265.858673 
	C61.332382,264.740997 64.213303,266.033264 65.293686,270.151428 
	C66.272217,273.881317 64.720467,276.693909 61.242485,278.199158 
	C57.868874,279.659210 54.802006,278.744202 53.209854,275.480072 
	C51.244656,271.451111 52.507175,268.083923 56.936325,265.858673 
z"/>
<path fill="#0F0F0F" opacity="1.000000" stroke="none" 
	d="
M294.946045,75.421661 
	C294.973541,76.788513 295.310059,78.246384 294.791901,78.677780 
	C292.545380,80.548225 290.152252,83.193512 287.609406,83.436951 
	C285.785889,83.611519 282.430450,80.695801 281.980713,78.666313 
	C281.533630,76.648811 283.339661,72.668770 285.103424,71.983475 
	C287.472778,71.062912 290.770203,72.381447 293.619141,72.977966 
	C294.153839,73.089920 294.453583,74.324043 294.946045,75.421661 
z"/>
<path fill="#101010" opacity="1.000000" stroke="none" 
	d="
M1007.893433,230.012115 
	C1008.627319,225.244354 1011.301208,223.255646 1015.642151,223.991180 
	C1019.477783,224.641083 1021.236267,227.283783 1021.109863,231.111206 
	C1020.993835,234.626541 1019.057617,236.785110 1015.610352,237.015808 
	C1011.040405,237.321671 1008.513916,234.844055 1007.893433,230.012115 
z"/>
<path fill="#161616" opacity="1.000000" stroke="none" 
	d="
M477.999023,579.239075 
	C479.966431,574.259094 481.696472,569.007874 484.829926,564.802124 
	C486.175079,562.996765 490.435577,563.363403 493.371582,562.743225 
	C493.641235,563.101501 493.910919,563.459778 494.180603,563.818054 
	C490.817780,568.800110 487.662842,573.947449 483.933899,578.638489 
	C483.088409,579.702209 480.250824,579.182373 477.999023,579.239075 
z"/>
<path fill="#FAFEFF" opacity="1.000000" stroke="none" 
	d="
M460.680237,420.923187 
	C449.054688,425.730896 439.334442,418.467346 435.960388,410.772034 
	C432.271637,402.359009 435.965607,391.561646 444.093719,387.013397 
	C453.141541,381.950500 464.336731,384.921326 469.188660,393.672791 
	C474.787811,403.772095 471.375214,415.133850 460.680237,420.923187 
z"/>
<path fill="#FBFEFF" opacity="1.000000" stroke="none" 
	d="
M655.529785,438.044189 
	C653.719849,425.149017 661.621521,414.153717 672.592957,413.732208 
	C681.970398,413.371979 690.603699,420.481476 691.975769,429.693970 
	C693.484680,439.825073 688.243958,448.121338 678.751282,450.628998 
	C668.714783,453.280273 659.344604,448.333740 655.529785,438.044189 
z"/>
<path fill="#FDFFFA" opacity="1.000000" stroke="none" 
	d="
M562.325073,334.875854 
	C555.036560,333.380432 550.083496,329.869385 548.666199,322.512787 
	C547.351257,315.687775 550.092224,310.528809 555.340881,306.525513 
	C562.050354,301.407990 571.540649,303.286926 576.735168,310.614777 
	C581.934570,317.949524 580.492859,327.428192 572.984802,331.815918 
	C569.991211,333.565369 566.178345,333.912933 562.325073,334.875854 
z"/>
<path fill="#FEFFFD" opacity="1.000000" stroke="none" 
	d="
M417.133270,710.901062 
	C423.967407,707.232849 431.009186,707.223511 437.931000,708.287170 
	C445.456116,709.443542 450.386749,714.444458 453.135254,721.348511 
	C458.942841,735.936951 458.734619,750.655273 452.745087,765.080933 
	C448.648010,774.948547 440.937195,778.727051 428.223785,778.130920 
	C418.367554,777.668640 411.356018,772.602966 408.470490,762.749268 
	C404.612793,749.576111 404.063751,736.075989 408.360901,722.966797 
	C409.807220,718.554565 413.907410,715.012207 417.133270,710.901062 
z"/>
<path fill="#FEFFFC" opacity="1.000000" stroke="none" 
	d="
M606.074280,719.131836 
	C607.349915,724.024109 608.456421,728.571533 609.702026,733.690552 
	C593.061096,733.690552 577.712646,733.690552 562.402527,733.690552 
	C561.212280,722.832275 568.337708,711.427307 578.273987,708.494751 
	C589.225647,705.262512 601.518311,708.146667 606.074280,719.131836 
z"/>
<path fill="#FEFFFC" opacity="1.000000" stroke="none" 
	d="
M932.119568,778.224670 
	C928.418091,778.279480 925.049438,778.734192 921.868530,778.156128 
	C913.812622,776.692139 910.061890,772.505066 909.281067,764.957336 
	C908.534180,757.736694 912.794556,750.509766 919.696167,747.956970 
	C930.490845,743.964478 941.794678,744.132751 953.013916,744.011963 
	C956.661133,762.766846 948.895325,775.615845 932.119568,778.224670 
z"/>
<path fill="#FEFFFC" opacity="1.000000" stroke="none" 
	d="
M757.505859,773.644531 
	C750.385315,777.725464 743.240906,779.737488 735.299866,778.232300 
	C729.512634,777.135437 724.775452,774.713989 723.195374,768.668396 
	C721.182495,760.966797 723.442749,753.557739 729.353394,750.108582 
	C733.119629,747.910706 737.535828,746.286621 741.841797,745.669678 
	C749.958679,744.506836 758.206421,744.257202 766.785767,743.598389 
	C767.494629,755.378174 767.421387,765.839233 757.505859,773.644531 
z"/>
<path fill="#FCFCFC" opacity="1.000000" stroke="none" 
	d="
M57.375156,316.169220 
	C68.039101,318.427246 76.829285,323.257965 83.990601,330.884918 
	C91.712364,339.108765 93.547394,348.840332 89.502243,359.137573 
	C86.733963,366.184418 82.643066,372.711731 78.979424,379.788116 
	C58.998119,368.619812 39.565319,357.758087 18.802885,346.153168 
	C24.500664,337.898163 29.436069,329.461060 35.662613,322.118896 
	C40.994938,315.831116 49.012444,315.208313 57.375156,316.169220 
z"/>
<path fill="#FBFBFB" opacity="1.000000" stroke="none" 
	d="
M841.040771,158.101837 
	C832.609009,164.392975 825.722046,164.611740 817.987671,159.061234 
	C810.887634,153.965881 808.223206,146.319016 812.265076,137.430222 
	C814.989990,131.437576 819.166382,125.667564 823.977539,121.172226 
	C829.923157,115.616943 838.035095,116.110947 844.752991,120.641273 
	C851.109131,124.927628 854.320862,132.230652 851.442383,139.867462 
	C849.042542,146.234558 844.763855,151.893478 841.040771,158.101837 
z"/>
<path fill="#FBFBFB" opacity="1.000000" stroke="none" 
	d="
M510.030731,78.670044 
	C507.331787,71.022102 506.959930,63.625919 508.960022,56.189053 
	C511.367645,47.237007 517.811584,42.189838 526.637756,42.101238 
	C534.767212,42.019630 541.587402,46.762856 543.544678,55.611328 
	C544.950439,61.966419 545.330688,68.856079 544.554199,75.313210 
	C543.420532,84.742088 537.300415,90.291771 529.201843,91.246971 
	C520.742249,92.244751 514.942322,88.529465 510.030731,78.670044 
z"/>
<path fill="#F6F6F6" opacity="1.000000" stroke="none" 
	d="
M619.522034,63.070614 
	C618.875183,63.794548 618.288452,64.384323 617.748657,64.344101 
	C606.179199,63.481960 594.615112,62.549274 583.080566,61.632710 
	C583.417725,51.601185 591.602234,43.893711 601.424255,43.840202 
	C612.253845,43.781200 618.811707,50.563831 619.522034,63.070614 
z"/>
<path fill="#F5F5F5" opacity="1.000000" stroke="none" 
	d="
M163.520508,218.521912 
	C157.427673,224.881760 151.579773,230.987396 145.748199,237.075989 
	C137.219101,228.832993 137.163651,217.666931 144.871536,209.783386 
	C152.167435,202.321198 162.186966,202.629288 171.417831,211.397171 
	C168.866074,213.688187 166.315750,215.977936 163.520508,218.521912 
z"/>
<path fill="#F7F7F7" opacity="1.000000" stroke="none" 
	d="
M759.013000,100.031082 
	C757.154541,99.224075 755.648743,98.557053 754.152161,97.894089 
	C758.116394,87.963158 769.310059,83.300262 778.828491,87.425949 
	C788.761414,91.731247 792.342590,101.218185 787.567688,112.004585 
	C778.183533,108.066994 768.774597,104.119034 759.013000,100.031082 
z"/>
<path fill="#FAFAFA" opacity="1.000000" stroke="none" 
	d="
M434.617737,595.171997 
	C446.460022,591.125793 455.012787,595.881714 456.912262,607.753235 
	C457.603394,612.072632 457.409760,616.736572 456.592926,621.048706 
	C455.234589,628.219788 449.893738,632.526917 443.137451,632.976135 
	C435.423248,633.489014 430.072540,630.041016 427.302612,622.772217 
	C423.463043,612.696228 426.299286,601.512146 434.617737,595.171997 
z"/>
<path fill="#FAFAFA" opacity="1.000000" stroke="none" 
	d="
M909.155212,191.011292 
	C905.335083,194.930557 902.113525,199.133057 897.969727,202.004684 
	C890.766052,206.996704 882.615906,206.190369 876.260132,200.865051 
	C869.776611,195.432678 867.904114,188.074493 871.000977,179.760071 
	C874.331421,170.818359 879.972412,163.765869 888.832092,159.924210 
	C901.789429,154.305740 915.572510,164.621170 913.643982,178.609131 
	C913.072083,182.756912 910.820435,186.673111 909.155212,191.011292 
z"/>
<path fill="#FBFBFB" opacity="1.000000" stroke="none" 
	d="
M983.206543,308.449005 
	C983.167114,292.419922 1001.915710,277.478851 1017.077271,281.005371 
	C1026.822998,283.272247 1032.853638,294.940857 1029.288940,304.633789 
	C1025.569702,314.747162 1012.741516,324.031433 1001.992615,324.389343 
	C993.087646,324.685852 986.893616,319.546570 983.206543,308.449005 
z"/>
<path fill="#FBFBFB" opacity="1.000000" stroke="none" 
	d="
M340.862488,114.974525 
	C336.980072,108.292686 335.183746,101.471619 335.960724,94.106819 
	C337.360199,80.842049 351.960693,73.633949 363.261017,80.578506 
	C372.046600,85.977631 378.562531,100.859680 376.647888,111.028000 
	C375.133118,119.072693 370.281281,123.863953 362.504669,126.037804 
	C354.915466,128.159271 349.275269,124.908531 344.340637,119.671371 
	C343.095581,118.349991 342.132385,116.763016 340.862488,114.974525 
z"/>
<path fill="#F6F6F6" opacity="1.000000" stroke="none" 
	d="
M158.024841,593.577637 
	C168.285522,594.865784 172.925690,599.925232 172.748672,609.497803 
	C162.583771,609.497803 152.409470,609.497803 142.236633,609.497803 
	C142.069672,601.050415 149.431885,593.366028 158.024841,593.577637 
z"/>
<path fill="#F5F5F5" opacity="1.000000" stroke="none" 
	d="
M521.647583,615.560913 
	C523.537659,615.143738 524.977478,614.820496 526.418030,614.497070 
	C529.301636,627.987732 521.824585,636.656189 509.007568,634.899780 
	C503.837036,634.191162 500.523285,631.241699 500.142090,627.008972 
	C499.735382,622.493042 502.054413,619.269470 507.492126,617.923584 
	C511.973206,616.814453 516.622559,616.385315 521.647583,615.560913 
z"/>
<path fill="#FAFAFA" opacity="1.000000" stroke="none" 
	d="
M403.064148,605.391663 
	C403.152344,611.537781 403.978394,617.448059 402.912231,622.994629 
	C401.424133,630.736206 395.617401,634.799316 388.333099,634.911011 
	C380.717133,635.027710 374.980927,631.100464 373.124420,623.125671 
	C371.985291,618.232239 371.755432,612.851257 372.439484,607.870850 
	C373.611237,599.339233 378.961029,594.456177 386.279022,593.762024 
	C394.346985,592.996826 399.377899,596.384644 403.064148,605.391663 
z"/>
<path fill="#FAFAFA" opacity="1.000000" stroke="none" 
	d="
M301.098083,602.398193 
	C304.856720,595.408936 310.433746,592.790588 317.847015,593.887573 
	C324.888916,594.929688 328.331848,599.685059 330.191010,605.967773 
	C332.084198,612.365662 331.910248,618.752258 329.414917,624.963745 
	C326.717682,631.677734 321.787262,634.961060 314.833221,634.913940 
	C308.093964,634.868286 302.823944,631.300537 300.448242,624.634155 
	C297.849548,617.342163 297.944550,609.982239 301.098083,602.398193 
z"/>
</svg>