<?xml version="1.0" encoding="UTF-8" standalone="no"?>
<!-- Created with Inkscape (http://www.inkscape.org/) -->

<svg
   width="297mm"
   height="210mm"
   viewBox="0 0 297 210"
   version="1.1"
   id="svg1"
   xml:space="preserve"
   inkscape:version="1.4.2 (f4327f4, 2025-05-13)"
   sodipodi:docname="LOGO-NEGRO.svg"
   xmlns:inkscape="http://www.inkscape.org/namespaces/inkscape"
   xmlns:sodipodi="http://sodipodi.sourceforge.net/DTD/sodipodi-0.dtd"
   xmlns="http://www.w3.org/2000/svg"
   xmlns:svg="http://www.w3.org/2000/svg"><sodipodi:namedview
     id="namedview1"
     pagecolor="#505050"
     bordercolor="#ffffff"
     borderopacity="1"
     inkscape:showpageshadow="0"
     inkscape:pageopacity="0"
     inkscape:pagecheckerboard="1"
     inkscape:deskcolor="#505050"
     inkscape:document-units="mm"
     inkscape:zoom="0.71891835"
     inkscape:cx="397.12437"
     inkscape:cy="449.98156"
     inkscape:window-width="1920"
     inkscape:window-height="1009"
     inkscape:window-x="-8"
     inkscape:window-y="-8"
     inkscape:window-maximized="1"
     inkscape:current-layer="layer1" /><defs
     id="defs1" /><g
     inkscape:label="Capa 1"
     inkscape:groupmode="layer"
     id="layer1"><path
       style="fill:#ffffff;fill-opacity:1"
       d="m 115.05333,163.29695 v -13.05278 h 1.2147 1.21469 l 0.12088,0.83785 c 0.25216,1.74777 0.24733,1.74185 0.83704,1.02643 1.30806,-1.58691 3.18313,-2.31376 5.61161,-2.17529 2.04892,0.11682 3.34051,0.69485 4.67214,2.09092 1.09019,1.14295 1.52229,1.97806 1.96274,3.79328 0.39931,1.64567 0.39946,5.19903 2.9e-4,6.84406 -0.60241,2.48258 -2.08356,4.40695 -4.13034,5.36627 -0.91176,0.42734 -1.20338,0.47256 -3.03708,0.4709 -1.86108,-0.002 -2.11168,-0.0425 -3.03685,-0.4951 -0.5546,-0.2713 -1.35404,-0.82923 -1.77652,-1.23983 l -0.76814,-0.74655 0.0802,5.16631 0.0802,5.16631 h -1.52275 -1.52274 z m 10.06664,2.33716 c 1.11697,-0.56576 1.93509,-1.64913 2.41441,-3.19724 0.45066,-1.45551 0.43056,-5.19968 -0.0356,-6.62289 -0.4344,-1.32641 -1.22154,-2.36167 -2.22318,-2.92397 -0.6799,-0.38169 -0.99894,-0.44002 -2.37301,-0.43388 -1.81503,0.008 -2.64945,0.33016 -3.56905,1.37753 -0.9517,1.08392 -1.19345,2.14332 -1.19345,5.22996 0,2.0907 0.0715,2.96491 0.30401,3.71525 0.71729,2.31513 2.08661,3.31605 4.55915,3.33256 0.92467,0.006 1.35262,-0.0903 2.11667,-0.47732 z m 26.97503,2.84458 c -2.92877,-0.56841 -5.21391,-2.3926 -6.15795,-4.91579 -0.59239,-1.58329 -0.81554,-3.83918 -0.5741,-5.80376 0.2459,-2.00095 0.68429,-3.25438 1.63744,-4.68174 1.28018,-1.91709 3.21751,-2.97854 5.73202,-3.14053 2.32704,-0.14991 3.97889,0.38414 5.49032,1.77504 1.62158,1.49227 2.31277,3.21581 2.46774,6.15354 l 0.10043,1.90373 h -6.22453 -6.22453 l 0.10298,1.01423 c 0.2446,2.40907 1.0474,3.71802 2.8389,4.62878 1.18814,0.60403 1.2639,0.61821 3.175,0.59455 1.83265,-0.0227 3.5674,-0.37289 5.08871,-1.02726 0.27848,-0.11978 0.30868,-0.002 0.30868,1.20134 v 1.33412 l -1.45521,0.4656 c -1.17897,0.37722 -1.87374,0.47681 -3.66007,0.52467 -1.21267,0.0325 -2.4033,0.0205 -2.64583,-0.0265 z m 5.40281,-12.01681 c -0.15808,-1.40867 -0.90475,-2.81366 -1.8474,-3.47618 -0.66296,-0.46595 -0.94326,-0.54359 -2.16234,-0.59895 -1.23003,-0.0559 -1.5162,-0.007 -2.34938,0.40057 -1.38844,0.6793 -2.28856,2.05001 -2.64471,4.02734 l -0.11913,0.66146 h 4.61839 4.61839 z m 7.56177,11.86638 c -0.58208,-0.12777 -1.39568,-0.3682 -1.80798,-0.53429 l -0.74966,-0.30199 v -1.32263 c 0,-1.18809 0.0314,-1.31035 0.30868,-1.20182 2.11939,0.82954 3.06317,1.0441 4.89824,1.11356 2.33983,0.0886 3.28277,-0.12605 4.08694,-0.93022 0.50726,-0.50726 0.58392,-0.70121 0.58392,-1.47736 0,-0.75125 -0.0887,-0.99449 -0.55739,-1.52828 -0.63802,-0.72667 -1.36304,-1.1199 -4.20511,-2.28074 -3.01789,-1.23266 -4.09168,-1.97596 -4.77796,-3.30739 -0.50023,-0.9705 -0.46486,-2.84078 0.073,-3.85983 1.40652,-2.66487 6.02519,-3.55931 10.78611,-2.08881 0.66485,0.20535 1.1508,0.45491 1.1508,0.59099 0,0.22773 -0.83002,2.22099 -0.92381,2.2185 -0.0255,-6.8e-4 -0.64164,-0.20794 -1.36924,-0.46058 -1.54949,-0.53802 -4.23644,-0.75552 -5.40798,-0.43776 -1.07194,0.29075 -1.82397,1.05806 -1.82397,1.86104 0,0.35395 0.11488,0.8657 0.25529,1.13722 0.2986,0.57742 1.92202,1.47999 4.28171,2.38048 4.21193,1.60733 5.39733,2.77022 5.41321,5.31041 0.004,0.6791 -0.10019,1.54554 -0.23208,1.92544 -0.52953,1.52526 -2.407,2.8616 -4.60637,3.2787 -1.27079,0.241 -4.09542,0.19653 -5.37634,-0.0846 z m 15.23474,-0.005 c -2.27439,-0.73091 -3.37091,-2.16449 -3.48005,-4.5498 -0.0812,-1.77409 0.19879,-2.74987 1.07437,-3.74458 1.48475,-1.68677 3.46914,-2.33484 7.72025,-2.52133 l 2.73402,-0.11994 0.0587,-0.61737 c 0.1,-1.05095 -0.15212,-2.42459 -0.55681,-3.0338 -1.08849,-1.63861 -3.84266,-1.8375 -7.13728,-0.51542 -0.51291,0.20582 -0.97368,0.37422 -1.02394,0.37422 -0.0502,0 -0.29167,-0.45291 -0.53648,-1.00647 -0.52046,-1.17685 -0.50156,-1.2067 1.15953,-1.83174 3.34119,-1.25723 7.28618,-1.06887 9.2677,0.44251 0.86452,0.65941 1.47797,2.05006 1.68345,3.81633 0.0953,0.81938 0.16902,4.12901 0.16375,7.35472 l -0.01,5.86493 h -1.12007 -1.12008 l -0.20938,-0.92604 c -0.38672,-1.71033 -0.28552,-1.66026 -1.34003,-0.66295 -1.43812,1.36011 -2.58197,1.81429 -4.74223,1.88295 -1.22052,0.0388 -2.02252,-0.0252 -2.58589,-0.20622 z m 4.998,-2.47856 c 0.44253,-0.15079 1.12438,-0.54788 1.51522,-0.88242 1.06203,-0.90906 1.45652,-1.87743 1.5752,-3.86674 0.0935,-1.56786 0.078,-1.67912 -0.2344,-1.67432 -1.55778,0.024 -4.92252,0.38752 -5.67284,0.61296 -1.68178,0.5053 -2.68774,1.74101 -2.68717,3.30088 3.8e-4,1.04365 0.48038,1.90788 1.32264,2.38136 0.86873,0.48836 2.93823,0.55185 4.18135,0.12828 z m 31.20737,2.379 c -0.83395,-0.27224 -1.33669,-0.57977 -1.94928,-1.19235 -0.98029,-0.9803 -1.33666,-1.99953 -1.33666,-3.82291 0,-2.28773 1.24217,-3.98039 3.55648,-4.84629 1.57991,-0.59112 2.4775,-0.735 5.35115,-0.85775 l 2.73403,-0.11679 -0.037,-1.30288 c -0.05,-1.76302 -0.54722,-2.77657 -1.63871,-3.34069 -0.70893,-0.36639 -0.97283,-0.40199 -2.46945,-0.3331 -1.34882,0.0621 -1.96189,0.18853 -3.14286,0.64816 -0.80695,0.31406 -1.49119,0.54332 -1.52053,0.50948 -0.14773,-0.17036 -0.80466,-1.81261 -0.80466,-2.01156 0,-0.23404 1.05593,-0.68457 2.92513,-1.24806 1.42973,-0.43101 4.71902,-0.44314 6.08608,-0.0224 1.28013,0.39394 2.454,1.42625 3.00275,2.64063 0.41901,0.92727 0.42176,0.97446 0.47472,8.12919 l 0.0533,7.1965 -1.10006,-0.0528 -1.10007,-0.0528 -0.25149,-1.14653 c -0.13833,-0.63059 -0.26826,-1.16543 -0.28874,-1.18854 -0.0205,-0.0231 -0.45645,0.36206 -0.96883,0.85592 -1.39461,1.34423 -2.51961,1.79202 -4.68226,1.86372 -1.42747,0.0473 -1.98633,-0.0122 -2.89302,-0.3082 z m 5.95159,-2.72516 c 1.69432,-0.92505 2.29598,-2.10715 2.3082,-4.53493 l 0.008,-1.53927 -1.98438,0.10244 c -3.76718,0.19448 -5.39419,0.77035 -6.16579,2.18235 -0.49002,0.89671 -0.38261,2.80595 0.19229,3.4179 0.77475,0.82468 1.3826,1.0099 3.10718,0.94678 1.35872,-0.0497 1.72402,-0.13263 2.53476,-0.57527 z M 68.663059,156.2414 v -11.99445 h 6.702777 6.702778 v 1.32292 1.32292 H 76.865142 71.66167 l -1.14e-4,3.74826 -1.13e-4,3.74826 4.850808,-0.0495 4.850807,-0.0495 v 1.32837 1.32836 H 76.512364 71.66167 v 4.32153 4.32153 h 5.203472 5.203472 v 1.32292 1.32291 h -6.702778 -6.702777 z m 16.580554,2.99861 v -8.99584 h 1.206473 1.206473 l 0.218863,1.22468 0.218862,1.22468 1.000012,-1.01356 c 0.81963,-0.83073 1.215444,-1.08346 2.194341,-1.40107 2.939362,-0.95369 6.363933,-0.0435 7.454321,1.98123 0.31419,0.58342 0.611766,0.82129 0.611766,0.48902 0,-0.37938 1.594226,-1.72725 2.599146,-2.19752 0.90072,-0.42149 1.44923,-0.54776 2.68576,-0.61826 3.07017,-0.17506 5.09451,0.91364 6.02013,3.23765 0.40701,1.02191 0.41615,1.17644 0.47656,8.05336 l 0.0616,7.01146 h -1.51188 -1.51187 l -9.9e-4,-6.3941 c -6.3e-4,-4.1209 -0.0702,-6.64351 -0.19575,-7.09567 -0.26237,-0.94503 -1.29256,-1.94468 -2.2791,-2.2115 -1.80103,-0.48712 -4.06189,0.20042 -4.9706,1.5116 -0.908596,1.31102 -1.020228,2.24044 -1.020228,8.49409 v 5.69558 h -1.499306 -1.499305 v -6.31798 c 0,-7.15849 -0.0729,-7.70876 -1.146115,-8.65105 -1.715338,-1.50609 -5.127078,-1.03421 -6.305681,0.87214 -0.859072,1.38951 -1.008418,2.66967 -1.011808,8.67293 l -0.0031,5.42396 h -1.499305 -1.499306 z m 48.859717,0 v -8.99584 h 1.216 1.216 l 0.12564,1.5875 c 0.0691,0.87313 0.1966,1.5875 0.28331,1.5875 0.0867,0 0.15766,-0.0658 0.15766,-0.14632 0,-0.36197 1.99025,-2.29425 2.83874,-2.75605 0.74006,-0.4028 1.23,-0.52846 2.30242,-0.59054 0.74926,-0.0434 1.5659,-0.0278 1.81474,0.0347 0.49566,0.1244 0.5482,0.41726 0.34321,1.91284 l -0.10923,0.7969 -1.61056,-0.0175 c -1.418,-0.0154 -1.71735,0.0382 -2.5037,0.44873 -1.06491,0.55593 -2.09196,1.64385 -2.61042,2.76513 -0.35683,0.77171 -0.37984,1.12444 -0.43004,6.59208 l -0.053,5.77673 h -1.49037 -1.49037 z m 61.07304,0.0441 0.0457,-8.95174 1.18527,-0.052 c 1.35576,-0.0595 1.26694,-0.1776 1.46558,1.94821 0.0612,0.65484 0.18431,1.19062 0.27361,1.19062 0.0893,0 0.16235,-0.0765 0.16235,-0.16993 0,-0.36701 2.12955,-2.4198 2.9196,-2.81437 0.9089,-0.45393 2.75575,-0.67621 3.87454,-0.46632 l 0.65195,0.12231 -0.11755,1.0027 c -0.20276,1.72939 -0.15127,1.67419 -1.43349,1.53688 -2.34715,-0.25136 -4.4063,0.9889 -5.47048,3.29496 l -0.51212,1.10975 -0.0594,5.60034 -0.0594,5.60035 h -1.48597 -1.48598 z m 12.30474,-0.0441 v -8.99584 h 1.4993 1.49931 v 8.99584 8.99583 h -1.49931 -1.4993 z m 24.16527,-3.79236 v -12.7882 h 1.49931 1.4993 v 12.7882 12.78819 h -1.4993 -1.49931 z m -23.39675,-8.36878 c -0.60122,-0.25568 -0.94491,-0.90079 -0.94491,-1.77358 0,-0.97626 0.33435,-1.49585 1.13195,-1.75908 0.7176,-0.23683 1.71945,0.0961 2.02885,0.67421 0.34088,0.63694 0.2326,1.89879 -0.20629,2.4039 -0.43575,0.5015 -1.39109,0.71759 -2.0096,0.45455 z m -84.81782,-3.70129 c -0.29105,-0.0702 -0.72761,-0.23038 -0.97014,-0.35589 -0.59406,-0.3074 -1.5875,-1.26238 -1.5875,-1.52605 0,-0.11696 0.25793,-0.37597 0.57318,-0.57557 l 0.57319,-0.36291 0.61744,0.58953 c 0.33959,0.32425 0.92602,0.68796 1.30318,0.80826 1.27955,0.40812 3.18908,-0.0749 3.67259,-0.92892 0.22288,-0.39369 0.49348,-3.4826 0.30505,-3.48211 -0.0545,1.4e-4 -0.26616,0.22619 -0.47032,0.50232 -0.54501,0.73717 -1.42254,1.08605 -2.72041,1.08156 -1.41809,-0.005 -2.34754,-0.41645 -3.20626,-1.41967 -1.55914,-1.8215 -1.59308,-5.42616 -0.0699,-7.41878 0.84158,-1.10091 1.84303,-1.56488 3.37461,-1.56346 1.38765,0.001 1.87183,0.22157 2.7537,1.25279 l 0.51151,0.59813 0.007,-0.93618 0.007,-0.93618 0.74965,0.0542 0.74966,0.0542 0.0543,5.46806 c 0.0631,6.35217 -0.0207,7.02194 -1.00117,8.00242 -1.06145,1.06144 -3.36456,1.54358 -5.22675,1.09418 z m 2.67844,-5.84463 c 0.71532,-0.27026 1.42539,-1.00767 1.67326,-1.73766 0.37188,-1.09524 0.26461,-3.02683 -0.22204,-3.99812 -0.61466,-1.22679 -1.17434,-1.57313 -2.54216,-1.57313 -0.85995,0 -1.23652,0.0857 -1.61867,0.3684 -2.08287,1.54083 -1.84443,5.91321 0.3752,6.88002 0.65708,0.2862 1.6677,0.31239 2.33441,0.0605 z m -57.28792,1.9511 c -1.13415,-0.19445 -1.768788,-0.56384 -2.609336,-1.51875 -0.883702,-1.00394 -1.254102,-2.1517 -1.254102,-3.88611 0,-2.28043 1.030859,-4.17719 2.712737,-4.99138 1.1269,-0.54552 2.932776,-0.50383 4.135421,0.0955 1.457859,0.72648 2.175262,1.99064 2.417437,4.25984 l 0.117654,1.10243 h -3.897874 c -4.353257,0 -4.092223,-0.0895 -3.713724,1.27335 0.233525,0.84084 0.963968,1.70708 1.698128,2.01383 1.288716,0.53846 3.117618,0.16284 3.69506,-0.7589 0.172211,-0.27489 0.329123,-0.52486 0.348692,-0.55549 0.101468,-0.15882 1.482302,0.36804 1.482302,0.56557 0,0.53311 -0.851265,1.44752 -1.768741,1.89993 -1.096523,0.5407 -2.184123,0.70243 -3.363654,0.5002 z m 3.660774,-7.00692 c -0.357597,-2.20361 -3.176808,-3.12054 -4.85755,-1.57989 -0.419877,0.38488 -1.067973,1.6004 -1.075288,2.01673 -0.003,0.16796 0.715991,0.22048 3.017816,0.22048 h 3.02169 z m 6.612786,6.99135 c -1.701835,-0.32854 -3.10247,-1.66764 -3.578112,-3.4209 -0.31669,-1.16734 -0.228999,-3.22806 0.184255,-4.32995 0.41828,-1.1153 1.519371,-2.30166 2.524457,-2.71997 0.919298,-0.3826 2.864766,-0.35037 3.753929,0.0622 1.092488,0.5069 2.204861,1.85645 2.204861,2.67498 0,0.0907 -0.349347,0.16491 -0.776327,0.16491 -0.692217,0 -0.813756,-0.0634 -1.121796,-0.58553 -0.89363,-1.51459 -3.398179,-1.56735 -4.492459,-0.0946 -0.612018,0.82366 -0.841362,1.61009 -0.841362,2.88503 0,1.75107 0.657767,3.13217 1.764248,3.70435 1.225288,0.63362 3.035686,0.15113 3.611579,-0.96252 0.248142,-0.47985 0.363653,-0.53697 1.086019,-0.53697 0.792953,0 0.806087,0.009 0.689882,0.48507 -0.450653,1.84533 -2.801388,3.10018 -5.009174,2.67396 z m 20.197738,0.005 c -2.74673,-0.45212 -4.417225,-3.73224 -3.575004,-7.01975 0.371463,-1.44996 1.047982,-2.43916 2.122484,-3.10348 0.706157,-0.43658 1.093422,-0.54456 2.14318,-0.59757 1.606312,-0.0811 2.384532,0.17055 3.395752,1.09814 1.33808,1.2274 1.90799,3.14149 1.5972,5.3643 -0.42278,3.02377 -2.72137,4.74595 -5.683612,4.25836 z m 2.353792,-1.66422 c 1.20692,-0.62412 1.84923,-2.13285 1.72594,-4.05403 -0.13634,-2.12446 -1.08335,-3.39374 -2.66507,-3.57203 -1.041031,-0.11734 -1.549695,0.0203 -2.248763,0.60854 -1.369274,1.15217 -1.725071,3.76725 -0.765798,5.62856 0.352225,0.68344 0.70829,1.10154 1.129076,1.3258 0.746061,0.39762 2.118505,0.42831 2.824615,0.0632 z m 11.97769,1.6617 c -1.52142,-0.23568 -2.64236,-1.14067 -3.36934,-2.72022 -0.59202,-1.28631 -0.58522,-4.00615 0.0133,-5.33428 0.45567,-1.0111 1.48945,-2.0565 2.41679,-2.44397 0.76314,-0.31886 2.91339,-0.31886 3.67654,0 0.92698,0.38732 1.96095,1.43264 2.41742,2.44397 0.35344,0.78303 0.41742,1.20808 0.41797,2.77665 5.8e-4,1.66995 -0.0459,1.94037 -0.4731,2.7499 -1.04622,1.98277 -2.84924,2.87655 -5.09962,2.52795 z m 2.71815,-1.97754 c 1.27463,-0.97221 1.71606,-3.88307 0.85472,-5.63624 -0.6033,-1.22795 -1.26629,-1.63282 -2.67381,-1.63282 -0.90759,0 -1.26284,0.083 -1.70466,0.3981 -2.06959,1.47623 -1.82852,6.21523 0.36678,7.21017 0.86919,0.39393 2.41329,0.22802 3.15697,-0.33921 z m 20.99825,1.99948 c -1.51512,-0.36131 -2.53262,-1.65204 -2.53262,-3.21273 0,-1.66967 1.20769,-2.60487 3.83689,-2.97118 2.98307,-0.41561 3.1937,-0.54431 2.86834,-1.75259 -0.28946,-1.07497 -0.71757,-1.33204 -2.21832,-1.33204 -1.27965,0 -1.30696,0.01 -2.05405,0.72765 -0.75555,0.7261 -0.75849,0.7271 -1.37453,0.46797 -0.33955,-0.14283 -0.64882,-0.29006 -0.68727,-0.32719 -0.0384,-0.0371 0.13481,-0.37687 0.38503,-0.75497 0.70651,-1.06761 1.96423,-1.61277 3.72077,-1.61277 1.75417,0 2.73697,0.41946 3.42818,1.46315 l 0.47343,0.71485 0.0556,4.20267 0.0556,4.20266 h -0.80529 c -0.80273,0 -0.80529,-0.002 -0.80529,-0.61736 0,-0.33955 -0.0286,-0.61736 -0.0635,-0.61736 -0.0349,0 -0.34651,0.2669 -0.6924,0.59311 -0.89341,0.8426 -2.23099,1.15035 -3.59062,0.82613 z m 2.89836,-1.75523 c 0.85646,-0.43971 1.28544,-1.20939 1.40423,-2.51953 l 0.0965,-1.06461 -0.51136,0.11081 c -0.28125,0.061 -1.19725,0.22118 -2.03555,0.35608 -0.83831,0.1349 -1.69159,0.33485 -1.89618,0.44435 -1.08202,0.57908 -1.16003,2.0431 -0.14194,2.66387 0.74618,0.45497 2.20735,0.45925 3.08426,0.009 z m -82.378374,-4.64699 -0.04635,-6.21771 -2.204861,-0.0882 -2.204861,-0.0882 v -0.70556 -0.70555 h 5.291666 5.291666 v 0.70555 0.70556 l -2.248958,0.0494 -2.248958,0.0494 v 6.25654 6.25653 H 58.699344 57.90785 Z m 27.734895,0.92604 v -5.29167 h 0.79375 0.79375 v 0.81502 0.81502 l 0.695833,-0.71701 c 0.788015,-0.81199 1.409826,-0.9945 2.997127,-0.87969 1.288493,0.0932 2.183052,0.71524 2.714867,1.88781 0.330075,0.72776 0.376061,1.22385 0.43915,4.73753 l 0.07047,3.92465 h -0.901083 -0.901083 v -3.71292 c 0,-3.00712 -0.05192,-3.81334 -0.273147,-4.24114 -0.833147,-1.61113 -3.454971,-1.60125 -4.395158,0.0166 -0.323448,0.55657 -0.364379,0.97779 -0.415647,4.27743 l -0.05687,3.66007 H 86.37737 85.596391 Z m 20.990279,-1.76389 v -7.05556 h 0.79375 0.79375 v 7.05556 7.05555 h -0.79375 -0.79375 z m 25.08869,1.80798 0.0467,-5.24757 h 0.79375 0.79375 l 0.0467,5.24757 0.0467,5.24757 h -0.8872 -0.88719 z m 43.34234,3.83884 c -14.36604,-0.0843 -15.47495,-0.11225 -15.91664,-0.40171 -0.79489,-0.52094 -1.05034,-1.10336 -1.20147,-2.73936 -0.23898,-2.58685 -0.21761,-27.36255 0.0242,-28.08214 0.12321,-0.36663 0.73243,-1.12852 1.50006,-1.87598 1.09429,-1.06552 1.3373,-1.4124 1.58399,-2.26099 0.24168,-0.83135 0.25857,-1.19086 0.099,-2.10721 -0.7741,-4.445264 1.0184,-8.127725 4.90681,-10.080376 1.383,-0.694504 2.54928,-0.957091 4.26149,-0.959462 2.43933,-0.0034 4.6352,0.849543 6.29614,2.445547 3.14243,3.01958 3.85035,6.922535 1.97994,10.915981 -1.16895,2.49579 -3.06268,4.11872 -5.73053,4.91108 -1.38403,0.41106 -4.09908,0.415 -5.18155,0.008 -1.12527,-0.42359 -2.50281,-0.38286 -3.10631,0.0919 -0.9869,0.77629 -0.97255,0.58707 -0.97255,12.82851 0,10.02113 0.031,11.31293 0.27718,11.55913 0.24925,0.24926 2.68278,0.27719 24.15174,0.27719 h 23.87456 l 0.54737,-0.46058 c 0.30105,-0.25332 1.05113,-1.22566 1.66685,-2.16076 3.63201,-5.51601 5.39289,-11.51076 5.39563,-18.36894 0.001,-2.96665 -0.22928,-4.95886 -0.88761,-7.67292 -1.35726,-5.595469 -4.00692,-10.315659 -8.32776,-14.835333 -3.85212,-4.029395 -7.6706,-6.474733 -12.76204,-8.172763 -3.49034,-1.16405 -6.0767,-1.598998 -10.24754,-1.723324 -3.40973,-0.101638 -3.6215,-0.127915 -3.8382,-0.47627 -0.13962,-0.224433 -0.27158,-1.269014 -0.33725,-2.669654 -0.37618,-8.023369 -3.45233,-14.93421 -9.36915,-21.048652 -3.95473,-4.086819 -8.34773,-6.777041 -13.67156,-8.372299 -2.41858,-0.724715 -4.47973,-1.093907 -7.69763,-1.378796 -6.77048,-0.59941 -14.02078,1.363753 -20.03268,5.424255 -5.51622,3.725711 -9.04608,7.832298 -11.7773,13.701536 -0.56165,1.206943 -1.06622,2.068664 -1.21128,2.068664 -0.13674,0 -0.78861,-0.509392 -1.44859,-1.131982 -2.25952,-2.131515 -5.27744,-3.227845 -8.36794,-3.039841 -5.59176,0.340163 -10.009456,3.779635 -11.475344,8.934323 -0.444869,1.564348 -0.44996,4.781794 -0.0099,6.279238 0.503751,1.714313 0.422137,1.882706 -1.038327,2.142388 -3.352939,0.596177 -5.689622,1.411142 -8.019452,2.796944 -5.594188,3.327469 -9.273403,8.587949 -10.350372,14.798791 -0.204991,1.182173 -0.254463,2.353118 -0.193761,4.586115 0.09934,3.65426 0.533398,5.51867 1.971159,8.46666 0.958343,1.96499 3.263944,5.27825 4.012947,5.7668 0.357225,0.233 3.449418,0.28158 24.573925,0.38606 19.79168,0.0979 24.24508,0.0776 24.60625,-0.11217 l 0.44097,-0.23168 -0.0177,-6.07951 c -0.0197,-6.77776 -0.0762,-7.17299 -1.12666,-7.88748 -0.71768,-0.48815 -1.32709,-0.49675 -3.21008,-0.0453 -3.66575,0.87881 -6.69114,0.009 -9.20061,-2.646146 -3.56375,-3.770187 -3.43306,-9.26781 0.30824,-12.966379 2.03801,-2.014735 4.2396,-2.855517 7.01105,-2.67751 3.60069,0.231267 7.02832,2.675119 8.28123,5.904406 0.43276,1.11542 0.54909,3.449719 0.27007,5.419507 -0.24297,1.715281 0.03,2.371331 1.65713,3.983261 1.0252,1.015607 1.43785,1.560921 1.57965,2.087511 0.13026,0.48376 0.1759,3.79312 0.14203,10.29949 l -0.0499,9.58669 -0.48011,0.62929 c -0.97218,1.27427 0.94072,1.19525 -28.87596,1.19291 -29.117926,-0.002 -27.837072,0.0411 -29.328785,-0.99268 -0.824404,-0.57131 -4.088974,-4.70712 -5.309475,-6.72645 -3.082341,-5.09976 -4.433978,-11.93954 -3.567748,-18.054097 1.349154,-9.523425 7.475826,-17.708897 16.177843,-21.61423 1.194457,-0.536054 2.317244,-1.114782 2.495081,-1.286062 0.217449,-0.209432 0.400308,-0.824906 0.558363,-1.879359 0.129262,-0.862367 0.361101,-2.109985 0.515196,-2.772484 1.659149,-7.133138 8.840055,-13.131917 16.514915,-13.796224 1.60289,-0.13874 3.8473,0.115044 6.31467,0.714024 1.55054,0.376408 1.8946,0.409678 2.28706,0.221152 0.25408,-0.12205 1.15979,-1.134721 2.01269,-2.250381 6.67212,-8.727677 14.85401,-13.617866 25.53696,-15.26304 2.95309,-0.454776 8.26459,-0.540427 11.1125,-0.179196 8.51996,1.080681 16.14572,4.933285 22.62115,11.428413 5.56786,5.5848 9.2791,12.587765 10.65424,20.104134 0.17328,0.947119 0.4171,1.727189 0.59569,1.905772 0.19296,0.192962 0.74138,0.347841 1.51597,0.428127 7.46133,0.773357 14.15335,3.515838 19.92421,8.165213 6.92508,5.57929 11.71527,12.735208 13.72703,20.506408 2.3781,9.1863 1.30485,19.69237 -2.85827,27.97958 -1.01408,2.01865 -3.22552,5.39317 -4.68996,7.15656 -0.7333,0.88299 -1.14901,1.22793 -1.6463,1.36603 -0.68625,0.19057 -9.64301,0.19339 -40.44884,0.0127 z m -3.50303,-35.90348 c 0.95723,-0.33773 1.52401,-0.85058 1.94278,-1.75793 0.85545,-1.853519 -0.0639,-4.121542 -1.99811,-4.929527 -1.33408,-0.557278 -2.58683,-0.247347 -3.71883,0.92004 -1.8558,1.913809 -1.23871,4.862177 1.20488,5.756737 0.92209,0.33756 1.63441,0.34053 2.56928,0.0107 z m -42.58148,-5.851795 c 1.57302,-0.812619 2.31509,-3.156357 1.5008,-4.74011 -0.70126,-1.36391 -1.71435,-2.013937 -3.13878,-2.013937 -2.03549,0 -3.59107,1.528166 -3.59107,3.527778 0,2.718391 2.83101,4.465093 5.22905,3.226269 z m 3.67084,29.582065 0.79729,-1.5875 h 0.97292 0.97291 l -1.06743,1.5875 c -1.04547,1.55483 -1.08189,1.5875 -1.77021,1.5875 h -0.70277 z m 13.53632,-0.58653 c -1.01701,-0.56482 -0.95623,0.6533 -0.98568,-19.75237 l -0.027,-18.73124 -0.38803,-0.543974 c -0.21342,-0.299185 -0.84842,-0.789631 -1.41111,-1.089879 -1.46178,-0.779986 -2.60224,-1.999696 -3.42016,-3.657813 -1.56003,-3.162528 -1.59272,-6.324935 -0.0964,-9.321883 0.82775,-1.657861 1.77754,-2.727731 3.36292,-3.788101 1.66168,-1.111398 3.14234,-1.622854 5.03956,-1.740792 1.97537,-0.122796 3.30399,0.141202 5.06055,1.005538 5.13475,2.526602 7.13431,8.553828 4.54954,13.713577 -0.80464,1.606222 -2.12315,3.04739 -3.36105,3.673709 -0.54988,0.278216 -1.20852,0.779478 -1.46365,1.113915 l -0.46386,0.608068 -0.0882,18.622845 c -0.0663,14.0004 -0.14104,18.74115 -0.30111,19.09947 -0.37049,0.8294 -1.02668,1.02338 -3.4384,1.01643 -1.39924,-0.004 -2.31097,-0.0848 -2.56792,-0.2275 z m 4.01967,-46.024235 c 0.88969,-0.449455 1.48424,-1.230508 1.66332,-2.185056 0.0978,-0.521456 0.0232,-0.843121 -0.37694,-1.625594 -0.93859,-1.835272 -2.95063,-2.314154 -4.39494,-1.046034 -0.832,0.730505 -1.13007,1.362619 -1.13007,2.396493 0,0.603015 0.12051,1.045961 0.3983,1.463967 0.45999,0.692189 1.72391,1.393099 2.51211,1.393099 0.29844,0 0.89614,-0.178593 1.32822,-0.396875 z M 47.408199,86.827657 c -5.349896,-3.003013 -7.053006,-4.038371 -7.04501,-4.282815 0.0171,-0.522634 2.9212,-5.487347 3.747489,-6.406524 0.955085,-1.062452 2.790711,-2.011042 4.209344,-2.175248 3.402821,-0.393874 7.964228,2.152246 9.529423,5.319204 0.611477,1.237238 0.657858,1.441654 0.647544,2.853895 -0.0084,1.145898 -0.111585,1.782306 -0.418366,2.579534 -0.548648,1.425764 -3.168647,6.087063 -3.416799,6.078904 -0.108939,-0.0036 -3.37307,-1.788709 -7.253625,-3.96695 z m 8.043949,-0.885547 c 1.097594,-2.152998 1.128272,-2.250121 1.128245,-3.571875 -2.3e-5,-1.171713 -0.07095,-1.486727 -0.515413,-2.288987 -1.287035,-2.323134 -4.345868,-4.127923 -6.996181,-4.127923 -1.489403,0 -2.734609,0.515393 -3.653379,1.512141 -0.799589,0.867452 -2.830525,4.375392 -2.585893,4.466491 0.09292,0.0346 2.629575,1.445932 5.637005,3.136285 3.00743,1.690353 5.555645,3.076446 5.6627,3.080206 0.107054,0.0038 0.702366,-0.989091 1.322916,-2.206338 z M 238.7561,89.905581 c -0.97688,-0.483548 -2.09106,-1.715515 -2.6717,-2.954124 -0.3802,-0.81103 -0.46927,-1.257615 -0.46927,-2.352852 0,-1.221802 0.0517,-1.425381 0.53756,-2.116666 0.29565,-0.420666 0.618,-0.764848 0.71632,-0.764848 0.0983,0 0.43413,0.290838 0.74623,0.646305 l 0.56747,0.646305 -0.44594,0.657129 c -0.55304,0.814943 -0.56114,1.49966 -0.0312,2.637656 0.8631,1.853429 2.5485,2.607755 3.56203,1.594234 0.56,-0.56 0.55765,-1.271937 -0.0113,-3.438287 -0.55236,-2.103079 -0.56353,-3.176915 -0.0427,-4.103636 0.40232,-0.715815 1.39154,-1.411163 2.31186,-1.625054 0.74359,-0.172819 2.22735,0.327052 3.04292,1.025148 0.94529,0.809133 1.83414,2.498994 1.96101,3.728205 0.10705,1.03723 -0.19266,2.089722 -0.82761,2.906301 l -0.34289,0.440972 -0.6256,-0.621605 -0.62561,-0.621604 0.36559,-0.701312 c 0.48599,-0.932273 0.37647,-1.995588 -0.30591,-2.970184 -0.94142,-1.344552 -2.19566,-1.677953 -3.06017,-0.813447 -0.47045,0.470457 -0.44826,1.324297 0.0925,3.556151 0.24241,1.000573 0.4391,2.097036 0.4371,2.436585 -0.007,1.221045 -0.91189,2.57771 -1.99176,2.986861 -0.79696,0.301959 -2.07851,0.222892 -2.88887,-0.178233 z m -6.10465,-10.813848 c -1.45044,-0.540255 -2.45567,-1.482864 -3.31372,-3.107281 -0.59989,-1.1357 -0.59486,-3.242931 0.0108,-4.497916 0.59748,-1.238141 2.35645,-2.919851 3.79442,-3.627762 0.97835,-0.48164 1.44011,-0.595881 2.66931,-0.660397 1.39253,-0.07309 1.55812,-0.04266 2.62438,0.482258 2.74121,1.349496 3.88486,4.454643 2.65226,7.201239 -0.64278,1.432298 -2.28886,3.026811 -3.90585,3.783494 -1.41029,0.659953 -3.40146,0.847299 -4.53155,0.426365 z m 3.66924,-2.204488 c 3.08009,-1.478564 4.3092,-4.308349 2.78514,-6.412254 -1.48273,-2.046854 -4.37252,-1.904432 -6.76495,0.333407 -1.84021,1.721297 -2.17382,3.529563 -0.95578,5.180533 1.11195,1.507164 2.96476,1.844388 4.93559,0.898314 z M 57.638754,73.690354 c -2.716389,-1.925503 -4.938711,-3.566255 -4.938494,-3.646116 5.37e-4,-0.197313 0.854607,-1.463205 0.989034,-1.465935 0.106087,-0.0022 9.795815,6.770374 10.107583,7.064585 0.190155,0.179445 -0.728779,1.583208 -1.022738,1.562333 -0.108073,-0.0077 -2.418996,-1.589365 -5.135385,-3.514867 z m 3.4521,-4.555213 c -2.563984,-2.102219 -4.691392,-3.913973 -4.727574,-4.026119 -0.03618,-0.112147 0.185187,-0.489744 0.49193,-0.839106 l 0.557716,-0.635203 0.616507,0.5413 c 0.339078,0.297715 0.643396,0.51441 0.676261,0.481545 0.03287,-0.03287 -0.01608,-0.397285 -0.108774,-0.809821 -0.186913,-0.831891 -0.09522,-1.395678 0.382045,-2.349083 0.357171,-0.713497 1.331261,-1.615308 1.636508,-1.515078 0.109054,0.03581 0.363412,0.357825 0.56524,0.715591 l 0.366958,0.650484 -0.649704,0.682981 c -1.134753,1.192874 -1.261816,2.981042 -0.287792,4.050119 0.208982,0.229377 1.749186,1.533195 3.422676,2.897373 1.673489,1.364179 3.042708,2.527641 3.042708,2.585471 0,0.168965 -1.072235,1.421651 -1.203467,1.406004 -0.0657,-0.0078 -2.217255,-1.734239 -4.781238,-3.836458 z m 163.349956,0.329342 -0.56184,-0.699136 4.80975,-4.070099 4.80975,-4.070098 0.57064,0.668193 c 0.31385,0.367506 0.57182,0.725285 0.57326,0.795065 0.003,0.146274 -9.34787,8.075211 -9.5234,8.075211 -0.064,0 -0.36915,-0.314611 -0.67816,-0.699136 z M 49.95918,68.60968 c -0.977389,-0.301614 -1.221255,-1.676095 -0.410527,-2.313814 0.623028,-0.490074 1.220082,-0.460663 1.767829,0.08708 0.363854,0.363854 0.431083,0.560572 0.342665,1.002662 -0.183422,0.91711 -0.936792,1.459577 -1.699967,1.224068 z m 171.50378,-3.580339 c -1.089,-0.20122 -1.90423,-0.637181 -2.77617,-1.484606 -2.49947,-2.42921 -2.30029,-5.853635 0.50288,-8.645937 1.46972,-1.464017 2.78078,-2.089408 4.55189,-2.171309 1.14836,-0.0531 1.50014,0.0035 2.30111,0.370182 2.04121,0.934497 3.31404,2.778626 3.30678,4.790996 -0.004,1.047625 -0.49878,2.573563 -0.83484,2.573563 -0.0827,0 -0.40343,-0.261051 -0.71268,-0.580113 -0.56033,-0.578112 -0.56156,-0.583488 -0.35722,-1.557698 0.18793,-0.895944 0.17112,-1.047686 -0.20129,-1.816987 -0.79911,-1.650736 -2.44246,-2.333654 -4.30952,-1.790885 -0.75168,0.218518 -1.24844,0.532488 -2.09399,1.323452 -2.30864,2.159624 -2.68065,4.47555 -0.99041,6.165793 0.93519,0.935188 1.83787,1.220733 2.93305,0.927817 0.79329,-0.212173 0.817,-0.206145 1.39583,0.354881 0.32386,0.313897 0.58884,0.632912 0.58884,0.708924 0,0.217424 -1.25905,0.791867 -1.94028,0.885253 -0.33955,0.04655 -0.95334,0.02255 -1.36398,-0.05333 z M 70.029353,64.690016 c -2.021751,-0.50569 -4.15828,-2.321466 -5.119565,-4.350973 -0.494378,-1.043754 -0.567813,-1.383186 -0.564847,-2.610841 0.0029,-1.181712 0.07923,-1.554485 0.46983,-2.293055 0.561737,-1.062177 1.538146,-2.028538 2.613566,-2.586666 0.641903,-0.333139 1.063699,-0.410962 2.204861,-0.406804 1.686772,0.0061 2.670297,0.437596 4.169027,1.828858 l 0.94625,0.878398 -3.238021,3.250599 -3.238021,3.250599 0.59297,0.45228 c 0.797236,0.608082 1.430015,0.829264 2.372443,0.829264 2.272295,0 4.225872,-2.146973 3.774525,-4.148187 -0.135121,-0.59911 -0.112888,-0.636253 0.647612,-1.081936 1.053524,-0.617406 1.205159,-0.440944 1.205159,1.402484 0,1.716442 -0.259782,2.349627 -1.537646,3.747814 -1.416429,1.549799 -3.525528,2.281541 -5.298143,1.838166 z m -0.393792,-6.883889 2.467081,-2.479714 -0.504257,-0.408531 c -0.544202,-0.440893 -1.574517,-0.808003 -2.250235,-0.801778 -0.687367,0.0063 -1.795575,0.601804 -2.398973,1.289037 -0.670671,0.763852 -1.007018,1.871004 -0.855762,2.816907 0.11696,0.731427 0.726395,2.063793 0.943995,2.063793 0.07209,0 1.241256,-1.115871 2.598151,-2.479714 z m 166.185399,2.335848 c -0.15941,-0.17614 -0.33933,-0.567753 -0.39983,-0.870252 -0.0884,-0.44209 -0.0212,-0.638807 0.34266,-1.002661 0.54775,-0.547748 1.14481,-0.577159 1.76783,-0.08708 0.57388,0.451408 0.65086,1.527991 0.14219,1.988332 -0.43458,0.393294 -1.48583,0.377219 -1.85285,-0.02833 z M 210.8325,55.898123 c -1.04589,-0.344347 -1.94608,-0.949029 -2.79404,-1.876825 -1.11198,-1.216688 -1.53136,-2.432743 -1.38721,-4.022452 0.2045,-2.255297 2.15221,-4.998872 4.2961,-6.051568 0.89352,-0.438742 1.23244,-0.506058 2.53098,-0.502707 1.2141,0.0031 1.64342,0.08008 2.25691,0.404515 1.1134,0.588806 2.1174,1.566252 2.64911,2.579035 0.40052,0.762911 0.46925,1.113081 0.47137,2.401591 0.002,1.385496 -0.0505,1.615704 -0.64782,2.824231 -0.78645,1.591269 -2.25686,3.14009 -3.60933,3.801789 -1.0189,0.498502 -2.91806,0.721592 -3.76607,0.442391 z m 3.0619,-2.28389 c 1.0803,-0.580975 1.94933,-1.572026 2.62454,-2.993062 0.45416,-0.95582 0.51745,-1.264931 0.45614,-2.227784 -0.0555,-0.87242 -0.17536,-1.254552 -0.54547,-1.73979 -0.74277,-0.973823 -1.63221,-1.437146 -2.76994,-1.44291 -1.23683,-0.0063 -2.11384,0.415294 -3.27687,1.575128 -1.13739,1.134251 -1.72255,2.337936 -1.81185,3.726959 -0.0794,1.234509 0.1427,1.787999 1.07788,2.686606 1.21475,1.167252 2.5956,1.302181 4.24557,0.414853 z M 78.922976,55.347335 c -2.645841,-1.251689 -4.70555,-4.684274 -4.362504,-7.270284 0.240105,-1.809999 1.647181,-3.627621 3.420211,-4.418137 1.088879,-0.485482 2.665677,-0.490948 3.735153,-0.01295 1.289367,0.576281 1.371382,0.803384 0.53061,1.469287 l -0.715331,0.566553 -0.638021,-0.302761 c -1.323973,-0.628267 -2.945965,-0.06935 -3.971556,1.368545 -0.57846,0.81101 -0.580434,2.695463 -0.004,3.865499 1.347788,2.73595 4.083822,4.149806 6.019192,3.110443 0.428931,-0.230351 1.024244,-0.720795 1.322917,-1.089875 0.480775,-0.594108 0.543663,-0.803364 0.548454,-1.824953 0.0051,-1.095809 0.03588,-1.179337 0.610698,-1.659214 0.332908,-0.277923 0.658186,-0.505315 0.722842,-0.505315 0.272952,0 0.597446,1.223587 0.584727,2.204861 -0.017,1.311449 -0.607205,2.556473 -1.664873,3.512013 -1.791387,1.618411 -4.038933,1.97953 -6.138471,0.986286 z M 196.98367,52.207448 c -2.65665,-0.918646 -4.38612,-2.666558 -4.76579,-4.816604 -0.1106,-0.626352 -0.10207,-0.63766 0.564,-0.747712 1.16984,-0.193284 1.2454,-0.163676 1.37736,0.539739 0.0676,0.36045 0.24288,0.887293 0.38947,1.170763 0.97352,1.882577 4.00987,2.888469 5.34016,1.769105 0.48168,-0.405309 2.18773,-3.061309 2.05296,-3.196078 -0.0281,-0.02805 -0.33845,0.0691 -0.68978,0.215893 -1.61381,0.674291 -3.49354,0.109754 -4.92098,-1.477911 -0.98617,-1.096848 -1.27252,-2.037468 -1.15897,-3.806914 0.10972,-1.709624 0.85236,-3.26236 2.22854,-4.659496 1.68437,-1.710031 3.44506,-2.272727 5.36498,-1.71459 1.1271,0.327657 2.34754,1.185285 2.80755,1.972923 0.17252,0.295396 0.37745,0.968921 0.4554,1.496721 l 0.14172,0.959638 0.49578,-0.837848 c 0.27268,-0.460816 0.58746,-0.83744 0.69951,-0.836943 0.11205,4.97e-4 0.50193,0.181432 0.8664,0.402078 l 0.66267,0.401175 -3.44042,5.903824 c -2.34372,4.021846 -3.66124,6.104514 -4.13311,6.533393 -1.15787,1.052374 -2.668,1.306128 -4.33745,0.728844 z m 4.97549,-6.57849 c 1.40764,-0.681429 2.84319,-2.955513 3.00715,-4.763708 0.18081,-1.993981 -1.10868,-3.506018 -3.11367,-3.651045 -1.25177,-0.09054 -2.09213,0.292315 -3.14228,1.431595 -1.10717,1.201137 -1.50607,2.113916 -1.59442,3.648375 -0.0726,1.261593 -0.0504,1.358268 0.4807,2.085555 0.63061,0.863605 2.0202,1.614119 2.99371,1.616888 0.33317,9.48e-4 0.94914,-0.164499 1.36881,-0.36766 z M 90.945631,48.638233 c -2.256138,-0.451887 -4.376924,-2.62546 -5.19743,-5.326797 -0.87088,-2.867184 0.189006,-5.485372 2.74757,-6.787195 0.929018,-0.472694 2.487496,-0.700738 3.495966,-0.511548 0.699309,0.131191 2.247709,1.098788 2.247709,1.404597 0,0.112831 -0.337343,0.403698 -0.749652,0.64637 l -0.749653,0.441222 -0.787028,-0.398409 c -0.432865,-0.219125 -1.031203,-0.39841 -1.329639,-0.39841 -0.781959,0 -2.010884,0.686427 -2.635608,1.472142 -0.503421,0.633151 -0.539049,0.774305 -0.53425,2.116666 0.0044,1.22402 0.07828,1.578596 0.496104,2.38023 1.404163,2.694007 3.671767,3.81888 5.709665,2.83235 1.111846,-0.538235 1.67113,-1.359741 1.798333,-2.641488 0.100119,-1.008843 0.136324,-1.073296 0.837127,-1.490265 l 0.732482,-0.435817 0.193559,0.555246 c 0.705715,2.024415 -0.557868,4.498999 -2.858433,5.597917 -1.227877,0.586523 -2.327601,0.761352 -3.416822,0.543189 z m 7.49194,-10.228148 -2.761338,-5.647978 0.875469,-0.443634 0.875469,-0.443634 2.727669,5.584496 c 1.50021,3.071473 2.72766,5.638131 2.72766,5.703686 0,0.09439 -1.46729,0.895042 -1.64026,0.895042 -0.0238,0 -1.285933,-2.54159 -2.804669,-5.647978 z m 88.621859,3.536449 c -2.46443,-0.886816 -3.83251,-2.55199 -4.04785,-4.926893 -0.24076,-2.655074 1.57025,-5.992247 3.91673,-7.217443 1.27337,-0.664881 3.29225,-0.669947 4.6778,-0.01174 2.28537,1.085678 3.36687,3.178508 2.96542,5.738485 -0.17234,1.099042 -0.79914,2.708285 -1.05487,2.708285 -0.0895,0 -1.94346,-0.754062 -4.11997,-1.675694 -2.17652,-0.921632 -4.02831,-1.675695 -4.11509,-1.675695 -0.21066,0 -0.37827,0.893286 -0.37827,2.015988 0,1.718459 1.25741,3.077076 3.23098,3.491036 0.8982,0.1884 1.02538,0.170962 1.89616,-0.25998 l 0.93338,-0.461925 0.67014,0.47376 c 0.36858,0.260568 0.67184,0.558052 0.67391,0.661075 0.002,0.103023 -0.23732,0.365558 -0.53198,0.58341 -1.26636,0.936254 -3.0709,1.14949 -4.71649,0.557329 z m 5.67804,-6.938163 c 0.29741,-1.515113 -0.49028,-3.023094 -1.91781,-3.671534 -1.39849,-0.635241 -2.94434,-0.311457 -4.12053,0.86306 -0.41901,0.418414 -0.73487,0.841657 -0.70191,0.940541 0.0717,0.215065 6.149,2.817681 6.40264,2.741939 0.097,-0.02897 0.24894,-0.422273 0.33761,-0.874006 z m -85.45397,5.458065 c -2.28495,-0.616256 -4.06599,-2.824545 -4.68937,-5.814278 -0.32231,-1.545818 -0.13828,-2.874739 0.58117,-4.196591 0.95895,-1.761907 2.6862,-2.71508 4.91067,-2.709925 1.178,0.0027 1.55739,0.07993 2.29655,0.467325 1.01022,0.529451 2.35629,1.88886 2.8711,2.899557 0.91142,1.789309 1.18738,4.330318 0.64361,5.926192 -0.55331,1.62388 -2.16837,2.971078 -4.10955,3.427982 -1.19382,0.280993 -1.46145,0.280965 -2.50418,-2.62e-4 z m 3.15963,-2.089643 c 1.16971,-0.55744 1.78798,-1.643473 1.78798,-3.140693 0,-2.144749 -0.92335,-4.134782 -2.3961,-5.164134 -1.99413,-1.393763 -4.83162,-0.260365 -5.3423,2.13391 -0.39153,1.835625 0.62271,4.709886 2.0495,5.808098 1.26953,0.977164 2.39262,1.081621 3.90092,0.362819 z m 67.35466,-0.176707 c -0.49954,-0.13255 -0.64426,-0.24993 -0.57557,-0.466839 0.74184,-2.342614 2.21155,-8.04435 2.21163,-8.580045 3.6e-4,-2.402272 -3.28824,-3.583289 -5.08535,-1.826278 -0.6686,0.653677 -0.72944,0.813754 -1.95632,5.147627 -0.57206,2.020769 -1.07998,3.713999 -1.12872,3.762733 -0.142,0.142002 -1.79668,-0.392539 -1.76944,-0.571615 0.0483,-0.317875 3.27744,-11.805273 3.3361,-11.868108 0.0528,-0.05657 1.84555,0.323499 1.84075,0.390248 -0.001,0.01458 -0.12026,0.416623 -0.2649,0.893434 -0.2935,0.96748 -0.24286,1.167241 0.18692,0.737457 1.38745,-1.387448 4.13302,-1.184023 5.74252,0.425475 1.00843,1.008434 1.33566,2.097424 1.06676,3.550113 -0.13508,0.729695 -1.64801,6.317462 -2.25019,8.31065 -0.10297,0.340838 -0.36014,0.358907 -1.35419,0.09515 z m -59.74584,-0.910081 c 0,-0.0396 -0.635,-2.704054 -1.41112,-5.921008 -0.77611,-3.216953 -1.41111,-5.955356 -1.41111,-6.085339 0,-0.131338 0.27984,-0.288832 0.62989,-0.354501 0.34644,-0.06499 0.7342,-0.158195 0.86169,-0.207118 0.15833,-0.06076 0.2997,0.194098 0.44604,0.804092 0.11783,0.491174 0.26585,0.888388 0.32893,0.882698 0.0631,-0.0057 0.31614,-0.421377 0.56235,-0.923747 0.37301,-0.761116 0.60827,-0.99481 1.41111,-1.401688 2.47814,-1.255929 4.97743,-0.509351 5.96279,1.781184 0.28293,0.657689 2.32081,8.632891 2.32081,9.082442 0,0.102995 -1.76441,0.528595 -1.83973,0.443768 -0.0312,-0.03519 -0.51179,-1.953235 -1.06788,-4.26233 -1.06932,-4.44024 -1.2842,-4.934276 -2.3963,-5.509369 -1.39914,-0.723519 -3.62497,0.195305 -4.20934,1.73761 -0.30146,0.795657 -0.23638,1.288187 0.68339,5.171988 1.11021,4.687874 1.06698,4.329577 0.53959,4.473022 -1.00526,0.273415 -1.41111,0.356333 -1.41111,0.288296 z m 35.85672,-3.658282 c -1.10865,-0.426178 -2.30462,-1.542575 -2.84223,-2.653135 -1.4718,-3.040321 -0.35585,-7.561294 2.26647,-9.182006 2.54925,-1.575552 6.25978,-0.614092 7.57433,1.962634 0.46535,0.912165 0.76449,2.74761 0.62707,3.847503 -0.13965,1.117755 0.3387,1.064935 -5.20308,0.574521 -2.18122,-0.193025 -3.99445,-0.350954 -4.0294,-0.350954 -0.035,0 -0.007,0.416718 0.0622,0.926041 0.31029,2.285787 1.67453,3.483681 3.96744,3.483681 1.22459,0 1.89646,-0.284424 2.50318,-1.059673 l 0.42066,-0.537499 0.82959,0.307466 c 0.45627,0.169107 0.82958,0.409179 0.82958,0.533495 0,0.429143 -1.32562,1.694775 -2.20486,2.105083 -1.17433,0.548018 -3.43428,0.568185 -4.80091,0.04284 z m 5.71013,-7.654085 c -0.22715,-1.657203 -1.07275,-2.679059 -2.54505,-3.075506 -1.77592,-0.478206 -3.70305,0.592772 -4.34606,2.415269 -0.14535,0.411948 -0.24794,0.760311 -0.22799,0.774141 0.0505,0.03498 6.09427,0.624408 6.71893,0.655265 0.50443,0.02492 0.50806,0.01795 0.40017,-0.769169 z m -19.18258,7.666801 c -1.62484,-0.265998 -2.88951,-1.328906 -3.75542,-3.156286 -0.52683,-1.111792 -0.54899,-1.251129 -0.54899,-3.451617 0,-2.616 0.21915,-3.330475 1.43533,-4.679478 0.95961,-1.064407 2.14389,-1.578448 3.64151,-1.580605 1.47965,-0.0021 2.14383,0.265546 2.99249,1.206035 0.36355,0.402886 0.69891,0.73252 0.74524,0.73252 0.0463,0 0.0502,-0.218281 0.009,-0.48507 -0.0416,-0.266788 -0.12113,-1.645543 -0.17679,-3.063901 l -0.10121,-2.578831 0.93086,-0.09178 c 0.51197,-0.05048 0.95364,-0.07107 0.98149,-0.04577 0.0607,0.05519 0.73636,14.594427 0.74034,15.931856 l 0.003,0.935259 -0.92604,-0.05332 -0.92604,-0.05331 -0.0882,-0.970139 -0.0882,-0.970139 -0.46373,0.670994 c -0.25505,0.369047 -0.7256,0.864197 -1.04566,1.100334 -0.51793,0.382116 -0.82587,0.477962 -2.19478,0.683117 -0.19403,0.02908 -0.71767,-0.0069 -1.16364,-0.07988 z m 3.17143,-2.271648 c 0.35233,-0.250884 0.78342,-0.826063 1.05667,-1.409871 0.39916,-0.852837 0.46039,-1.212572 0.45299,-2.661801 -0.007,-1.34531 -0.0866,-1.849148 -0.4046,-2.555442 -0.71683,-1.592289 -1.60121,-2.232315 -3.08436,-2.232164 -1.56227,1.6e-4 -2.44813,0.52366 -3.17656,1.877189 -0.32291,0.60002 -0.37971,0.99578 -0.37971,2.645834 0,1.759723 0.0435,2.022348 0.46761,2.822222 0.85464,1.611909 1.57511,2.054213 3.23734,1.987433 0.96975,-0.03896 1.36351,-0.140786 1.83062,-0.4734 z M 94.471463,30.478686 c -0.792423,-0.327085 -0.977712,-1.267221 -0.395603,-2.007252 0.466385,-0.592912 1.528187,-0.650643 2.01773,-0.109705 0.934689,1.03282 -0.31079,2.658233 -1.622127,2.116957 z m 10.176337,-3.57587 c 0.01,-0.301023 0.53769,-4.251971 0.57072,-4.272626 0.0249,-0.01556 0.50256,-0.198925 1.06152,-0.407484 l 1.01628,-0.379199 -0.0909,0.391653 c -0.78008,3.362166 -0.9455,4.038259 -0.99798,4.078861 -0.10989,0.08501 -1.56113,0.632868 -1.55967,0.588795 z"
       id="path8" /></g></svg>
